<svg width="862" height="863" xmlns="http://www.w3.org/2000/svg" xmlns:xlink="http://www.w3.org/1999/xlink" xml:space="preserve" overflow="hidden"><g transform="translate(-1219 -806)"><path d="M161.625 71.8333 161.625 790.167 700.375 790.167 700.375 265.658 506.551 71.8333ZM511.965 102.641 669.568 260.243C669.603 260.278 669.602 260.336 669.567 260.37 669.55 260.386 669.528 260.396 669.505 260.396L511.813 260.396 511.813 102.704C511.813 102.654 511.854 102.615 511.903 102.615 511.927 102.616 511.949 102.625 511.965 102.641ZM179.583 772.208 179.583 89.7917 493.854 89.7917 493.854 278.354 682.417 278.354 682.417 772.208Z" fill="#FFFFFF" transform="matrix(1 0 0 1.00116 1219 806)"/><path d="M1623 1231.99 1670 1284.99" stroke="#7F7F7F" stroke-width="10.3125" stroke-linecap="round" stroke-linejoin="round" stroke-miterlimit="10" fill="none" fill-rule="evenodd"/><path d="M1572 1233.99 1499 1330.99" stroke="#7F7F7F" stroke-width="10.3125" stroke-linecap="round" stroke-linejoin="round" stroke-miterlimit="10" fill="none" fill-rule="evenodd"/><path d="M1636 1432.99 1512 1379.99" stroke="#7F7F7F" stroke-width="10.3125" stroke-linecap="round" stroke-linejoin="round" stroke-miterlimit="10" fill="none" fill-rule="evenodd"/><path d="M1637 1200.49C1637 1223.41 1618.64 1241.99 1596 1241.99 1573.35 1241.99 1555 1223.41 1555 1200.49 1555 1177.57 1573.35 1158.99 1596 1158.99 1618.64 1158.99 1637 1177.57 1637 1200.49Z" fill="#595959" fill-rule="evenodd"/><text fill="#FFFFFF" font-family="CMU Serif,CMU Serif_MSFontService,sans-serif" font-weight="400" font-size="64" transform="matrix(1 0 0 1 1571.88 1223)">D</text><path d="M1681 1407.99 1690 1356.99" stroke="#7F7F7F" stroke-width="10.3125" stroke-linecap="round" stroke-linejoin="round" stroke-miterlimit="10" fill="none" fill-rule="evenodd"/><path d="M1715 1449.01C1715 1471.65 1696.64 1490.01 1674 1490.01 1651.36 1490.01 1633 1471.65 1633 1449.01 1633 1426.36 1651.36 1408.01 1674 1408.01 1696.64 1408.01 1715 1426.36 1715 1449.01Z" fill="#595959" fill-rule="evenodd"/><text fill="#FFFFFF" font-family="CMU Serif,CMU Serif_MSFontService,sans-serif" font-weight="400" font-size="64" transform="matrix(1 0 0 1 1649.95 1472)">D</text><path d="M1795 1228.99 1728 1288.99" stroke="#3B4285" stroke-width="12.4768" stroke-linecap="round" stroke-linejoin="round" stroke-miterlimit="10" fill="none" fill-rule="evenodd"/><path d="M1795.01 1228.99 1728.01 1288.99" stroke="#7F7F7F" stroke-width="10.3125" stroke-linecap="round" stroke-linejoin="round" stroke-miterlimit="10" fill="none" fill-rule="evenodd"/><path d="M1867.01 1201.49C1867.01 1224.41 1848.65 1242.99 1826.01 1242.99 1803.36 1242.99 1785.01 1224.41 1785.01 1201.49 1785.01 1178.57 1803.36 1159.99 1826.01 1159.99 1848.65 1159.99 1867.01 1178.57 1867.01 1201.49Z" fill="#595959" fill-rule="evenodd"/><text fill="#FFFFFF" font-family="CMU Serif,CMU Serif_MSFontService,sans-serif" font-weight="400" font-size="64" transform="matrix(1 0 0 1 1801.4 1224)">D</text><path d="M1739 1316C1739 1338.64 1720.42 1357 1697.5 1357 1674.58 1357 1656 1338.64 1656 1316 1656 1293.35 1674.58 1275 1697.5 1275 1720.42 1275 1739 1293.35 1739 1316Z" fill="#595959" fill-rule="evenodd"/><text fill="#FFFFFF" font-family="CMU Serif,CMU Serif_MSFontService,sans-serif" font-weight="400" font-size="64" transform="matrix(1 0 0 1 1673.24 1339)">D</text><path d="M1514.99 1364C1514.99 1386.64 1496.63 1405 1473.99 1405 1451.34 1405 1432.99 1386.64 1432.99 1364 1432.99 1341.36 1451.34 1323 1473.99 1323 1496.63 1323 1514.99 1341.36 1514.99 1364Z" fill="#595959" fill-rule="evenodd"/><text fill="#FFFFFF" font-family="CMU Serif,CMU Serif_MSFontService,sans-serif" font-weight="400" font-size="64" transform="matrix(1 0 0 1 1449.9 1387)">D</text></g></svg>