<svg width="3186" height="1669" viewBox="0 0 3186 1669" xmlns="http://www.w3.org/2000/svg" xmlns:xlink="http://www.w3.org/1999/xlink" xml:space="preserve" overflow="hidden"><defs><style>@import url('https://fonts.cdnfonts.com/css/cmu-serif'); text { font-family: 'CMU Serif', serif !important; }</style></defs><g transform="translate(-49 -358)"><path d="M2350.69 614.478 2792.42 614.478 2792.42 933.477 2350.69 933.477Z" fill-rule="evenodd"/><path d="M2792.42 614.478 3234.15 614.478 3234.15 933.477 2792.42 933.477Z" fill-rule="evenodd"/><path d="M1908.96 933.477 2350.69 933.477 2350.69 1243.9 1908.96 1243.9Z" fill-rule="evenodd"/><path d="M2350.69 933.477 2792.42 933.477 2792.42 1243.9 2350.69 1243.9Z" fill="#262626" fill-rule="evenodd"/><path d="M2792.42 933.477 3234.15 933.477 3234.15 1243.9 2792.42 1243.9Z" fill="#262626" fill-rule="evenodd"/><path d="M1908.96 1243.9 2350.69 1243.9 2350.69 1562.9 1908.96 1562.9Z" fill-rule="evenodd"/><path d="M2350.69 1243.9 2792.42 1243.9 2792.42 1562.9 2350.69 1562.9Z" fill="#262626" fill-rule="evenodd"/><path d="M2792.42 1243.9 3234.15 1243.9 3234.15 1562.9 2792.42 1562.9Z" fill="#262626" fill-rule="evenodd"/><text fill="#FFFFFF" font-family="CMU Serif,CMU Serif_MSFontService,sans-serif" font-weight="700" font-size="55" transform="matrix(1 0 0 1 2865.46 725)">Ciudadano </text><g><text fill="#FFFFFF" font-family="CMU Serif,CMU Serif_MSFontService,sans-serif" font-weight="700" font-size="55" transform="matrix(1 0 0 1 2810.19 791)">no cooperativo</text></g><text fill="#FFFFFF" font-family="CMU Serif,CMU Serif_MSFontService,sans-serif" font-weight="700" font-size="55" transform="matrix(1 0 0 1 2964.3 857)">(D)</text><text fill="#FFFFFF" font-family="CMU Serif,CMU Serif_MSFontService,sans-serif" font-weight="700" font-size="55" transform="matrix(1 0 0 1 2423.74 725)">Ciudadano</text><text fill="#FFFFFF" font-family="CMU Serif,CMU Serif_MSFontService,sans-serif" font-weight="700" font-size="55" transform="matrix(1 0 0 1 2412.28 791)">cooperativo</text><text fill="#FFFFFF" font-family="CMU Serif,CMU Serif_MSFontService,sans-serif" font-weight="700" font-size="55" transform="matrix(1 0 0 1 2524 857)">(C)</text><text fill="#FFFFFF" font-family="CMU Serif,CMU Serif_MSFontService,sans-serif" font-style="italic" font-weight="400" font-size="165" transform="matrix(1 0 0 1 2949.98 1146)">-</text><text fill="#FFFFFF" font-family="CMU Serif,CMU Serif_MSFontService,sans-serif" font-style="italic" font-weight="400" font-size="165" transform="matrix(1 0 0 1 3008.99 1146)">s</text><text fill="#FFFFFF" font-family="CMU Serif,CMU Serif_MSFontService,sans-serif" font-style="italic" font-weight="400" font-size="165" transform="matrix(1 0 0 1 2536.89 1146)">r</text><text fill="#FFFFFF" font-family="CMU Serif,CMU Serif_MSFontService,sans-serif" font-weight="700" font-size="55" transform="matrix(1 0 0 1 1982.01 1040)">Ciudadano</text><text fill="#FFFFFF" font-family="CMU Serif,CMU Serif_MSFontService,sans-serif" font-weight="700" font-size="55" transform="matrix(1 0 0 1 1970.55 1106)">cooperativo</text><text fill="#FFFFFF" font-family="CMU Serif,CMU Serif_MSFontService,sans-serif" font-weight="700" font-size="55" transform="matrix(1 0 0 1 2082.27 1172)">(C)</text><text fill="#FFFFFF" font-family="CMU Serif,CMU Serif_MSFontService,sans-serif" font-style="italic" font-weight="400" font-size="165" transform="matrix(1 0 0 1 2971.18 1460)">0</text><text fill="#FFFFFF" font-family="CMU Serif,CMU Serif_MSFontService,sans-serif" font-style="italic" font-weight="400" font-size="165" transform="matrix(1 0 0 1 2544.05 1460)">t</text><text fill="#FFFFFF" font-family="CMU Serif,CMU Serif_MSFontService,sans-serif" font-weight="700" font-size="55" transform="matrix(1 0 0 1 1982 1354)">Ciudadano</text><g><text fill="#FFFFFF" font-family="CMU Serif,CMU Serif_MSFontService,sans-serif" font-weight="700" font-size="55" transform="matrix(1 0 0 1 1926.72 1420)">no cooperativo</text></g><text fill="#FFFFFF" font-family="CMU Serif,CMU Serif_MSFontService,sans-serif" font-weight="700" font-size="55" transform="matrix(1 0 0 1 2080.84 1486)">(D)</text><text fill="#FFFFFF" font-family="CMU Serif,CMU Serif_MSFontService,sans-serif" font-weight="400" font-size="147" transform="matrix(1 0 0 1 934.817 581)">+2t</text><path d="M889.987 839.969 1094.99 1072.97" stroke="#7F7F7F" stroke-width="27.5" stroke-linecap="round" stroke-linejoin="round" stroke-miterlimit="10" fill="none" fill-rule="evenodd"/><path d="M665.987 848.969 349.987 1272.97" stroke="#7F7F7F" stroke-width="27.5" stroke-linecap="round" stroke-linejoin="round" stroke-miterlimit="10" fill="none" fill-rule="evenodd"/><path d="M946.987 1714.97 406.987 1485.97" stroke="#7F7F7F" stroke-width="27.5" stroke-linecap="round" stroke-linejoin="round" stroke-miterlimit="10" fill="none" fill-rule="evenodd"/><path d="M950.984 705.975C950.984 804.834 871.067 884.975 772.484 884.975 673.901 884.975 593.984 804.834 593.984 705.975 593.984 607.116 673.901 526.975 772.484 526.975 871.067 526.975 950.984 607.116 950.984 705.975Z" fill="#595959" fill-rule="evenodd"/><text fill="#FFFFFF" font-family="CMU Serif,CMU Serif_MSFontService,sans-serif" font-weight="400" font-size="202" transform="matrix(1 0 0 1 695.606 776)">D</text><path d="M1141.99 1608.97 1181.99 1383.97" stroke="#7F7F7F" stroke-width="27.5" stroke-linecap="round" stroke-linejoin="round" stroke-miterlimit="10" fill="none" fill-rule="evenodd"/><path d="M1290 1785.03C1290 1883.89 1210.08 1964.03 1111.5 1964.03 1012.92 1964.03 933 1883.89 933 1785.03 933 1686.17 1012.92 1606.03 1111.5 1606.03 1210.08 1606.03 1290 1686.17 1290 1785.03Z" fill="#595959" fill-rule="evenodd"/><text fill="#FFFFFF" font-family="CMU Serif,CMU Serif_MSFontService,sans-serif" font-weight="400" font-size="202" transform="matrix(1 0 0 1 1034.61 1855)">D</text><path d="M1635.99 828.969 1345.99 1088.97" stroke="#3B4285" stroke-width="12.4768" stroke-linecap="round" stroke-linejoin="round" stroke-miterlimit="10" fill="none" fill-rule="evenodd"/><path d="M1636.05 828.971 1346.05 1088.97" stroke="#7F7F7F" stroke-width="27.5" stroke-linecap="round" stroke-linejoin="round" stroke-miterlimit="10" fill="none" fill-rule="evenodd"/><path d="M1948.03 709.975C1948.03 808.834 1867.89 888.975 1769.03 888.975 1670.17 888.975 1590.03 808.834 1590.03 709.975 1590.03 611.116 1670.17 530.975 1769.03 530.975 1867.89 530.975 1948.03 611.116 1948.03 709.975Z" fill="#595959" fill-rule="evenodd"/><text fill="#FFFFFF" font-family="CMU Serif,CMU Serif_MSFontService,sans-serif" font-weight="400" font-size="202" transform="matrix(1 0 0 1 1692.23 780)">D</text><path d="M1390.98 1207.99C1390.98 1306.84 1311.07 1386.99 1212.48 1386.99 1113.9 1386.99 1033.98 1306.84 1033.98 1207.99 1033.98 1109.13 1113.9 1028.98 1212.48 1028.98 1311.07 1028.98 1390.98 1109.13 1390.98 1207.99Z" fill="#FFFFFF" fill-rule="evenodd"/><text font-family="CMU Serif,CMU Serif_MSFontService,sans-serif" font-weight="400" font-size="202" transform="matrix(1 0 0 1 1140.01 1278)">C</text><path d="M420.937 1415.99C420.937 1514.85 341.02 1595 242.437 1595 143.854 1595 63.9365 1514.85 63.9365 1415.99 63.9365 1317.14 143.854 1237 242.437 1237 341.02 1237 420.937 1317.14 420.937 1415.99Z" fill="#FFFFFF" fill-rule="evenodd"/><text font-family="CMU Serif,CMU Serif_MSFontService,sans-serif" font-weight="400" font-size="202" transform="matrix(1 0 0 1 170.253 1486)">C</text><text fill="#FFFFFF" font-family="CMU Serif,CMU Serif_MSFontService,sans-serif" font-weight="400" font-size="147" transform="matrix(1 0 0 1 1284.2 1683)">+2t</text><text fill="#FFFFFF" font-family="CMU Serif,CMU Serif_MSFontService,sans-serif" font-weight="400" font-size="147" transform="matrix(1 0 0 1 1493.56 1196)">-</text><text fill="#FFFFFF" font-family="CMU Serif,CMU Serif_MSFontService,sans-serif" font-weight="400" font-size="147" transform="matrix(1 0 0 1 1542.26 1196)">3s</text><text fill="#FFFFFF" font-family="CMU Serif,CMU Serif_MSFontService,sans-serif" font-weight="400" font-size="147" transform="matrix(1 0 0 1 484.556 1331)">-</text><text fill="#FFFFFF" font-family="CMU Serif,CMU Serif_MSFontService,sans-serif" font-weight="400" font-size="147" transform="matrix(1 0 0 1 533.254 1331)">2s</text><text fill="#FFFFFF" font-family="CMU Serif,CMU Serif_MSFontService,sans-serif" font-weight="400" font-size="147" transform="matrix(1 0 0 1 1915.73 569)">+t</text></g></svg>