<svg width="863" height="862" xmlns="http://www.w3.org/2000/svg" xmlns:xlink="http://www.w3.org/1999/xlink" xml:space="preserve" overflow="hidden"><g transform="translate(-491 -1238)"><path d="M161.625 71.8333 161.625 790.167 700.375 790.167 700.375 265.658 506.551 71.8333ZM511.965 102.641 669.568 260.243C669.603 260.278 669.602 260.336 669.567 260.37 669.55 260.386 669.528 260.396 669.505 260.396L511.813 260.396 511.813 102.704C511.813 102.654 511.854 102.615 511.903 102.615 511.927 102.616 511.949 102.625 511.965 102.641ZM179.583 772.208 179.583 89.7917 493.854 89.7917 493.854 278.354 682.417 278.354 682.417 772.208Z" fill="#FFFFFF" transform="matrix(1.00116 0 0 1 491 1238)"/><g><g><g><path d="M875.906 1693.06 891.753 1665.56C887.63 1663.52 883.726 1661.07 880.1 1658.24L862.912 1688.04C867.439 1689.16 871.805 1690.85 875.906 1693.06Z" fill="#FFFFFF"/><path d="M940.909 1751.5C940.443 1748.66 940.202 1745.79 940.187 1742.91 940.192 1741.18 940.283 1739.46 940.462 1737.75L905.537 1737.75C905.717 1739.46 905.808 1741.18 905.812 1742.91 905.798 1745.79 905.557 1748.66 905.091 1751.5Z" fill="#FFFFFF"/><path d="M967.687 1694.47C971.63 1692.05 975.855 1690.12 980.269 1688.73L962.634 1658.17C958.957 1661.03 954.994 1663.51 950.809 1665.56Z" fill="#FFFFFF"/><path d="M849.094 1699.94C825.363 1699.94 806.125 1719.18 806.125 1742.91 806.125 1766.64 825.363 1785.87 849.094 1785.87 872.825 1785.87 892.062 1766.64 892.062 1742.91 892.062 1719.18 872.825 1699.94 849.094 1699.94ZM849.094 1716.68C855.757 1716.66 861.175 1722.05 861.194 1728.71 861.213 1735.37 855.826 1740.79 849.162 1740.81 842.499 1740.83 837.081 1735.44 837.062 1728.78 837.062 1728.76 837.062 1728.73 837.062 1728.71 837.081 1722.07 842.457 1716.7 849.094 1716.68ZM873.156 1765.01 825.031 1765.01 825.031 1755.83C825.077 1753.95 825.959 1752.18 827.437 1751.02 831.005 1748.46 834.98 1746.52 839.194 1745.28 842.424 1744.34 845.764 1743.83 849.128 1743.77 852.495 1743.79 855.841 1744.3 859.062 1745.28 863.326 1746.39 867.324 1748.34 870.819 1751.02 872.297 1752.18 873.179 1753.95 873.225 1755.83Z" fill="#FFFFFF"/><path d="M974.562 1605.41C974.562 1575.98 950.708 1552.12 921.281 1552.12 891.855 1552.12 868 1575.98 868 1605.41 868 1634.83 891.855 1658.69 921.281 1658.69 950.708 1658.69 974.562 1634.83 974.562 1605.41ZM921.178 1572.75C929.436 1572.75 936.131 1579.44 936.131 1587.7 936.131 1595.96 929.436 1602.66 921.178 1602.66 912.92 1602.66 906.225 1595.96 906.225 1587.7 906.244 1579.45 912.927 1572.77 921.178 1572.75ZM951.016 1632.7 891.306 1632.7 891.306 1621.22C891.35 1618.88 892.449 1616.68 894.297 1615.24 898.701 1612.06 903.62 1609.66 908.837 1608.16 912.849 1606.99 917 1606.36 921.178 1606.3 925.349 1606.31 929.496 1606.93 933.484 1608.16 938.763 1609.53 943.717 1611.94 948.059 1615.24 949.887 1616.69 950.97 1618.88 951.016 1621.22Z" fill="#FFFFFF"/><path d="M996.906 1699.94C973.175 1699.94 953.937 1719.18 953.937 1742.91 953.937 1766.64 973.175 1785.87 996.906 1785.87 1020.64 1785.87 1039.88 1766.64 1039.88 1742.91 1039.88 1719.18 1020.64 1699.94 996.906 1699.94ZM996.906 1716.68C1003.57 1716.66 1008.99 1722.05 1009.01 1728.71 1009.03 1735.37 1003.64 1740.79 996.975 1740.81 990.311 1740.83 984.894 1735.44 984.875 1728.78 984.875 1728.76 984.875 1728.73 984.875 1728.71 984.894 1722.07 990.269 1716.7 996.906 1716.68ZM1020.97 1765.01 972.844 1765.01 972.844 1755.83C972.889 1753.95 973.771 1752.18 975.25 1751.02 978.817 1748.46 982.792 1746.52 987.006 1745.28 990.237 1744.34 993.577 1743.83 996.941 1743.77 1000.31 1743.79 1003.65 1744.3 1006.87 1745.28 1011.14 1746.39 1015.14 1748.34 1018.63 1751.02 1020.11 1752.18 1020.99 1753.95 1021.04 1755.83Z" fill="#FFFFFF"/></g></g></g></g></svg>