<svg width="862" height="863" xmlns="http://www.w3.org/2000/svg" xmlns:xlink="http://www.w3.org/1999/xlink" xml:space="preserve" overflow="hidden"><g transform="translate(-1219 -162)"><path d="M161.625 71.8333 161.625 790.167 700.375 790.167 700.375 265.658 506.551 71.8333ZM511.965 102.641 669.568 260.243C669.603 260.278 669.602 260.336 669.567 260.37 669.55 260.386 669.528 260.396 669.505 260.396L511.813 260.396 511.813 102.704C511.813 102.654 511.854 102.615 511.903 102.615 511.927 102.616 511.949 102.625 511.965 102.641ZM179.583 772.208 179.583 89.7917 493.854 89.7917 493.854 278.354 682.417 278.354 682.417 772.208Z" fill="#FFFFFF" transform="matrix(1 0 0 1.00116 1219 162)"/><g><g><g><path d="M1650 524.031C1665.12 524.031 1677.5 511.656 1677.5 496.531 1677.5 481.406 1665.12 469.031 1650 469.031 1634.88 469.031 1622.5 481.406 1622.5 496.531 1622.5 511.656 1634.88 524.031 1650 524.031" fill="#FFFFFF"/><path d="M1718.75 627.156 1732.5 585.906 1567.5 585.906 1581.25 627.156 1601.88 627.156 1615.62 761.219 1595 761.219 1595 774.969 1705 774.969 1705 761.219 1684.38 761.219 1698.12 627.156Z" fill="#FFFFFF"/><path d="M1705.69 556.344C1705 553.594 1703.62 550.844 1701.56 548.781 1693.31 541.906 1683.69 537.094 1672.69 533.656 1665.12 532.281 1657.56 530.906 1650 530.906 1642.44 530.906 1634.88 532.281 1627.31 534.344 1616.31 537.094 1606.69 542.594 1598.44 549.469 1596.38 551.531 1595 554.281 1594.31 557.031L1590.88 572.156 1709.47 572.156 1705.69 556.344Z" fill="#FFFFFF"/></g></g></g></g></svg>