<svg width="863" height="863" xmlns="http://www.w3.org/2000/svg" xmlns:xlink="http://www.w3.org/1999/xlink" xml:space="preserve" overflow="hidden"><g transform="translate(-50 -810)"><path d="M211.812 881.917 211.812 1601.08 751.187 1601.08 751.187 1075.97 557.138 881.917ZM562.559 912.76 720.344 1070.55C720.379 1070.58 720.378 1070.64 720.343 1070.67 720.326 1070.69 720.305 1070.7 720.281 1070.7L562.406 1070.7 562.406 912.823C562.407 912.773 562.448 912.734 562.497 912.734 562.52 912.735 562.543 912.744 562.559 912.76ZM229.792 1583.1 229.792 899.896 544.427 899.896 544.427 1088.68 733.208 1088.68 733.208 1583.1Z" fill="#FFFFFF"/><path d="M253.884 1143.61 344.829 1143.61 344.829 1221.56 253.884 1221.56Z" fill-rule="evenodd"/><path d="M344.829 1143.61 435.774 1143.61 435.774 1221.56 344.829 1221.56Z" fill-rule="evenodd"/><path d="M435.774 1143.61 526.719 1143.61 526.719 1221.56 435.774 1221.56Z" fill-rule="evenodd"/><path d="M526.719 1143.61 617.664 1143.61 617.664 1221.56 526.719 1221.56Z" fill-rule="evenodd"/><path d="M617.664 1143.61 708.609 1143.61 708.609 1221.56 617.664 1221.56Z" fill-rule="evenodd"/><path d="M253.884 1221.56 344.829 1221.56 344.829 1299.51 253.884 1299.51Z" fill-rule="evenodd"/><path d="M344.829 1221.56 435.774 1221.56 435.774 1299.51 344.829 1299.51Z" fill="#262626" fill-rule="evenodd"/><path d="M435.774 1221.56 526.719 1221.56 526.719 1299.51 435.774 1299.51Z" fill="#262626" fill-rule="evenodd"/><path d="M526.719 1221.56 617.664 1221.56 617.664 1299.51 526.719 1299.51Z" fill="#404040" fill-rule="evenodd"/><path d="M617.664 1221.56 708.609 1221.56 708.609 1299.51 617.664 1299.51Z" fill="#595959" fill-rule="evenodd"/><path d="M253.884 1299.51 344.829 1299.51 344.829 1377.47 253.884 1377.47Z" fill-rule="evenodd"/><path d="M344.829 1299.51 435.774 1299.51 435.774 1377.47 344.829 1377.47Z" fill="#262626" fill-rule="evenodd"/><path d="M435.774 1299.51 526.719 1299.51 526.719 1377.47 435.774 1377.47Z" fill="#262626" fill-rule="evenodd"/><path d="M526.719 1299.51 617.664 1299.51 617.664 1377.47 526.719 1377.47Z" fill="#404040" fill-rule="evenodd"/><path d="M617.664 1299.51 708.609 1299.51 708.609 1377.47 617.664 1377.47Z" fill="#595959" fill-rule="evenodd"/><path d="M253.884 1377.47 344.829 1377.47 344.829 1455.42 253.884 1455.42Z" fill-rule="evenodd"/><path d="M344.829 1377.47 435.774 1377.47 435.774 1455.42 344.829 1455.42Z" fill="#404040" fill-rule="evenodd"/><path d="M435.774 1377.47 526.719 1377.47 526.719 1455.42 435.774 1455.42Z" fill="#404040" fill-rule="evenodd"/><path d="M526.719 1377.47 617.664 1377.47 617.664 1455.42 526.719 1455.42Z" fill="#404040" fill-rule="evenodd"/><path d="M617.664 1377.47 708.609 1377.47 708.609 1455.42 617.664 1455.42Z" fill="#595959" fill-rule="evenodd"/><path d="M253.884 1455.42 344.829 1455.42 344.829 1533.37 253.884 1533.37Z" fill-rule="evenodd"/><path d="M344.829 1455.42 435.774 1455.42 435.774 1533.37 344.829 1533.37Z" fill="#595959" fill-rule="evenodd"/><path d="M435.774 1455.42 526.719 1455.42 526.719 1533.37 435.774 1533.37Z" fill="#595959" fill-rule="evenodd"/><path d="M526.719 1455.42 617.664 1455.42 617.664 1533.37 526.719 1533.37Z" fill="#595959" fill-rule="evenodd"/><path d="M617.664 1455.42 708.609 1455.42 708.609 1533.37 617.664 1533.37Z" fill="#595959" fill-rule="evenodd"/><text fill="#FFFFFF" font-family="CMU Serif,CMU Serif_MSFontService,sans-serif" font-weight="700" font-size="14" transform="matrix(1 0 0 1 642.511 1162)">Poder</text><text fill="#FFFFFF" font-family="CMU Serif,CMU Serif_MSFontService,sans-serif" font-weight="700" font-size="14" transform="matrix(1 0 0 1 654.817 1179)">no </text><g><text fill="#FFFFFF" font-family="CMU Serif,CMU Serif_MSFontService,sans-serif" font-weight="700" font-size="14" transform="matrix(1 0 0 1 623.032 1195)">cooperativo</text></g><text fill="#FFFFFF" font-family="CMU Serif,CMU Serif_MSFontService,sans-serif" font-weight="700" font-size="14" transform="matrix(1 0 0 1 650.532 1212)">(K)</text><text fill="#FFFFFF" font-family="CMU Serif,CMU Serif_MSFontService,sans-serif" font-weight="700" font-size="14" transform="matrix(1 0 0 1 551.566 1170)">Poder </text><g><text fill="#FFFFFF" font-family="CMU Serif,CMU Serif_MSFontService,sans-serif" font-weight="700" font-size="14" transform="matrix(1 0 0 1 532.087 1187)">cooperativo</text></g><text fill="#FFFFFF" font-family="CMU Serif,CMU Serif_MSFontService,sans-serif" font-weight="700" font-size="14" transform="matrix(1 0 0 1 559.587 1203)">(H)</text><g><text fill="#FFFFFF" font-family="CMU Serif,CMU Serif_MSFontService,sans-serif" font-weight="700" font-size="14" transform="matrix(1 0 0 1 444.58 1162)">Ciudadano </text></g><text fill="#FFFFFF" font-family="CMU Serif,CMU Serif_MSFontService,sans-serif" font-weight="700" font-size="14" transform="matrix(1 0 0 1 472.927 1179)">no </text><g><text fill="#FFFFFF" font-family="CMU Serif,CMU Serif_MSFontService,sans-serif" font-weight="700" font-size="14" transform="matrix(1 0 0 1 441.142 1195)">cooperativo</text></g><text fill="#FFFFFF" font-family="CMU Serif,CMU Serif_MSFontService,sans-serif" font-weight="700" font-size="14" transform="matrix(1 0 0 1 468.917 1212)">(D)</text><text fill="#FFFFFF" font-family="CMU Serif,CMU Serif_MSFontService,sans-serif" font-weight="700" font-size="14" transform="matrix(1 0 0 1 353.635 1170)">Ciudadano</text><g><text fill="#FFFFFF" font-family="CMU Serif,CMU Serif_MSFontService,sans-serif" font-weight="700" font-size="14" transform="matrix(1 0 0 1 350.197 1187)">cooperativo</text></g><text fill="#FFFFFF" font-family="CMU Serif,CMU Serif_MSFontService,sans-serif" font-weight="700" font-size="14" transform="matrix(1 0 0 1 378.27 1203)">(C)</text><text fill="#FFFFFF" font-family="CMU Serif,CMU Serif_MSFontService,sans-serif" font-style="italic" font-weight="400" font-size="28" transform="matrix(1 0 0 1 652.537 1270)">-</text><text fill="#FFFFFF" font-family="CMU Serif,CMU Serif_MSFontService,sans-serif" font-style="italic" font-weight="400" font-size="28" transform="matrix(1 0 0 1 662.277 1270)">s</text><text fill="#FFFFFF" font-family="CMU Serif,CMU Serif_MSFontService,sans-serif" font-style="italic" font-weight="400" font-size="28" transform="matrix(1 0 0 1 566.462 1270)">r</text><text fill="#FFFFFF" font-family="CMU Serif,CMU Serif_MSFontService,sans-serif" font-style="italic" font-weight="400" font-size="28" transform="matrix(1 0 0 1 470.647 1270)">-</text><text fill="#FFFFFF" font-family="CMU Serif,CMU Serif_MSFontService,sans-serif" font-style="italic" font-weight="400" font-size="28" transform="matrix(1 0 0 1 480.387 1270)">s</text><text fill="#FFFFFF" font-family="CMU Serif,CMU Serif_MSFontService,sans-serif" font-style="italic" font-weight="400" font-size="28" transform="matrix(1 0 0 1 384.572 1270)">r</text><text fill="#FFFFFF" font-family="CMU Serif,CMU Serif_MSFontService,sans-serif" font-weight="700" font-size="14" transform="matrix(1 0 0 1 262.69 1248)">Ciudadano</text><g><text fill="#FFFFFF" font-family="CMU Serif,CMU Serif_MSFontService,sans-serif" font-weight="700" font-size="14" transform="matrix(1 0 0 1 259.252 1265)">cooperativo</text></g><text fill="#FFFFFF" font-family="CMU Serif,CMU Serif_MSFontService,sans-serif" font-weight="700" font-size="14" transform="matrix(1 0 0 1 287.325 1281)">(C)</text><text fill="#FFFFFF" font-family="CMU Serif,CMU Serif_MSFontService,sans-serif" font-style="italic" font-weight="400" font-size="28" transform="matrix(1 0 0 1 651.105 1348)">-</text><text fill="#FFFFFF" font-family="CMU Serif,CMU Serif_MSFontService,sans-serif" font-style="italic" font-weight="400" font-size="28" transform="matrix(1 0 0 1 660.844 1348)">p</text><text fill="#FFFFFF" font-family="CMU Serif,CMU Serif_MSFontService,sans-serif" font-style="italic" font-weight="400" font-size="28" transform="matrix(1 0 0 1 555.577 1348)">t</text><text fill="#FFFFFF" font-family="CMU Serif,CMU Serif_MSFontService,sans-serif" font-style="italic" font-weight="400" font-size="28" transform="matrix(1 0 0 1 564.743 1348)">-</text><text fill="#FFFFFF" font-family="CMU Serif,CMU Serif_MSFontService,sans-serif" font-style="italic" font-weight="400" font-size="28" transform="matrix(1 0 0 1 574.483 1348)">p</text><text fill="#FFFFFF" font-family="CMU Serif,CMU Serif_MSFontService,sans-serif" font-style="italic" font-weight="400" font-size="28" transform="matrix(1 0 0 1 474.371 1348)">0</text><text fill="#FFFFFF" font-family="CMU Serif,CMU Serif_MSFontService,sans-serif" font-style="italic" font-weight="400" font-size="28" transform="matrix(1 0 0 1 385.718 1348)">t</text><text fill="#FFFFFF" font-family="CMU Serif,CMU Serif_MSFontService,sans-serif" font-weight="700" font-size="14" transform="matrix(1 0 0 1 262.69 1317)">Ciudadano</text><text fill="#FFFFFF" font-family="CMU Serif,CMU Serif_MSFontService,sans-serif" font-weight="700" font-size="14" transform="matrix(1 0 0 1 291.038 1334)">no </text><g><text fill="#FFFFFF" font-family="CMU Serif,CMU Serif_MSFontService,sans-serif" font-weight="700" font-size="14" transform="matrix(1 0 0 1 259.252 1350)">cooperativo</text></g><text fill="#FFFFFF" font-family="CMU Serif,CMU Serif_MSFontService,sans-serif" font-weight="700" font-size="14" transform="matrix(1 0 0 1 287.027 1367)">(D)</text><text fill="#FFFFFF" font-family="CMU Serif,CMU Serif_MSFontService,sans-serif" font-style="italic" font-weight="400" font-size="28" transform="matrix(1 0 0 1 640.506 1426)">-</text><text fill="#FFFFFF" font-family="CMU Serif,CMU Serif_MSFontService,sans-serif" font-style="italic" font-weight="400" font-size="28" transform="matrix(1 0 0 1 650.245 1426)">s</text><text fill="#FFFFFF" font-family="CMU Serif,CMU Serif_MSFontService,sans-serif" font-style="italic" font-weight="400" font-size="28" transform="matrix(1 0 0 1 661.704 1426)">-</text><text fill="#FFFFFF" font-family="CMU Serif,CMU Serif_MSFontService,sans-serif" font-style="italic" font-weight="400" font-size="28" transform="matrix(1 0 0 1 671.443 1426)">d</text><text fill="#FFFFFF" font-family="CMU Serif,CMU Serif_MSFontService,sans-serif" font-style="italic" font-weight="400" font-size="28" transform="matrix(1 0 0 1 566.462 1426)">r</text><text fill="#FFFFFF" font-family="CMU Serif,CMU Serif_MSFontService,sans-serif" font-style="italic" font-weight="400" font-size="28" transform="matrix(1 0 0 1 459.475 1426)">-</text><text fill="#FFFFFF" font-family="CMU Serif,CMU Serif_MSFontService,sans-serif" font-style="italic" font-weight="400" font-size="28" transform="matrix(1 0 0 1 469.215 1426)">s</text><text fill="#FFFFFF" font-family="CMU Serif,CMU Serif_MSFontService,sans-serif" font-style="italic" font-weight="400" font-size="28" transform="matrix(1 0 0 1 480.673 1426)">-</text><text fill="#FFFFFF" font-family="CMU Serif,CMU Serif_MSFontService,sans-serif" font-style="italic" font-weight="400" font-size="28" transform="matrix(1 0 0 1 490.413 1426)">c</text><text fill="#FFFFFF" font-family="CMU Serif,CMU Serif_MSFontService,sans-serif" font-style="italic" font-weight="400" font-size="28" transform="matrix(1 0 0 1 384.572 1426)">r</text><text fill="#FFFFFF" font-family="CMU Serif,CMU Serif_MSFontService,sans-serif" font-weight="700" font-size="14" transform="matrix(1 0 0 1 278.731 1404)">Poder</text><g><text fill="#FFFFFF" font-family="CMU Serif,CMU Serif_MSFontService,sans-serif" font-weight="700" font-size="14" transform="matrix(1 0 0 1 259.252 1421)">cooperativo</text></g><text fill="#FFFFFF" font-family="CMU Serif,CMU Serif_MSFontService,sans-serif" font-weight="700" font-size="14" transform="matrix(1 0 0 1 286.752 1437)">(H)</text><text fill="#FFFFFF" font-family="CMU Serif,CMU Serif_MSFontService,sans-serif" font-style="italic" font-weight="400" font-size="28" transform="matrix(1 0 0 1 639.933 1504)">-</text><text fill="#FFFFFF" font-family="CMU Serif,CMU Serif_MSFontService,sans-serif" font-style="italic" font-weight="400" font-size="28" transform="matrix(1 0 0 1 649.672 1504)">q</text><text fill="#FFFFFF" font-family="CMU Serif,CMU Serif_MSFontService,sans-serif" font-style="italic" font-weight="400" font-size="28" transform="matrix(1 0 0 1 662.277 1504)">-</text><text fill="#FFFFFF" font-family="CMU Serif,CMU Serif_MSFontService,sans-serif" font-style="italic" font-weight="400" font-size="28" transform="matrix(1 0 0 1 672.016 1504)">d</text><text fill="#FFFFFF" font-family="CMU Serif,CMU Serif_MSFontService,sans-serif" font-style="italic" font-weight="400" font-size="28" transform="matrix(1 0 0 1 556.436 1504)">t</text><text fill="#FFFFFF" font-family="CMU Serif,CMU Serif_MSFontService,sans-serif" font-style="italic" font-weight="400" font-size="28" transform="matrix(1 0 0 1 565.603 1504)">-</text><text fill="#FFFFFF" font-family="CMU Serif,CMU Serif_MSFontService,sans-serif" font-style="italic" font-weight="400" font-size="28" transform="matrix(1 0 0 1 575.342 1504)">q</text><text fill="#FFFFFF" font-family="CMU Serif,CMU Serif_MSFontService,sans-serif" font-style="italic" font-weight="400" font-size="28" transform="matrix(1 0 0 1 470.074 1504)">-</text><text fill="#FFFFFF" font-family="CMU Serif,CMU Serif_MSFontService,sans-serif" font-style="italic" font-weight="400" font-size="28" transform="matrix(1 0 0 1 479.814 1504)">c</text><text fill="#FFFFFF" font-family="CMU Serif,CMU Serif_MSFontService,sans-serif" font-style="italic" font-weight="400" font-size="28" transform="matrix(1 0 0 1 385.718 1504)">t</text><text fill="#FFFFFF" font-family="CMU Serif,CMU Serif_MSFontService,sans-serif" font-weight="700" font-size="14" transform="matrix(1 0 0 1 278.731 1473)">Poder</text><text fill="#FFFFFF" font-family="CMU Serif,CMU Serif_MSFontService,sans-serif" font-weight="700" font-size="14" transform="matrix(1 0 0 1 291.038 1490)">no </text><g><text fill="#FFFFFF" font-family="CMU Serif,CMU Serif_MSFontService,sans-serif" font-weight="700" font-size="14" transform="matrix(1 0 0 1 259.252 1506)">cooperativo</text></g><text fill="#FFFFFF" font-family="CMU Serif,CMU Serif_MSFontService,sans-serif" font-weight="700" font-size="14" transform="matrix(1 0 0 1 286.752 1523)">(K)</text></g></svg>