<svg width="863" height="862" viewBox="0 0 863 862" xmlns="http://www.w3.org/2000/svg" xmlns:xlink="http://www.w3.org/1999/xlink" xml:space="preserve" overflow="hidden"><defs><style>@import url('https://fonts.cdnfonts.com/css/cmu-serif'); text { font-family: 'CMU Serif', serif !important; }</style></defs><g transform="translate(-1946 -1238)"><path d="M161.625 71.8333 161.625 790.167 700.375 790.167 700.375 265.658 506.551 71.8333ZM511.965 102.641 669.568 260.243C669.603 260.278 669.602 260.336 669.567 260.37 669.55 260.386 669.528 260.396 669.505 260.396L511.813 260.396 511.813 102.704C511.813 102.654 511.854 102.615 511.903 102.615 511.927 102.616 511.949 102.625 511.965 102.641ZM179.583 772.208 179.583 89.7917 493.854 89.7917 493.854 278.354 682.417 278.354 682.417 772.208Z" fill="#FFFFFF" transform="matrix(1.00116 0 0 1 1946 1238)"/><g><g><g><path d="M2496.97 1676.41C2495.94 1676.41 2494.91 1676.41 2493.88 1676.41L2484.94 1652.34C2505.56 1640.66 2512.78 1614.53 2501.44 1593.91 2489.75 1573.28 2463.62 1566.06 2443 1577.41 2433.03 1582.91 2425.47 1592.53 2422.72 1603.53L2390.75 1600.09C2388.34 1584.97 2374.25 1574.31 2359.12 1576.72 2345.38 1578.78 2335.41 1590.47 2335.41 1604.22 2335.41 1609.03 2336.78 1613.84 2339.19 1618.31L2300.69 1656.13C2293.47 1650.63 2284.53 1647.53 2275.25 1647.53 2251.53 1647.53 2232.28 1666.78 2232.28 1690.5 2232.28 1714.22 2251.53 1733.47 2275.25 1733.47L2283.84 1785.03C2269.75 1791.22 2263.22 1807.72 2269.41 1821.81 2275.59 1835.91 2292.09 1842.44 2306.19 1836.25 2319.25 1830.75 2325.78 1816.31 2322 1802.56L2352.25 1786.75C2371.84 1808.41 2405.53 1810.13 2427.53 1790.53 2438.53 1780.56 2445.06 1766.13 2445.06 1751.34 2445.06 1747.56 2444.72 1743.44 2443.69 1739.66L2477.03 1722.47C2487.34 1734.16 2504.88 1735.19 2516.56 1724.88 2528.25 1714.56 2529.28 1697.03 2518.97 1685.34 2512.44 1679.84 2504.88 1676.41 2496.97 1676.41L2496.97 1676.41ZM2496.97 1686.72C2501.44 1686.72 2504.88 1690.16 2504.88 1694.63 2504.88 1699.09 2501.44 1702.53 2496.97 1702.53 2492.5 1702.53 2489.06 1699.09 2489.06 1694.63 2489.06 1694.63 2489.06 1694.63 2489.06 1694.63 2489.06 1690.16 2492.5 1686.72 2496.97 1686.72L2496.97 1686.72ZM2463.97 1588.75C2470.5 1588.75 2476 1594.25 2476 1600.78 2476 1607.31 2470.5 1612.81 2463.97 1612.81 2457.44 1612.81 2451.94 1607.31 2451.94 1600.78 2451.94 1600.78 2451.94 1600.78 2451.94 1600.78 2451.94 1594.25 2457.09 1588.75 2463.97 1588.75ZM2439.56 1627.94C2439.56 1626.22 2440.59 1624.16 2441.97 1623.13 2445.41 1620.72 2449.53 1618.66 2453.66 1617.63 2456.75 1616.59 2460.19 1616.25 2463.62 1616.25 2467.06 1616.25 2470.5 1616.94 2473.59 1617.63 2477.72 1618.66 2481.84 1620.72 2485.28 1623.47 2486.66 1624.5 2487.69 1626.56 2487.69 1628.28L2487.69 1637.56 2439.56 1637.56 2439.56 1627.94ZM2362.91 1586.69C2367.38 1586.69 2370.81 1590.13 2370.81 1594.59 2370.81 1599.06 2367.38 1602.5 2362.91 1602.5 2358.44 1602.5 2355 1599.06 2355 1594.59 2355 1594.59 2355 1594.59 2355 1594.59 2355 1590.47 2358.44 1586.69 2362.91 1586.69L2362.91 1586.69ZM2346.75 1612.47C2346.75 1611.09 2347.44 1610.06 2348.47 1609.38 2350.88 1607.66 2353.62 1606.63 2356.38 1605.94 2358.44 1605.25 2360.84 1604.91 2362.91 1604.91 2364.97 1604.91 2367.38 1605.25 2369.44 1605.94 2372.19 1606.63 2374.59 1608 2377 1609.72 2378.03 1610.41 2378.72 1611.78 2378.72 1612.81L2378.72 1619 2347.09 1619 2347.09 1612.47ZM2274.56 1664.38C2281.09 1664.38 2286.59 1669.88 2286.59 1676.41 2286.59 1682.94 2281.09 1688.44 2274.56 1688.44 2268.03 1688.44 2262.53 1682.94 2262.53 1676.41 2262.53 1676.41 2262.53 1676.41 2262.53 1676.41 2262.88 1669.88 2268.03 1664.38 2274.56 1664.38L2274.56 1664.38ZM2250.5 1712.84 2250.5 1703.56C2250.5 1701.84 2251.53 1699.78 2252.91 1698.75 2256.34 1696.34 2260.47 1694.28 2264.59 1693.25 2267.69 1692.22 2271.12 1691.88 2274.56 1691.88 2278 1691.88 2281.44 1692.56 2284.53 1693.25 2288.66 1694.28 2292.78 1696.34 2296.22 1699.09 2297.59 1700.13 2298.62 1702.19 2298.62 1703.91L2298.62 1713.19 2250.5 1712.84ZM2309.97 1824.91 2278 1824.91 2278 1818.72C2278 1817.34 2278.69 1816.31 2279.72 1815.63 2282.12 1813.91 2284.88 1812.53 2287.62 1811.84 2289.69 1811.16 2292.09 1810.81 2294.16 1810.81 2296.22 1810.81 2298.62 1811.16 2300.69 1811.84 2303.44 1812.53 2305.84 1813.91 2308.25 1815.63 2309.28 1816.31 2309.97 1817.69 2309.97 1818.72L2309.97 1824.91ZM2285.91 1800.84C2285.91 1796.38 2289.34 1792.94 2293.81 1792.94 2298.28 1792.94 2301.72 1796.38 2301.72 1800.84 2301.72 1805.31 2298.28 1808.75 2293.81 1808.75 2289.69 1809.09 2286.25 1805.31 2285.91 1800.84L2285.91 1800.84ZM2313.41 1791.22C2308.94 1786.75 2302.75 1784 2296.56 1783.31L2287.97 1731.75C2296.22 1729 2303.44 1723.84 2308.59 1716.97L2340.56 1733.81C2335.41 1747.56 2336.44 1763.03 2343.31 1776.09L2313.41 1791.22ZM2347.09 1721.09 2315.47 1704.59C2316.84 1700.13 2317.53 1695.66 2317.53 1690.84 2317.53 1681.91 2314.78 1673.31 2309.62 1666.09L2348.12 1628.63C2361.19 1636.53 2378.38 1632.75 2386.28 1619.69 2387.31 1617.97 2388 1616.25 2388.69 1614.53L2420.66 1617.97C2421.34 1630.34 2427.53 1642.03 2437.5 1649.59L2409.31 1702.19C2386.97 1693.25 2361.19 1701.16 2347.09 1721.09L2347.09 1721.09ZM2405.53 1733.81C2405.53 1742.06 2398.66 1748.59 2390.41 1748.59 2382.16 1748.59 2375.62 1742.06 2375.62 1733.81 2375.62 1725.56 2382.16 1719.03 2390.41 1719.03 2390.41 1719.03 2390.41 1719.03 2390.75 1719.03 2399 1719.03 2405.53 1725.56 2405.53 1733.81L2405.53 1733.81ZM2420.31 1778.84 2360.84 1778.84 2360.84 1767.5C2360.84 1765.09 2361.88 1763.03 2363.94 1761.66 2368.41 1758.56 2373.22 1756.16 2378.38 1754.44 2382.5 1753.41 2386.62 1752.72 2390.75 1752.72 2394.88 1752.72 2399 1753.41 2403.12 1754.44 2408.28 1755.81 2413.44 1758.22 2417.56 1761.66 2419.28 1763.03 2420.66 1765.44 2420.66 1767.5L2420.31 1778.84ZM2469.12 1704.59C2469.12 1706.66 2469.47 1708.72 2470.16 1710.78L2438.53 1727.28C2434.75 1719.72 2428.91 1713.53 2422.03 1708.72L2450.22 1656.13C2454.69 1657.84 2459.5 1658.53 2464.31 1658.53 2467.06 1658.53 2469.81 1658.19 2472.56 1657.84L2481.5 1681.91C2473.25 1686.72 2468.78 1695.31 2469.12 1704.59ZM2512.78 1718.34 2480.81 1718.34 2480.81 1712.16C2480.81 1710.78 2481.5 1709.75 2482.53 1709.06 2484.94 1707.34 2487.69 1705.97 2490.44 1705.28 2492.5 1704.59 2494.91 1704.25 2496.97 1704.25 2499.03 1704.25 2501.44 1704.59 2503.5 1705.28 2506.25 1705.97 2508.66 1707.34 2511.06 1709.06 2512.09 1709.75 2512.78 1711.13 2512.78 1712.16L2512.78 1718.34Z" fill="#FFFFFF"/></g></g></g></g></svg>