<svg width="500" height="500" viewBox="0 0 500 500" xmlns="http://www.w3.org/2000/svg" xmlns:xlink="http://www.w3.org/1999/xlink" xml:space="preserve" overflow="hidden"><g transform="translate(-230 -110)"><path d="M680.521 288.646C677.917 280.833 671.667 274.062 663.854 270.938 655 267.292 645.625 265.729 636.25 266.25 605.521 266.25 564.896 278.229 538.854 287.083 538.854 286.562 538.333 286.042 538.333 285 545.104 275.625 549.792 265.208 553.438 254.792 560.729 235.521 565.417 224.583 581.042 224.583 584.167 224.583 586.25 222.5 586.25 219.375 586.25 216.25 584.167 214.167 581.042 214.167 557.083 214.167 550.312 232.917 543.542 251.146 540.938 259.479 537.292 267.812 532.604 275.104 529.479 270.938 525.833 267.292 521.667 263.646 527.396 258.958 531.042 252.188 531.562 244.896 531.562 233.438 522.188 224.062 508.125 218.333L520.104 194.375C521.146 191.771 520.104 188.646 518.021 187.604 515.417 186.562 512.292 187.604 511.25 189.688L498.75 215.208C487.812 213.125 476.354 213.125 465.417 215.208L452.917 189.688C451.875 187.083 448.229 186.042 446.146 187.604 443.542 188.646 442.5 192.292 444.062 194.375L456.042 218.333C441.979 224.062 432.604 233.438 432.604 244.896 433.125 252.188 436.25 258.958 442.5 263.646 438.333 266.771 434.688 270.417 431.562 274.583 426.875 266.771 423.229 258.958 420.625 250.625 411.771 232.917 405 214.167 381.042 214.167 377.917 214.167 375.833 216.25 375.833 219.375 375.833 222.5 377.917 224.583 381.042 224.583 396.667 224.583 401.354 235.521 408.646 254.792 411.771 265.729 416.979 275.625 423.75 285 423.229 285.521 423.229 286.562 422.708 287.083 396.667 278.229 356.042 266.25 325.312 266.25 315.938 265.729 306.562 267.292 297.708 270.938 289.896 274.062 284.167 280.833 281.042 288.646 272.708 314.688 285.729 350.104 311.771 371.979 327.917 385.521 348.229 393.333 369.062 393.333L369.583 393.333C384.688 393.333 399.792 390.208 413.333 383.958 412.812 387.604 412.812 391.771 412.812 395.938 412.812 399.583 412.812 402.708 413.333 406.354L389.896 406.354 351.875 444.375C349.792 446.458 349.792 449.583 351.354 451.667 353.438 453.75 356.562 453.75 358.646 452.188 358.646 452.188 358.646 452.188 359.167 451.667L394.062 416.771 414.375 416.771C415.938 427.188 418.542 437.083 421.667 446.979 416.979 470.417 402.396 489.688 377.917 505.833 375.312 507.396 374.792 510.521 376.354 513.125 377.396 514.688 378.958 515.208 380.521 515.208 381.562 515.208 382.604 514.688 383.646 514.167 403.438 502.188 418.542 483.958 427.396 462.604 441.979 497.5 464.375 526.146 479.479 536.042 494.583 526.146 516.979 497.5 531.562 462.604 540.417 483.958 555.521 502.188 575.312 514.167 577.917 515.729 581.042 515.208 582.604 512.604 584.167 510 583.646 506.875 581.042 505.313 581.042 505.313 581.042 505.313 581.042 505.313 556.562 489.167 542.5 469.375 537.292 446.458 540.417 436.562 543.021 426.146 544.583 416.25L564.896 416.25 599.792 451.146C601.875 453.229 605 452.708 607.083 450.625 609.167 448.542 609.167 445.417 607.083 443.333L571.667 406.875 548.229 406.875C548.75 403.229 548.75 400.104 548.75 396.458 548.75 392.292 548.75 388.125 548.229 384.479 562.292 390.208 576.875 393.333 591.979 393.854L592.5 393.854C613.333 393.854 634.167 386.562 649.792 372.5 675.833 350.625 688.854 314.688 680.521 288.646ZM481.042 224.583C505 224.583 520.625 235.521 520.625 245.417 520.625 255.312 504.479 266.25 481.042 266.25 457.604 266.25 441.458 255.312 441.458 245.417 441.458 235.521 457.083 224.583 481.042 224.583ZM449.792 269.896C469.583 278.75 491.979 278.75 511.771 269.896 524.271 277.188 531.562 290.729 532.083 305.312 532.083 329.792 509.167 349.583 481.042 349.583 452.917 349.583 430 329.792 430 305.312 430 290.729 437.812 277.708 449.792 269.896ZM525.312 343.333C532.604 355.833 537.292 369.375 537.812 383.958 524.792 391.771 503.958 396.458 481.042 396.458 458.646 396.458 437.292 391.771 424.271 383.958 424.792 369.375 429.479 355.833 436.771 343.333 462.292 365.729 499.792 365.729 525.312 343.333ZM415.417 371.979 413.854 372.5C399.792 378.75 385.208 382.396 369.583 382.917L369.062 382.917C350.312 382.917 332.604 376.146 318.542 364.167 296.146 345.417 284.167 313.646 291.458 292.292 293.021 287.083 297.188 282.917 302.396 280.833L302.396 280.833 302.396 280.833C309.688 277.708 317.5 276.667 325.312 277.188 355.521 277.188 395.625 289.167 420.104 297.5 419.583 300.104 419.583 302.708 419.583 305.312 419.583 316.25 423.229 327.188 430 335.521 422.188 346.458 417.5 358.958 415.417 371.979ZM481.042 524.062C470.104 513.646 460.729 501.667 452.917 488.125 471.667 490.729 490.417 490.729 509.167 488.125 501.875 501.146 491.979 513.646 481.042 524.062ZM515.938 476.146C493.021 480.833 469.583 480.833 446.667 476.667 440.938 465.208 435.729 453.75 432.083 441.771 448.229 446.458 465.417 449.062 482.604 449.062 498.75 449.062 515.417 446.979 531.042 442.292 526.354 453.75 521.667 465.208 515.938 476.146ZM533.646 429.792C516.979 435.521 499.271 438.125 481.562 438.125 463.333 438.646 445.104 435.521 427.917 429.271 425.312 418.333 423.75 407.396 423.75 396.458 423.75 395.938 423.75 395.938 423.75 395.417 441.979 403.229 461.25 407.396 481.042 406.875 500.833 407.396 520.104 403.75 538.333 395.417 538.333 395.938 538.333 395.938 538.333 396.458 537.812 407.917 536.771 418.854 533.646 429.792ZM643.021 364.167C628.958 376.146 610.729 382.917 592.5 382.917L591.979 382.917C576.875 382.917 561.771 379.271 547.708 372.5L546.146 371.979C544.062 358.958 539.375 346.458 532.083 335.521 538.854 326.667 542.5 316.25 542.5 305.312 542.5 302.708 541.979 300.104 541.979 297.5 566.458 289.167 606.562 277.188 636.771 277.188 644.583 276.667 652.396 278.229 659.688 280.833L659.688 280.833 659.688 280.833C664.896 282.917 668.542 287.083 670.104 292.292 677.917 313.646 665.938 345.417 643.021 364.167Z" fill="#FFFFFF"/></g></svg>