<?xml version="1.0" encoding="UTF-8" standalone="no"?>
<!-- Created with Inkscape (http://www.inkscape.org/) -->

<svg
   width="71.4375mm"
   height="52.38752mm"
   viewBox="0 0 71.4375 52.38752"
   version="1.1"
   id="svg1"
   xml:space="preserve"
   xmlns:inkscape="http://www.inkscape.org/namespaces/inkscape"
   xmlns:sodipodi="http://sodipodi.sourceforge.net/DTD/sodipodi-0.dtd"
   xmlns="http://www.w3.org/2000/svg"
   xmlns:svg="http://www.w3.org/2000/svg"><sodipodi:namedview
     id="namedview1"
     pagecolor="#505050"
     bordercolor="#eeeeee"
     borderopacity="1"
     inkscape:showpageshadow="0"
     inkscape:pageopacity="0"
     inkscape:pagecheckerboard="0"
     inkscape:deskcolor="#505050"
     inkscape:document-units="mm" /><defs
     id="defs1" /><g
     inkscape:label="Capa 1"
     inkscape:groupmode="layer"
     id="layer1"
     transform="translate(-71.610697,-116.86312)"><path
       d="M 143.0482,143.05688 V 116.86312 H 107.32945 71.610698 v 26.19376 26.19376 H 107.32945 143.0482 Z M 73.991948,158.535 v -8.34237 l 7.739063,0.0702 7.739068,0.0701 v 8.20208 8.20209 l -7.739068,0.0702 -7.739063,0.0701 z m 17.909381,8.1639 c -0.10027,-0.10026 -0.1823,-4.38918 -0.1823,-9.53091 v -9.34861 H 82.85549 73.991948 v -4.7625 -4.7625 h 8.863542 8.863539 v -9.525 -9.525 h 4.89479 4.894801 v 9.525 9.525 h 19.57916 19.57917 v 4.7625 4.7625 H 121.09112 101.5153 l -0.0695,9.45885 -0.0695,9.45886 -4.646351,0.072 c -2.55549,0.0396 -4.72838,-0.01 -4.82864,-0.11024 z m 11.900341,-0.006 c -0.097,-0.097 -0.17639,-3.8475 -0.17639,-8.33439 v -8.15798 h 18.52083 18.52084 v 8.33437 8.33439 H 122.3225 c -10.08944,0 -18.42382,-0.0794 -18.52083,-0.17639 z M 73.991948,127.58275 v -8.33837 h 7.808978 7.808983 l -0.0699,8.26822 -0.0699,8.26823 -7.739067,0.0702 -7.739063,0.0701 z m 29.809722,8.15399 c -0.097,-0.097 -0.17639,-3.84749 -0.17639,-8.33438 v -8.15798 h 18.52083 18.52084 v 8.33437 8.33438 H 122.3225 c -10.08944,0 -18.42382,-0.0794 -18.52083,-0.17639 z"
       style="fill:#ffffff"
       id="path1-4" /></g></svg>
