<?xml version="1.0" encoding="UTF-8" standalone="no"?>
<!-- Created with Inkscape (http://www.inkscape.org/) -->

<svg
   width="72.09552mm"
   height="52.075165mm"
   viewBox="0 0 72.09552 52.075165"
   version="1.1"
   id="svg1"
   xml:space="preserve"
   xmlns:inkscape="http://www.inkscape.org/namespaces/inkscape"
   xmlns:sodipodi="http://sodipodi.sourceforge.net/DTD/sodipodi-0.dtd"
   xmlns="http://www.w3.org/2000/svg"
   xmlns:svg="http://www.w3.org/2000/svg"><sodipodi:namedview
     id="namedview1"
     pagecolor="#505050"
     bordercolor="#eeeeee"
     borderopacity="1"
     inkscape:showpageshadow="0"
     inkscape:pageopacity="0"
     inkscape:pagecheckerboard="0"
     inkscape:deskcolor="#505050"
     inkscape:document-units="mm" /><defs
     id="defs1" /><g
     inkscape:label="Capa 1"
     inkscape:groupmode="layer"
     id="layer1"
     transform="translate(-71.048212,-199.8782)"><path
       style="fill:#ffffff"
       d="m 142.98314,251.53482 c 0.0883,-0.23018 0.1606,-11.8242 0.1606,-25.76448 0,-21.24605 -0.0592,-25.39506 -0.36568,-25.64945 -0.43637,-0.36216 -71.150176,-0.3005 -71.512846,0.0624 -0.26857,0.26871 -0.29832,50.65435 -0.0303,51.30706 0.17975,0.43775 2.13889,0.46302 35.888876,0.46302 32.30851,0 35.714,-0.0397 35.85934,-0.41851 z M 73.029164,226.02717 v -24.08009 h 10.71702 10.71703 l -0.0676,24.01094 -0.0675,24.01094 -10.64948,0.0692 -10.64948,0.0691 z m 23.54792,0.0411 c 0,-13.21814 0.0495,-24.08259 0.11005,-24.14323 0.0605,-0.0606 4.824076,-0.0778 10.585666,-0.0381 l 10.47561,0.0721 -0.0685,13.9508 -0.0685,13.95079 -1.5875,0.15401 c -2.73661,0.26548 -5.45253,1.40504 -7.27693,3.05327 l -1.04022,0.93978 -1.26538,-1.05272 c -1.55612,-1.2946 -3.03126,-2.04919 -5.01707,-2.56643 -2.184626,-0.56902 -3.438316,-0.5216 -3.794286,0.14355 -0.44516,0.83179 -0.11061,1.42436 1.78461,3.161 1.969066,1.80429 5.238056,3.57743 7.114046,3.85876 2.61491,0.39212 5.84697,-0.88355 9.03005,-3.5641 1.05384,-0.88747 1.97657,-1.61357 2.05052,-1.61357 0.074,0 0.13445,3.98859 0.13445,8.86354 v 8.86354 H 107.16041 96.577084 Z m 15.131616,2.70875 c 1.0637,-0.37771 2.22088,-0.96495 2.5715,-1.30498 0.61347,-0.59492 0.62072,-0.64384 0.19234,-1.29763 -0.24484,-0.37367 -0.56148,-0.6794 -0.70365,-0.6794 -0.14216,0 -0.25848,-0.12446 -0.25848,-0.27657 0,-0.17295 0.34805,-0.21128 0.92894,-0.10231 2.0025,0.37568 2.22945,-1.04335 0.67684,-4.23201 -1.88634,-3.87407 -4.32788,-5.65681 -7.36216,-5.37565 -2.4752,0.22935 -3.48003,0.95984 -3.27353,2.37977 0.0961,0.66078 -0.0368,0.59446 -1.26003,-0.62876 -1.01351,-1.01351 -1.16749,-1.07967 -2.14779,-0.92291 -1.02978,0.16466 -1.05602,0.1496 -1.05602,-0.60638 0,-1.17359 -0.257126,-1.61226 -0.945036,-1.61226 -0.95269,0 -1.17203,0.75503 -1.16709,4.0175 0.007,4.827 1.61101,9.74083 3.179066,9.74083 1.04258,0 1.07489,-0.62802 0.15093,-2.93348 -0.49064,-1.22424 -0.97811,-2.62774 -1.08326,-3.11889 -0.294366,-1.37489 0.27866,-0.7863 0.80803,0.82996 0.54451,1.66253 1.75796,4.06811 2.46925,4.89512 1.73038,2.01192 4.79331,2.46619 8.28015,1.22805 z m -5.07746,-1.46187 c -1.58867,-0.63163 -2.58258,-2.06848 -3.82134,-5.52431 -0.39122,-1.0914 -0.96193,-2.25179 -1.26825,-2.57864 -0.30631,-0.32685 -0.47997,-0.67124 -0.3859,-0.76531 0.26463,-0.26463 0.94211,0.4111 1.41833,1.41467 0.87549,1.84496 2.87416,3.2166 3.61351,2.47986 0.17125,-0.17064 0.37089,-1.28706 0.44365,-2.48094 l 0.13229,-2.17068 1.4197,-0.081 c 1.85751,-0.10603 3.07597,0.6777 4.37292,2.8127 1.13015,1.86043 1.2396,2.55395 0.35895,2.27438 -0.95762,-0.30401 -4.00352,-0.21747 -4.6571,0.13232 -1.01257,0.54191 -0.62455,1.35504 1.20947,2.53455 0.90509,0.58208 1.61228,1.16919 1.57153,1.30469 -0.21598,0.71826 -3.14701,1.14899 -4.40776,0.64774 z m 13.22917,-1.29097 v -24.07709 h 10.58333 10.58334 v 24.07709 24.07708 h -10.58334 -10.58333 z m -15.22562,8.83546 c -1.37168,-0.71074 -3.02967,-1.81735 -3.03016,-2.02244 -9e-4,-0.38063 0.67041,-0.18807 1.99691,0.57279 1.31694,0.75539 2.15738,1.5122 1.93085,1.73874 -0.0638,0.0638 -0.46769,-0.0663 -0.8976,-0.28909 z m 5.17145,0.1877 c 0,-0.38711 1.36662,-1.43535 2.59044,-1.98696 1.21225,-0.54639 1.78534,-0.39792 0.96212,0.24925 -0.86951,0.68358 -3.55256,1.99596 -3.55256,1.73771 z"
       id="path1"
       sodipodi:nodetypes="sssssssscccccccccssccccsscsssssssscccsssssssssssssscssssssssssssscssssssssccccccccccssscssss" /></g></svg>
