<?xml version="1.0" encoding="UTF-8" standalone="no"?>
<!-- Created with Inkscape (http://www.inkscape.org/) -->

<svg
   width="71.258263mm"
   height="51.944038mm"
   viewBox="0 0 71.258263 51.944038"
   version="1.1"
   id="svg1"
   xml:space="preserve"
   xmlns:inkscape="http://www.inkscape.org/namespaces/inkscape"
   xmlns:sodipodi="http://sodipodi.sourceforge.net/DTD/sodipodi-0.dtd"
   xmlns="http://www.w3.org/2000/svg"
   xmlns:svg="http://www.w3.org/2000/svg"><sodipodi:namedview
     id="namedview1"
     pagecolor="#505050"
     bordercolor="#eeeeee"
     borderopacity="1"
     inkscape:showpageshadow="0"
     inkscape:pageopacity="0"
     inkscape:pagecheckerboard="0"
     inkscape:deskcolor="#505050"
     inkscape:document-units="mm" /><defs
     id="defs1" /><g
     inkscape:label="Capa 1"
     inkscape:groupmode="layer"
     id="layer1"
     transform="translate(-71.51243,-34.483935)"><path
       d="M 142.77069,60.413095 V 34.483935 H 107.18424 71.59778 l -0.06822,25.66458 c -0.03752,14.11552 -0.01133,25.813853 0.05821,25.996283 0.100645,0.26405 7.371478,0.31801 35.65467,0.26459 l 35.52825,-0.0671 z m -68.860677,12.50157 0.06902,-11.17865 h 33.205207 33.20521 l 0.069,11.17865 0.069,11.178653 H 107.18424 73.840995 Z m 0,-24.87084 0.06902,-11.17864 h 33.205207 33.20521 l 0.069,11.17864 0.069,11.17865 H 107.18424 73.840995 Z m 14.952734,6.81636 c 2.299196,-1.05261 2.206498,-2.15294 -0.222232,-2.6379 -2.004197,-0.4002 -3.136517,-1.13781 -3.881174,-2.52824 -1.623993,-3.03235 0.530893,-6.87574 3.855044,-6.87574 1.220783,0 1.96974,-0.576 1.849038,-1.42204 -0.05482,-0.38425 -0.559669,-0.80207 -1.594156,-1.31934 -3.981604,-1.9909 -9.099127,-0.15969 -10.939194,3.91439 -0.87745,1.94275 -1.0327,3.48806 -0.542619,5.40103 1.322642,5.16278 6.624028,7.68882 11.475293,5.46784 z m -5.887884,-1.95217 c -2.063037,-0.93958 -3.566346,-3.24629 -3.570399,-5.47851 -0.0047,-2.60419 2.519913,-5.66953 4.669477,-5.66953 0.298526,0 0.222099,0.21519 -0.294454,0.82908 -1.356809,1.61247 -1.830888,2.87114 -1.830328,4.85946 4.15e-4,1.47173 0.140669,2.12376 0.682953,3.175 0.375337,0.7276 0.933425,1.54973 1.240195,1.82695 0.559306,0.50542 0.73066,0.95624 0.359327,0.94536 -0.10914,-0.003 -0.674687,-0.22271 -1.256771,-0.48781 z m 10.980208,-1.88762 c 0,-1.05834 0,-1.05834 -1.058333,-1.05834 -1.058333,0 -1.058333,0 -1.058333,1.05834 0,1.05833 0,1.05833 1.058333,1.05833 1.058333,0 1.058333,0 1.058333,-1.05833 z m 4.976909,-0.0661 c 0.08212,-0.99219 0.08212,-0.99219 -1.124479,-0.99219 -1.206596,0 -1.206596,0 -1.206596,1.07355 0,1.07354 0,1.07354 1.124479,0.99219 1.091505,-0.079 1.126887,-0.11046 1.206596,-1.07355 z m -6.035242,-4.69635 c 0,-1.05834 0,-1.05834 -1.190625,-1.05834 -1.190625,0 -1.190625,0 -1.190625,1.05834 0,1.05833 0,1.05833 1.190625,1.05833 1.190625,0 1.190625,0 1.190625,-1.05833 z m 7.143752,0 c 0,-1.05834 0,-1.05834 -1.190627,-1.05834 -1.190625,0 -1.190625,0 -1.190625,1.05834 0,1.05833 0,1.05833 1.190625,1.05833 1.190627,0 1.190627,0 1.190627,-1.05833 z m -3.704169,-3.57188 c 0,-1.19062 0,-1.19062 -1.058333,-1.19062 -1.058333,0 -1.058333,0 -1.058333,1.19062 0,1.19063 0,1.19063 1.058333,1.19063 1.058333,0 1.058333,0 1.058333,-1.19063 z"
       style="fill:#ffffff"
       id="path1-1"
       inkscape:export-filename="Bandera Singapur.svg"
       inkscape:export-xdpi="96"
       inkscape:export-ydpi="96" /></g></svg>
