<svg viewBox="0 0 3081 1539" xmlns="http://www.w3.org/2000/svg" xmlns:xlink="http://www.w3.org/1999/xlink" xml:space="preserve" overflow="hidden"><defs><style>@import url('https://fonts.cdnfonts.com/css/cmu-serif'); text { font-family: 'CMU Serif', serif !important; }</style></defs><g transform="translate(-128 -659)"><path d="M416 748.5C416 712.878 445.101 684 481 684 516.898 684 546 712.878 546 748.5 546 784.122 516.898 813 481 813 445.101 813 416 784.122 416 748.5Z" fill="#DEDEEE" fill-rule="evenodd"/><path d="M657.377 1083.07 611.941 890.022C610.318 883.534 607.073 877.045 602.205 872.178 582.732 855.956 560.014 844.6 534.05 836.489 516.2 833.245 498.35 830 480.5 830 462.65 830 444.8 833.245 426.95 838.111 400.986 844.6 378.268 857.578 358.796 873.8 353.927 878.667 350.682 885.156 349.059 891.645L303.623 1084.69C303.623 1086.31 302 1089.56 302 1092.8 302 1110.64 316.605 1125.24 334.455 1125.24 349.059 1125.24 362.041 1113.89 365.286 1100.91L399.364 959.778 399.364 1414 464.273 1414 464.273 1122 496.727 1122 496.727 1414 561.636 1414 561.636 958.156 595.714 1099.29C598.959 1112.27 611.941 1123.62 626.545 1123.62 644.395 1123.62 659 1109.02 659 1091.18 659 1087.93 657.377 1084.69 657.377 1083.07Z" fill="#DEDEEE" fill-rule="evenodd"/><text fill="#FFFFFF" font-family="CMU Serif,CMU Serif_MSFontService,sans-serif" font-weight="400" font-size="248" transform="matrix(1 0 0 1 277.037 1735)">(C)</text><text fill="#FFFFFF" font-family="CMU Serif,CMU Serif_MSFontService,sans-serif" font-weight="400" font-size="83" transform="matrix(1 0 0 1 245.824 1975)">C</text><text fill="#FFFFFF" font-family="CMU Serif,CMU Serif_MSFontService,sans-serif" font-weight="400" font-size="66" transform="matrix(1 0 0 1 305.408 1975)">IUDADANO</text><text fill="#FFFFFF" font-family="CMU Serif,CMU Serif_MSFontService,sans-serif" font-weight="400" font-size="66" transform="matrix(1 0 0 1 207.141 2058)">COOPERATIVO</text><g><g><g><path d="M1325 748.375C1325 784.273 1295.9 813.375 1260 813.375 1224.1 813.375 1195 784.273 1195 748.375 1195 712.476 1224.1 683.375 1260 683.375 1295.9 683.375 1325 712.476 1325 748.375Z" stroke="#DEDEEE" stroke-width="8.125" fill="#9493C7"/><path d="M1437.12 1083.12 1391.62 889.75C1390 883.25 1386.75 876.75 1381.88 871.875 1362.38 855.625 1339.62 844.25 1313.62 836.125 1295.75 832.875 1277.88 829.625 1260 829.625 1242.12 829.625 1224.25 832.875 1206.38 837.75 1180.38 844.25 1157.62 857.25 1138.12 873.5 1133.25 878.375 1130 884.875 1128.38 891.375L1082.88 1084.75C1082.88 1086.38 1081.25 1089.62 1081.25 1092.88 1081.25 1110.75 1095.88 1125.38 1113.75 1125.38 1128.38 1125.38 1141.38 1114 1144.62 1101L1178.75 959.625 1178.75 1414.62 1243.75 1414.62 1243.75 1122.12 1276.25 1122.12 1276.25 1414.62 1341.25 1414.62 1341.25 958 1375.38 1099.38C1378.62 1112.38 1391.62 1123.75 1406.25 1123.75 1424.12 1123.75 1438.75 1109.12 1438.75 1091.25 1438.75 1088 1437.12 1084.75 1437.12 1083.12Z" stroke="#DEDEEE" stroke-width="8.125" fill="#9493C7"/></g></g></g><text fill="#FFFFFF" font-family="CMU Serif,CMU Serif_MSFontService,sans-serif" font-weight="400" font-size="248" transform="matrix(1 0 0 1 1069.73 1735)">(D)</text><text fill="#FFFFFF" font-family="CMU Serif,CMU Serif_MSFontService,sans-serif" font-weight="400" font-size="83" transform="matrix(1 0 0 1 979.507 1975)">C</text><text fill="#FFFFFF" font-family="CMU Serif,CMU Serif_MSFontService,sans-serif" font-weight="400" font-size="66" transform="matrix(1 0 0 1 1039.09 1975)">IUDADANO</text><text fill="#FFFFFF" font-family="CMU Serif,CMU Serif_MSFontService,sans-serif" font-weight="400" font-size="66" transform="matrix(1 0 0 1 1440.13 1975)">NO</text><text fill="#FFFFFF" font-family="CMU Serif,CMU Serif_MSFontService,sans-serif" font-weight="400" font-size="66" transform="matrix(1 0 0 1 1004.99 2058)">COOPERATIVO</text><path d="M2040 818C2075.75 818 2105 788.75 2105 753 2105 717.25 2075.75 688 2040 688 2004.25 688 1975 717.25 1975 753 1975 788.75 2004.25 818 2040 818" stroke="#F2F2F2" stroke-width="8.09229" stroke-miterlimit="8" fill="#5654A2" fill-rule="evenodd"/><path d="M2202.5 1061.31 2235 964 1845 964 1877.5 1061.31 1926.25 1061.31 1958.75 1377.56 1910 1377.56 1910 1410 2170 1410 2170 1377.56 2121.25 1377.56 2153.75 1061.31Z" stroke="#F2F2F2" stroke-width="8.09229" stroke-miterlimit="8" fill="#5654A2" fill-rule="evenodd"/><path d="M2171.07 893.817C2169.45 887.35 2166.2 880.883 2161.33 876.033 2141.85 859.867 2119.13 848.55 2093.16 840.467 2075.3 837.233 2057.45 834 2039.59 834 2021.74 834 2003.88 837.233 1986.03 842.083 1960.06 848.55 1937.33 861.483 1917.85 877.65 1912.99 882.5 1909.74 888.967 1908.12 895.433L1900 931 2180 931 2171.07 893.817Z" stroke="#F2F2F2" stroke-width="8.09229" stroke-miterlimit="8" fill="#5654A2" fill-rule="evenodd"/><text fill="#FFFFFF" font-family="CMU Serif,CMU Serif_MSFontService,sans-serif" font-weight="400" font-size="248" transform="matrix(1 0 0 1 1850.7 1735)">(H)</text><text fill="#FFFFFF" font-family="CMU Serif,CMU Serif_MSFontService,sans-serif" font-weight="400" font-size="83" transform="matrix(1 0 0 1 1914 1975)">P</text><text fill="#FFFFFF" font-family="CMU Serif,CMU Serif_MSFontService,sans-serif" font-weight="400" font-size="66" transform="matrix(1 0 0 1 1970.14 1975)">ODER</text><text fill="#FFFFFF" font-family="CMU Serif,CMU Serif_MSFontService,sans-serif" font-weight="400" font-size="83" transform="matrix(1 0 0 1 1858.42 2074)">H</text><text fill="#FFFFFF" font-family="CMU Serif,CMU Serif_MSFontService,sans-serif" font-weight="400" font-size="66" transform="matrix(1 0 0 1 1920.3 2074)">ONRADO</text><g><g><g><path d="M389.5 158.234C425.204 158.234 454.417 129.022 454.417 93.3177 454.417 57.6135 425.204 28.401 389.5 28.401 353.796 28.401 324.583 57.6135 324.583 93.3177 324.583 129.022 353.796 158.234 389.5 158.234" stroke="#DEDEEE" stroke-width="10.3407" fill="#21203D" transform="matrix(1 0 0 1.00128 2430 659)"/><path d="M551.792 401.672 584.25 304.297 194.75 304.297 227.208 401.672 275.896 401.672 308.354 718.141 259.667 718.141 259.667 750.599 519.333 750.599 519.333 718.141 470.646 718.141 503.104 401.672Z" stroke="#DEDEEE" stroke-width="10.3407" fill="#21203D" transform="matrix(1 0 0 1.00128 2430 659)"/><path d="M520.956 234.511C519.333 228.02 516.087 221.528 511.219 216.659 491.744 200.43 469.023 189.07 443.056 180.955 425.204 177.709 407.352 174.464 389.5 174.464 371.648 174.464 353.796 177.709 335.944 182.578 309.977 189.07 287.256 202.053 267.781 218.282 262.913 223.151 259.667 229.643 258.044 236.134L249.929 271.839 529.882 271.839 520.956 234.511Z" stroke="#DEDEEE" stroke-width="10.3407" fill="#21203D" transform="matrix(1 0 0 1.00128 2430 659)"/></g></g></g><text fill="#FFFFFF" font-family="CMU Serif,CMU Serif_MSFontService,sans-serif" font-weight="400" font-size="248" transform="matrix(1 0 0 1 2626.79 1738)">(K)</text><text fill="#FFFFFF" font-family="CMU Serif,CMU Serif_MSFontService,sans-serif" font-weight="400" font-size="83" transform="matrix(1 0 0 1 2693.52 1978)">P</text><text fill="#FFFFFF" font-family="CMU Serif,CMU Serif_MSFontService,sans-serif" font-weight="400" font-size="66" transform="matrix(1 0 0 1 2749.67 1978)">ODER</text><text fill="#FFFFFF" font-family="CMU Serif,CMU Serif_MSFontService,sans-serif" font-weight="400" font-size="66" transform="matrix(1 0 0 1 2624.5 2077)">CORRUPTO</text></g></svg>