<svg width="1327" height="988" viewBox="0 0 1327 988" xmlns="http://www.w3.org/2000/svg" xmlns:xlink="http://www.w3.org/1999/xlink" xml:space="preserve" overflow="hidden"><g transform="translate(-1908 -614)"><path d="M2350.69 614.478 2792.42 614.478 2792.42 933.477 2350.69 933.477Z" fill-rule="evenodd"/><path d="M2792.42 614.478 3234.15 614.478 3234.15 933.477 2792.42 933.477Z" fill-rule="evenodd"/><path d="M1908.96 933.477 2350.69 933.477 2350.69 1243.9 1908.96 1243.9Z" fill-rule="evenodd"/><path d="M2350.69 933.477 2792.42 933.477 2792.42 1243.9 2350.69 1243.9Z" fill="#262626" fill-rule="evenodd"/><path d="M2792.42 933.477 3234.15 933.477 3234.15 1243.9 2792.42 1243.9Z" fill="#262626" fill-rule="evenodd"/><path d="M1908.96 1243.9 2350.69 1243.9 2350.69 1562.9 1908.96 1562.9Z" fill-rule="evenodd"/><path d="M2350.69 1243.9 2792.42 1243.9 2792.42 1562.9 2350.69 1562.9Z" fill="#262626" fill-rule="evenodd"/><path d="M2792.42 1243.9 3234.15 1243.9 3234.15 1562.9 2792.42 1562.9Z" fill="#262626" fill-rule="evenodd"/><text fill="#FFFFFF" font-family="CMU Serif,CMU Serif_MSFontService,sans-serif" font-weight="700" font-size="55" transform="matrix(1 0 0 1 2865.46 725)">Ciudadano </text><g><text fill="#FFFFFF" font-family="CMU Serif,CMU Serif_MSFontService,sans-serif" font-weight="700" font-size="55" transform="matrix(1 0 0 1 2810.19 791)">no cooperativo</text></g><text fill="#FFFFFF" font-family="CMU Serif,CMU Serif_MSFontService,sans-serif" font-weight="700" font-size="55" transform="matrix(1 0 0 1 2964.3 857)">(D)</text><text fill="#FFFFFF" font-family="CMU Serif,CMU Serif_MSFontService,sans-serif" font-weight="700" font-size="55" transform="matrix(1 0 0 1 2423.74 725)">Ciudadano</text><text fill="#FFFFFF" font-family="CMU Serif,CMU Serif_MSFontService,sans-serif" font-weight="700" font-size="55" transform="matrix(1 0 0 1 2412.28 791)">cooperativo</text><text fill="#FFFFFF" font-family="CMU Serif,CMU Serif_MSFontService,sans-serif" font-weight="700" font-size="55" transform="matrix(1 0 0 1 2524 857)">(C)</text><text fill="#FFFFFF" font-family="CMU Serif,CMU Serif_MSFontService,sans-serif" font-style="italic" font-weight="400" font-size="165" transform="matrix(1 0 0 1 2949.98 1146)">-</text><text fill="#FFFFFF" font-family="CMU Serif,CMU Serif_MSFontService,sans-serif" font-style="italic" font-weight="400" font-size="165" transform="matrix(1 0 0 1 3008.99 1146)">s</text><text fill="#FFFFFF" font-family="CMU Serif,CMU Serif_MSFontService,sans-serif" font-style="italic" font-weight="400" font-size="165" transform="matrix(1 0 0 1 2536.89 1146)">r</text><text fill="#FFFFFF" font-family="CMU Serif,CMU Serif_MSFontService,sans-serif" font-weight="700" font-size="55" transform="matrix(1 0 0 1 1982.01 1040)">Ciudadano</text><text fill="#FFFFFF" font-family="CMU Serif,CMU Serif_MSFontService,sans-serif" font-weight="700" font-size="55" transform="matrix(1 0 0 1 1970.55 1106)">cooperativo</text><text fill="#FFFFFF" font-family="CMU Serif,CMU Serif_MSFontService,sans-serif" font-weight="700" font-size="55" transform="matrix(1 0 0 1 2082.27 1172)">(C)</text><text fill="#FFFFFF" font-family="CMU Serif,CMU Serif_MSFontService,sans-serif" font-style="italic" font-weight="400" font-size="165" transform="matrix(1 0 0 1 2971.18 1460)">0</text><text fill="#FFFFFF" font-family="CMU Serif,CMU Serif_MSFontService,sans-serif" font-style="italic" font-weight="400" font-size="165" transform="matrix(1 0 0 1 2544.05 1460)">t</text><text fill="#FFFFFF" font-family="CMU Serif,CMU Serif_MSFontService,sans-serif" font-weight="700" font-size="55" transform="matrix(1 0 0 1 1982 1354)">Ciudadano</text><g><text fill="#FFFFFF" font-family="CMU Serif,CMU Serif_MSFontService,sans-serif" font-weight="700" font-size="55" transform="matrix(1 0 0 1 1926.72 1420)">no cooperativo</text></g><text fill="#FFFFFF" font-family="CMU Serif,CMU Serif_MSFontService,sans-serif" font-weight="700" font-size="55" transform="matrix(1 0 0 1 2080.84 1486)">(D)</text></g></svg>