<svg width="2474" height="1773" xmlns="http://www.w3.org/2000/svg" xmlns:xlink="http://www.w3.org/1999/xlink" xml:space="preserve" overflow="hidden"><g transform="translate(-413 -360)"><path d="M413.572 360.001 908.143 360.001 908.143 711.001 413.572 711.001Z" fill-rule="evenodd"/><path d="M908.143 360.001 1402.71 360.001 1402.71 711.001 908.143 711.001Z" fill-rule="evenodd"/><path d="M1402.71 360.001 1897.29 360.001 1897.29 711.001 1402.71 711.001Z" fill-rule="evenodd"/><path d="M1897.29 360.001 2391.86 360.001 2391.86 711.001 1897.29 711.001Z" fill-rule="evenodd"/><path d="M2391.86 360.001 2886.43 360.001 2886.43 711.001 2391.86 711.001Z" fill-rule="evenodd"/><path d="M413.572 711.001 908.143 711.001 908.143 1062 413.572 1062Z" fill-rule="evenodd"/><path d="M908.143 711.001 1897.29 711.001 1897.29 1413 908.143 1413Z" fill="#262626" fill-rule="evenodd"/><path d="M1897.29 711.001 2391.86 711.001 2391.86 1413 1897.29 1413Z" fill="#404040" fill-rule="evenodd"/><path d="M2391.86 711.001 2886.43 711.001 2886.43 1764 2391.86 1764Z" fill="#595959" fill-rule="evenodd"/><path d="M413.572 1062 908.143 1062 908.143 1413 413.572 1413Z" fill-rule="evenodd"/><path d="M413.572 1413 908.143 1413 908.143 1764 413.572 1764Z" fill-rule="evenodd"/><path d="M908.143 1413 2391.86 1413 2391.86 1764 908.143 1764Z" fill="#404040" fill-rule="evenodd"/><path d="M413.572 1764 908.143 1764 908.143 2115 413.572 2115Z" fill-rule="evenodd"/><path d="M908.143 1764 2886.43 1764 2886.43 2115 908.143 2115Z" fill="#595959" fill-rule="evenodd"/><text fill="#FFFFFF" font-family="CMU Serif,CMU Serif_MSFontService,sans-serif" font-weight="700" font-size="64" transform="matrix(1 0 0 1 2542.89 478)">Poder</text><g><text fill="#FFFFFF" font-family="CMU Serif,CMU Serif_MSFontService,sans-serif" font-weight="700" font-size="64" transform="matrix(1 0 0 1 2402.53 555)">no cooperativo</text></g><text fill="#FFFFFF" font-family="CMU Serif,CMU Serif_MSFontService,sans-serif" font-weight="700" font-size="64" transform="matrix(1 0 0 1 2581.58 632)">(K)</text><text fill="#FFFFFF" font-family="CMU Serif,CMU Serif_MSFontService,sans-serif" font-weight="700" font-size="64" transform="matrix(1 0 0 1 2048.32 478)">Poder </text><text fill="#FFFFFF" font-family="CMU Serif,CMU Serif_MSFontService,sans-serif" font-weight="700" font-size="64" transform="matrix(1 0 0 1 1958.95 555)">cooperativo</text><text fill="#FFFFFF" font-family="CMU Serif,CMU Serif_MSFontService,sans-serif" font-weight="700" font-size="64" transform="matrix(1 0 0 1 2087 632)">(H)</text><text fill="#FFFFFF" font-family="CMU Serif,CMU Serif_MSFontService,sans-serif" font-weight="700" font-size="64" transform="matrix(1 0 0 1 1477.85 478)">Ciudadano </text><g><text fill="#FFFFFF" font-family="CMU Serif,CMU Serif_MSFontService,sans-serif" font-weight="700" font-size="64" transform="matrix(1 0 0 1 1413.39 555)">no cooperativo</text></g><text fill="#FFFFFF" font-family="CMU Serif,CMU Serif_MSFontService,sans-serif" font-weight="700" font-size="64" transform="matrix(1 0 0 1 1593.01 632)">(D)</text><text fill="#FFFFFF" font-family="CMU Serif,CMU Serif_MSFontService,sans-serif" font-weight="700" font-size="64" transform="matrix(1 0 0 1 983.279 478)">Ciudadano</text><text fill="#FFFFFF" font-family="CMU Serif,CMU Serif_MSFontService,sans-serif" font-weight="700" font-size="64" transform="matrix(1 0 0 1 969.804 555)">cooperativo</text><text fill="#FFFFFF" font-family="CMU Serif,CMU Serif_MSFontService,sans-serif" font-weight="700" font-size="64" transform="matrix(1 0 0 1 1100.15 632)">(C)</text><text fill="#FFFFFF" font-family="CMU Serif,CMU Serif_MSFontService,sans-serif" font-style="italic" font-weight="400" font-size="64" transform="matrix(1 0 0 1 1034.9 1085)">Interacciones entre civiles</text><text fill="#FFFFFF" font-family="CMU Serif,CMU Serif_MSFontService,sans-serif" font-weight="700" font-size="64" transform="matrix(1 0 0 1 488.707 829)">Ciudadano</text><text fill="#FFFFFF" font-family="CMU Serif,CMU Serif_MSFontService,sans-serif" font-weight="700" font-size="64" transform="matrix(1 0 0 1 475.232 906)">cooperativo</text><text fill="#FFFFFF" font-family="CMU Serif,CMU Serif_MSFontService,sans-serif" font-weight="700" font-size="64" transform="matrix(1 0 0 1 605.582 983)">(C)</text><text fill="#FFFFFF" font-family="CMU Serif,CMU Serif_MSFontService,sans-serif" font-weight="700" font-size="64" transform="matrix(1 0 0 1 488.707 1142)">Ciudadano</text><text fill="#FFFFFF" font-family="CMU Serif,CMU Serif_MSFontService,sans-serif" font-weight="700" font-size="64" transform="matrix(1 0 0 1 622.197 1219)">no </text><text fill="#FFFFFF" font-family="CMU Serif,CMU Serif_MSFontService,sans-serif" font-weight="700" font-size="64" transform="matrix(1 0 0 1 475.232 1296)">cooperativo</text><text fill="#FFFFFF" font-family="CMU Serif,CMU Serif_MSFontService,sans-serif" font-weight="700" font-size="64" transform="matrix(1 0 0 1 603.864 1373)">(D)</text><text fill="#FFFFFF" font-family="CMU Serif,CMU Serif_MSFontService,sans-serif" font-style="italic" font-weight="400" font-size="64" transform="matrix(1 0 0 1 1161.02 1611)">Interacciones con el poder honesto</text><text fill="#FFFFFF" font-family="CMU Serif,CMU Serif_MSFontService,sans-serif" font-weight="700" font-size="64" transform="matrix(1 0 0 1 564.607 1531)">Poder</text><text fill="#FFFFFF" font-family="CMU Serif,CMU Serif_MSFontService,sans-serif" font-weight="700" font-size="64" transform="matrix(1 0 0 1 475.232 1608)">cooperativo</text><text fill="#FFFFFF" font-family="CMU Serif,CMU Serif_MSFontService,sans-serif" font-weight="700" font-size="64" transform="matrix(1 0 0 1 603.291 1685)">(H)</text><text fill="#FFFFFF" font-family="CMU Serif,CMU Serif_MSFontService,sans-serif" font-style="italic" font-weight="400" font-size="64" transform="matrix(1 0 0 1 1395.41 1962)">Interacciones con el poder corrupto</text><text fill="#FFFFFF" font-family="CMU Serif,CMU Serif_MSFontService,sans-serif" font-weight="700" font-size="64" transform="matrix(1 0 0 1 564.607 1844)">Poder</text><text fill="#FFFFFF" font-family="CMU Serif,CMU Serif_MSFontService,sans-serif" font-weight="700" font-size="64" transform="matrix(1 0 0 1 622.197 1921)">no </text><text fill="#FFFFFF" font-family="CMU Serif,CMU Serif_MSFontService,sans-serif" font-weight="700" font-size="64" transform="matrix(1 0 0 1 475.232 1998)">cooperativo</text><text fill="#FFFFFF" font-family="CMU Serif,CMU Serif_MSFontService,sans-serif" font-weight="700" font-size="64" transform="matrix(1 0 0 1 603.291 2075)">(K)</text></g></svg>