<svg width="2474" height="1773" viewBox="0 0 2474 1773" xmlns="http://www.w3.org/2000/svg" xmlns:xlink="http://www.w3.org/1999/xlink" xml:space="preserve" overflow="hidden"><defs><style>@import url('https://fonts.cdnfonts.com/css/cmu-serif'); text { font-family: 'CMU Serif', serif !important; }</style></defs><g transform="translate(-413 -360)"><path d="M413.572 360.001 908.143 360.001 908.143 711.001 413.572 711.001Z" fill-rule="evenodd"/><path d="M908.143 360.001 1402.71 360.001 1402.71 711.001 908.143 711.001Z" fill-rule="evenodd"/><path d="M1402.71 360.001 1897.29 360.001 1897.29 711.001 1402.71 711.001Z" fill-rule="evenodd"/><path d="M1897.29 360.001 2391.86 360.001 2391.86 711.001 1897.29 711.001Z" fill-rule="evenodd"/><path d="M2391.86 360.001 2886.43 360.001 2886.43 711.001 2391.86 711.001Z" fill-rule="evenodd"/><path d="M413.572 711.001 908.143 711.001 908.143 1062 413.572 1062Z" fill-rule="evenodd"/><path d="M908.143 711.001 1402.71 711.001 1402.71 1062 908.143 1062Z" fill="#262626" fill-rule="evenodd"/><path d="M1402.71 711.001 1897.29 711.001 1897.29 1062 1402.71 1062Z" fill="#262626" fill-rule="evenodd"/><path d="M1897.29 711.001 2391.86 711.001 2391.86 1062 1897.29 1062Z" fill="#404040" fill-rule="evenodd"/><path d="M2391.86 711.001 2886.43 711.001 2886.43 1062 2391.86 1062Z" fill="#595959" fill-rule="evenodd"/><path d="M413.572 1062 908.143 1062 908.143 1413 413.572 1413Z" fill-rule="evenodd"/><path d="M908.143 1062 1402.71 1062 1402.71 1413 908.143 1413Z" fill="#262626" fill-rule="evenodd"/><path d="M1402.71 1062 1897.29 1062 1897.29 1413 1402.71 1413Z" fill="#262626" fill-rule="evenodd"/><path d="M1897.29 1062 2391.86 1062 2391.86 1413 1897.29 1413Z" fill="#404040" fill-rule="evenodd"/><path d="M2391.86 1062 2886.43 1062 2886.43 1413 2391.86 1413Z" fill="#595959" fill-rule="evenodd"/><path d="M413.572 1413 908.143 1413 908.143 1764 413.572 1764Z" fill-rule="evenodd"/><path d="M908.143 1413 1402.71 1413 1402.71 1764 908.143 1764Z" fill="#404040" fill-rule="evenodd"/><path d="M1402.71 1413 1897.29 1413 1897.29 1764 1402.71 1764Z" fill="#404040" fill-rule="evenodd"/><path d="M1897.29 1413 2391.86 1413 2391.86 1764 1897.29 1764Z" fill="#404040" fill-rule="evenodd"/><path d="M2391.86 1413 2886.43 1413 2886.43 1764 2391.86 1764Z" fill="#595959" fill-rule="evenodd"/><path d="M413.572 1764 908.143 1764 908.143 2115 413.572 2115Z" fill-rule="evenodd"/><path d="M908.143 1764 1402.71 1764 1402.71 2115 908.143 2115Z" fill="#595959" fill-rule="evenodd"/><path d="M1402.71 1764 1897.29 1764 1897.29 2115 1402.71 2115Z" fill="#595959" fill-rule="evenodd"/><path d="M1897.29 1764 2391.86 1764 2391.86 2115 1897.29 2115Z" fill="#595959" fill-rule="evenodd"/><path d="M2391.86 1764 2886.43 1764 2886.43 2115 2391.86 2115Z" fill="#595959" fill-rule="evenodd"/><text fill="#FFFFFF" font-family="CMU Serif,CMU Serif_MSFontService,sans-serif" font-weight="700" font-size="64" transform="matrix(1 0 0 1 2542.89 478)">Poder</text><g><text fill="#FFFFFF" font-family="CMU Serif,CMU Serif_MSFontService,sans-serif" font-weight="700" font-size="64" transform="matrix(1 0 0 1 2402.53 555)">no cooperativo</text></g><text fill="#FFFFFF" font-family="CMU Serif,CMU Serif_MSFontService,sans-serif" font-weight="700" font-size="64" transform="matrix(1 0 0 1 2581.58 632)">(K)</text><text fill="#FFFFFF" font-family="CMU Serif,CMU Serif_MSFontService,sans-serif" font-weight="700" font-size="64" transform="matrix(1 0 0 1 2048.32 478)">Poder </text><text fill="#FFFFFF" font-family="CMU Serif,CMU Serif_MSFontService,sans-serif" font-weight="700" font-size="64" transform="matrix(1 0 0 1 1958.95 555)">cooperativo</text><text fill="#FFFFFF" font-family="CMU Serif,CMU Serif_MSFontService,sans-serif" font-weight="700" font-size="64" transform="matrix(1 0 0 1 2087 632)">(H)</text><text fill="#FFFFFF" font-family="CMU Serif,CMU Serif_MSFontService,sans-serif" font-weight="700" font-size="64" transform="matrix(1 0 0 1 1477.85 478)">Ciudadano </text><g><text fill="#FFFFFF" font-family="CMU Serif,CMU Serif_MSFontService,sans-serif" font-weight="700" font-size="64" transform="matrix(1 0 0 1 1413.39 555)">no cooperativo</text></g><text fill="#FFFFFF" font-family="CMU Serif,CMU Serif_MSFontService,sans-serif" font-weight="700" font-size="64" transform="matrix(1 0 0 1 1593.01 632)">(D)</text><text fill="#FFFFFF" font-family="CMU Serif,CMU Serif_MSFontService,sans-serif" font-weight="700" font-size="64" transform="matrix(1 0 0 1 983.279 478)">Ciudadano</text><text fill="#FFFFFF" font-family="CMU Serif,CMU Serif_MSFontService,sans-serif" font-weight="700" font-size="64" transform="matrix(1 0 0 1 969.804 555)">cooperativo</text><text fill="#FFFFFF" font-family="CMU Serif,CMU Serif_MSFontService,sans-serif" font-weight="700" font-size="64" transform="matrix(1 0 0 1 1100.15 632)">(C)</text><text fill="#FFFFFF" font-family="CMU Serif,CMU Serif_MSFontService,sans-serif" font-style="italic" font-weight="400" font-size="87" transform="matrix(1 0 0 1 2605.91 916)">-</text><text fill="#FFFFFF" font-family="CMU Serif,CMU Serif_MSFontService,sans-serif" font-style="italic" font-weight="400" font-size="87" transform="matrix(1 0 0 1 2636.85 916)">s</text><text fill="#FFFFFF" font-family="CMU Serif,CMU Serif_MSFontService,sans-serif" font-style="italic" font-weight="400" font-size="87" transform="matrix(1 0 0 1 2126.24 916)">r</text><text fill="#FFFFFF" font-family="CMU Serif,CMU Serif_MSFontService,sans-serif" font-style="italic" font-weight="400" font-size="87" transform="matrix(1 0 0 1 1616.77 916)">-</text><text fill="#FFFFFF" font-family="CMU Serif,CMU Serif_MSFontService,sans-serif" font-style="italic" font-weight="400" font-size="87" transform="matrix(1 0 0 1 1647.71 916)">s</text><text fill="#FFFFFF" font-family="CMU Serif,CMU Serif_MSFontService,sans-serif" font-style="italic" font-weight="400" font-size="87" transform="matrix(1 0 0 1 1137.1 916)">r</text><text fill="#FFFFFF" font-family="CMU Serif,CMU Serif_MSFontService,sans-serif" font-weight="700" font-size="64" transform="matrix(1 0 0 1 488.707 829)">Ciudadano</text><text fill="#FFFFFF" font-family="CMU Serif,CMU Serif_MSFontService,sans-serif" font-weight="700" font-size="64" transform="matrix(1 0 0 1 475.232 906)">cooperativo</text><text fill="#FFFFFF" font-family="CMU Serif,CMU Serif_MSFontService,sans-serif" font-weight="700" font-size="64" transform="matrix(1 0 0 1 605.582 983)">(C)</text><text fill="#FFFFFF" font-family="CMU Serif,CMU Serif_MSFontService,sans-serif" font-style="italic" font-weight="400" font-size="87" transform="matrix(1 0 0 1 2601.33 1267)">-</text><text fill="#FFFFFF" font-family="CMU Serif,CMU Serif_MSFontService,sans-serif" font-style="italic" font-weight="400" font-size="87" transform="matrix(1 0 0 1 2632.27 1267)">p</text><text fill="#FFFFFF" font-family="CMU Serif,CMU Serif_MSFontService,sans-serif" font-style="italic" font-weight="400" font-size="87" transform="matrix(1 0 0 1 2092.15 1267)">t</text><text fill="#FFFFFF" font-family="CMU Serif,CMU Serif_MSFontService,sans-serif" font-style="italic" font-weight="400" font-size="87" transform="matrix(1 0 0 1 2121.37 1267)">-</text><text fill="#FFFFFF" font-family="CMU Serif,CMU Serif_MSFontService,sans-serif" font-style="italic" font-weight="400" font-size="87" transform="matrix(1 0 0 1 2152.31 1267)">p</text><text fill="#FFFFFF" font-family="CMU Serif,CMU Serif_MSFontService,sans-serif" font-style="italic" font-weight="400" font-size="87" transform="matrix(1 0 0 1 1627.94 1267)">0</text><text fill="#FFFFFF" font-family="CMU Serif,CMU Serif_MSFontService,sans-serif" font-style="italic" font-weight="400" font-size="87" transform="matrix(1 0 0 1 1140.82 1267)">t</text><text fill="#FFFFFF" font-family="CMU Serif,CMU Serif_MSFontService,sans-serif" font-weight="700" font-size="64" transform="matrix(1 0 0 1 488.707 1142)">Ciudadano</text><text fill="#FFFFFF" font-family="CMU Serif,CMU Serif_MSFontService,sans-serif" font-weight="700" font-size="64" transform="matrix(1 0 0 1 622.197 1219)">no </text><text fill="#FFFFFF" font-family="CMU Serif,CMU Serif_MSFontService,sans-serif" font-weight="700" font-size="64" transform="matrix(1 0 0 1 475.232 1296)">cooperativo</text><text fill="#FFFFFF" font-family="CMU Serif,CMU Serif_MSFontService,sans-serif" font-weight="700" font-size="64" transform="matrix(1 0 0 1 603.864 1373)">(D)</text><text fill="#FFFFFF" font-family="CMU Serif,CMU Serif_MSFontService,sans-serif" font-style="italic" font-weight="400" font-size="87" transform="matrix(1 0 0 1 2568.1 1618)">-</text><text fill="#FFFFFF" font-family="CMU Serif,CMU Serif_MSFontService,sans-serif" font-style="italic" font-weight="400" font-size="87" transform="matrix(1 0 0 1 2599.04 1618)">s</text><text fill="#FFFFFF" font-family="CMU Serif,CMU Serif_MSFontService,sans-serif" font-style="italic" font-weight="400" font-size="87" transform="matrix(1 0 0 1 2634.56 1618)">-</text><text fill="#FFFFFF" font-family="CMU Serif,CMU Serif_MSFontService,sans-serif" font-style="italic" font-weight="400" font-size="87" transform="matrix(1 0 0 1 2665.5 1618)">d</text><text fill="#FFFFFF" font-family="CMU Serif,CMU Serif_MSFontService,sans-serif" font-style="italic" font-weight="400" font-size="87" transform="matrix(1 0 0 1 2126.24 1618)">r</text><text fill="#FFFFFF" font-family="CMU Serif,CMU Serif_MSFontService,sans-serif" font-style="italic" font-weight="400" font-size="87" transform="matrix(1 0 0 1 1581.25 1618)">-</text><text fill="#FFFFFF" font-family="CMU Serif,CMU Serif_MSFontService,sans-serif" font-style="italic" font-weight="400" font-size="87" transform="matrix(1 0 0 1 1612.19 1618)">s</text><text fill="#FFFFFF" font-family="CMU Serif,CMU Serif_MSFontService,sans-serif" font-style="italic" font-weight="400" font-size="87" transform="matrix(1 0 0 1 1647.71 1618)">-</text><text fill="#FFFFFF" font-family="CMU Serif,CMU Serif_MSFontService,sans-serif" font-style="italic" font-weight="400" font-size="87" transform="matrix(1 0 0 1 1678.65 1618)">c</text><text fill="#FFFFFF" font-family="CMU Serif,CMU Serif_MSFontService,sans-serif" font-style="italic" font-weight="400" font-size="87" transform="matrix(1 0 0 1 1137.1 1618)">r</text><text fill="#FFFFFF" font-family="CMU Serif,CMU Serif_MSFontService,sans-serif" font-weight="700" font-size="64" transform="matrix(1 0 0 1 564.607 1531)">Poder</text><text fill="#FFFFFF" font-family="CMU Serif,CMU Serif_MSFontService,sans-serif" font-weight="700" font-size="64" transform="matrix(1 0 0 1 475.232 1608)">cooperativo</text><text fill="#FFFFFF" font-family="CMU Serif,CMU Serif_MSFontService,sans-serif" font-weight="700" font-size="64" transform="matrix(1 0 0 1 603.291 1685)">(H)</text><text fill="#FFFFFF" font-family="CMU Serif,CMU Serif_MSFontService,sans-serif" font-style="italic" font-weight="400" font-size="87" transform="matrix(1 0 0 1 2565.81 1969)">-</text><text fill="#FFFFFF" font-family="CMU Serif,CMU Serif_MSFontService,sans-serif" font-style="italic" font-weight="400" font-size="87" transform="matrix(1 0 0 1 2596.75 1969)">q</text><text fill="#FFFFFF" font-family="CMU Serif,CMU Serif_MSFontService,sans-serif" font-style="italic" font-weight="400" font-size="87" transform="matrix(1 0 0 1 2636.85 1969)">-</text><text fill="#FFFFFF" font-family="CMU Serif,CMU Serif_MSFontService,sans-serif" font-style="italic" font-weight="400" font-size="87" transform="matrix(1 0 0 1 2667.79 1969)">d</text><text fill="#FFFFFF" font-family="CMU Serif,CMU Serif_MSFontService,sans-serif" font-style="italic" font-weight="400" font-size="87" transform="matrix(1 0 0 1 2094.44 1969)">t</text><text fill="#FFFFFF" font-family="CMU Serif,CMU Serif_MSFontService,sans-serif" font-style="italic" font-weight="400" font-size="87" transform="matrix(1 0 0 1 2123.66 1969)">-</text><text fill="#FFFFFF" font-family="CMU Serif,CMU Serif_MSFontService,sans-serif" font-style="italic" font-weight="400" font-size="87" transform="matrix(1 0 0 1 2154.6 1969)">q</text><text fill="#FFFFFF" font-family="CMU Serif,CMU Serif_MSFontService,sans-serif" font-style="italic" font-weight="400" font-size="87" transform="matrix(1 0 0 1 1614.48 1969)">-</text><text fill="#FFFFFF" font-family="CMU Serif,CMU Serif_MSFontService,sans-serif" font-style="italic" font-weight="400" font-size="87" transform="matrix(1 0 0 1 1645.42 1969)">c</text><text fill="#FFFFFF" font-family="CMU Serif,CMU Serif_MSFontService,sans-serif" font-style="italic" font-weight="400" font-size="87" transform="matrix(1 0 0 1 1140.82 1969)">t</text><text fill="#FFFFFF" font-family="CMU Serif,CMU Serif_MSFontService,sans-serif" font-weight="700" font-size="64" transform="matrix(1 0 0 1 564.607 1844)">Poder</text><text fill="#FFFFFF" font-family="CMU Serif,CMU Serif_MSFontService,sans-serif" font-weight="700" font-size="64" transform="matrix(1 0 0 1 622.197 1921)">no </text><text fill="#FFFFFF" font-family="CMU Serif,CMU Serif_MSFontService,sans-serif" font-weight="700" font-size="64" transform="matrix(1 0 0 1 475.232 1998)">cooperativo</text><text fill="#FFFFFF" font-family="CMU Serif,CMU Serif_MSFontService,sans-serif" font-weight="700" font-size="64" transform="matrix(1 0 0 1 603.291 2075)">(K)</text></g></svg>