<svg width="1581" height="1581" viewBox="0 0 1581 1581" xmlns="http://www.w3.org/2000/svg" xmlns:xlink="http://www.w3.org/1999/xlink" xml:space="preserve" overflow="hidden"><defs><style>@import url('https://fonts.cdnfonts.com/css/cmu-serif'); text { font-family: 'CMU Serif', serif !important; }</style></defs><g transform="translate(-701 -551)"><path d="M701.572 551.991 1017.56 551.991 1017.56 867.979 701.572 867.979Z" fill-rule="evenodd"/><path d="M1017.56 551.991 1333.55 551.991 1333.55 867.979 1017.56 867.979Z" fill-rule="evenodd"/><path d="M1333.55 551.991 1649.54 551.991 1649.54 867.979 1333.55 867.979Z" fill-rule="evenodd"/><path d="M1649.54 551.991 1965.52 551.991 1965.52 867.979 1649.54 867.979Z" fill-rule="evenodd"/><path d="M1965.52 551.991 2281.51 551.991 2281.51 867.979 1965.52 867.979Z" fill-rule="evenodd"/><path d="M701.572 867.979 1017.56 867.979 1017.56 1183.97 701.572 1183.97Z" fill-rule="evenodd"/><path d="M1017.56 867.979 1649.54 867.979 1649.54 1499.95 1017.56 1499.95Z" fill="#262626" fill-rule="evenodd"/><path d="M1649.54 867.979 1965.52 867.979 1965.52 1499.95 1649.54 1499.95Z" fill="#404040" fill-rule="evenodd"/><path d="M1965.52 867.979 2281.51 867.979 2281.51 1815.94 1965.52 1815.94Z" fill="#595959" fill-rule="evenodd"/><path d="M701.572 1183.97 1017.56 1183.97 1017.56 1499.95 701.572 1499.95Z" fill-rule="evenodd"/><path d="M701.572 1499.95 1017.56 1499.95 1017.56 1815.94 701.572 1815.94Z" fill-rule="evenodd"/><path d="M1017.56 1499.95 1965.52 1499.95 1965.52 1815.94 1017.56 1815.94Z" fill="#404040" fill-rule="evenodd"/><path d="M701.572 1815.94 1017.56 1815.94 1017.56 2131.93 701.572 2131.93Z" fill-rule="evenodd"/><path d="M1017.56 1815.94 2281.51 1815.94 2281.51 2131.93 1017.56 2131.93Z" fill="#595959" fill-rule="evenodd"/><text fill="#FFFFFF" font-family="CMU Serif,CMU Serif_MSFontService,sans-serif" font-weight="700" font-size="124" transform="matrix(1 0 0 1 2067.66 748)">K</text><text fill="#FFFFFF" font-family="CMU Serif,CMU Serif_MSFontService,sans-serif" font-weight="700" font-size="124" transform="matrix(1 0 0 1 1751.96 748)">H</text><text fill="#FFFFFF" font-family="CMU Serif,CMU Serif_MSFontService,sans-serif" font-weight="700" font-size="124" transform="matrix(1 0 0 1 1436.83 748)">D</text><text fill="#FFFFFF" font-family="CMU Serif,CMU Serif_MSFontService,sans-serif" font-weight="700" font-size="124" transform="matrix(1 0 0 1 1124.28 748)">C</text><g><text fill="#FFFFFF" font-family="CMU Serif,CMU Serif_MSFontService,sans-serif" font-style="italic" font-weight="400" font-size="73" transform="matrix(1 0 0 1 1057.09 1121)">Predispuesta a la </text></g><text fill="#FFFFFF" font-family="CMU Serif,CMU Serif_MSFontService,sans-serif" font-style="italic" font-weight="700" font-size="73" transform="matrix(1 0 0 1 1083.72 1207)">no</text><text fill="#FFFFFF" font-family="CMU Serif,CMU Serif_MSFontService,sans-serif" font-style="italic" font-weight="400" font-size="73" transform="matrix(1 0 0 1 1201.17 1207)">cooperación</text><path d="M1271.9 1251.27C1273.21 1251.27 1273.87 1251.8 1273.87 1252.86 1273.87 1253.15 1273.77 1253.58 1273.57 1254.15L1270.74 1265.51 1276.68 1265.51C1277.18 1265.51 1277.52 1265.52 1277.72 1265.54 1277.92 1265.57 1278.1 1265.64 1278.28 1265.76 1278.45 1265.88 1278.54 1266.09 1278.54 1266.38 1278.54 1267.01 1278.38 1267.4 1278.06 1267.55 1277.74 1267.7 1277.21 1267.77 1276.47 1267.77L1270.18 1267.77 1264.89 1288.97C1264.6 1290.42 1264.45 1291.73 1264.45 1292.92 1264.45 1295.04 1265.1 1296.09 1266.41 1296.09 1268.25 1296.09 1269.88 1295.17 1271.31 1293.34 1272.74 1291.5 1273.89 1289.45 1274.76 1287.18 1275.05 1286.5 1275.25 1286.1 1275.37 1285.98 1275.5 1285.86 1275.77 1285.8 1276.21 1285.8 1276.93 1285.8 1277.3 1286.04 1277.3 1286.53 1277.3 1286.68 1277.15 1287.11 1276.86 1287.84 1276.57 1288.57 1276.11 1289.51 1275.47 1290.65 1274.84 1291.8 1274.11 1292.89 1273.28 1293.94 1272.46 1294.99 1271.41 1295.89 1270.14 1296.64 1268.88 1297.39 1267.56 1297.77 1266.2 1297.77 1264.35 1297.77 1262.86 1297.13 1261.71 1295.86 1260.57 1294.58 1260 1293.01 1260 1291.14 1260 1290.48 1260.12 1289.67 1260.36 1288.72L1265.59 1267.77 1259.83 1267.77C1259.35 1267.77 1259.01 1267.76 1258.82 1267.73 1258.63 1267.71 1258.45 1267.63 1258.28 1267.51 1258.11 1267.39 1258.03 1267.18 1258.03 1266.89 1258.03 1266.26 1258.18 1265.87 1258.49 1265.72 1258.8 1265.58 1259.32 1265.51 1260.04 1265.51L1266.15 1265.51 1269.05 1253.9C1269.54 1252.15 1270.48 1251.27 1271.9 1251.27Z" fill="#FFFFFF" fill-rule="evenodd"/><text fill="#000000" fill-opacity="0" font-family="Arial,Arial_MSFontService,sans-serif" font-size="46.501" x="1258.03" y="1291.96">t</text><path d="M1320.01 1258.35C1320.17 1258.35 1320.55 1258.5 1321.17 1258.79L1353.29 1277.04C1354.43 1277.77 1355.01 1278.33 1355.01 1278.72 1355.01 1279.11 1354.38 1279.62 1353.11 1280.25L1312.49 1298.28C1311.16 1298.82 1310.42 1299.09 1310.26 1299.09 1309.67 1299.09 1309.38 1298.84 1309.38 1298.36 1309.38 1297.92 1309.92 1297.5 1310.99 1297.11 1311.16 1297.04 1311.3 1296.98 1311.39 1296.94L1348.2 1280.6C1348.55 1280.44 1349.01 1280.24 1349.56 1279.99 1350.12 1279.75 1350.65 1279.51 1351.16 1279.28 1351.67 1279.06 1352.15 1278.84 1352.6 1278.65L1352.6 1278.57C1352.11 1278.32 1350.44 1277.38 1347.59 1275.73L1320.48 1260.32C1319.65 1259.88 1319.24 1259.45 1319.24 1259.01 1319.24 1258.57 1319.49 1258.35 1320.01 1258.35Z" fill="#FFFFFF" fill-rule="evenodd"/><text fill="#000000" fill-opacity="0" font-family="Arial,Arial_MSFontService,sans-serif" font-size="40.7339" x="1309.38" y="1293.99">&gt;</text><path d="M1398.45 1264.7C1399.81 1264.7 1401.07 1265.13 1402.21 1265.99 1403.35 1266.85 1404.12 1268.18 1404.51 1269.99 1407.04 1266.47 1409.98 1264.7 1413.34 1264.7 1415.08 1264.7 1416.73 1265.06 1418.3 1265.77 1419.86 1266.48 1420.64 1267.67 1420.64 1269.34 1420.64 1270.59 1420.24 1271.55 1419.45 1272.2 1418.65 1272.85 1417.83 1273.17 1416.98 1273.17 1416.08 1273.17 1415.42 1272.93 1415 1272.45 1414.58 1271.97 1414.36 1271.44 1414.36 1270.86 1414.36 1270.62 1414.41 1270.32 1414.51 1269.96 1414.61 1269.6 1414.89 1269.14 1415.34 1268.58 1415.78 1268.03 1416.41 1267.63 1417.2 1267.39 1416.21 1266.72 1414.9 1266.38 1413.27 1266.38 1412.1 1266.38 1410.97 1266.69 1409.87 1267.32 1408.78 1267.95 1407.88 1268.65 1407.17 1269.43 1406.47 1270.22 1405.82 1271.1 1405.24 1272.09 1404.66 1273.07 1404.27 1273.79 1404.07 1274.23 1403.88 1274.68 1403.73 1275.02 1403.63 1275.24L1398.89 1294.52C1398.45 1296.69 1397.5 1297.77 1396.04 1297.77 1395.36 1297.77 1394.85 1297.58 1394.51 1297.19 1394.17 1296.8 1394 1296.36 1394 1295.87 1394 1295.63 1394.07 1295.29 1394.22 1294.85L1399.69 1272.95C1400.03 1271.6 1400.2 1270.38 1400.2 1269.27 1400.2 1267.34 1399.57 1266.38 1398.3 1266.38 1397.23 1266.38 1396.32 1267.11 1395.57 1268.56 1394.81 1270.01 1394.07 1272.16 1393.34 1275.01 1393.15 1275.78 1392.99 1276.25 1392.87 1276.42 1392.74 1276.59 1392.44 1276.67 1391.95 1276.67 1391.22 1276.67 1390.86 1276.43 1390.86 1275.94 1390.86 1275.85 1390.96 1275.42 1391.15 1274.67 1391.34 1273.91 1391.64 1272.93 1392.03 1271.71 1392.42 1270.49 1392.8 1269.45 1393.19 1268.57 1394.56 1265.99 1396.31 1264.7 1398.45 1264.7Z" fill="#FFFFFF" fill-rule="evenodd"/><text fill="#000000" fill-opacity="0" font-family="Arial,Arial_MSFontService,sans-serif" font-size="33.069" x="1390.86" y="1293.64">r</text><text fill="#FFFFFF" font-family="CMU Serif,CMU Serif_MSFontService,sans-serif" font-weight="700" font-size="124" transform="matrix(1 0 0 1 808.289 1064)">C</text><text fill="#FFFFFF" font-family="CMU Serif,CMU Serif_MSFontService,sans-serif" font-weight="700" font-size="124" transform="matrix(1 0 0 1 804.852 1380)">D</text><text fill="#FFFFFF" font-family="CMU Serif,CMU Serif_MSFontService,sans-serif" font-style="italic" font-weight="400" font-size="73" transform="matrix(1 0 0 1 1125.84 1639)">Alto estado de derecho </text><text fill="#FFFFFF" font-family="Latin Modern Math,Latin Modern Math_MSFontService,sans-serif" font-style="oblique" font-weight="700" font-size="73" transform="matrix(1 0 0 1 1405.95 1727)">c</text><text fill="#FFFFFF" font-family="Cambria Math,Cambria Math_MSFontService,sans-serif" font-weight="400" font-size="73" transform="matrix(1 0 0 1 1460.7 1727)">≳</text><text fill="#FFFFFF" font-family="Cambria Math,Cambria Math_MSFontService,sans-serif" font-weight="400" font-size="73" transform="matrix(1 0 0 1 1536.07 1727)">0</text><text fill="#FFFFFF" font-family="CMU Serif,CMU Serif_MSFontService,sans-serif" font-weight="700" font-size="124" transform="matrix(1 0 0 1 803.993 1696)">H</text><text fill="#FFFFFF" font-family="CMU Serif,CMU Serif_MSFontService,sans-serif" font-style="italic" font-weight="400" font-size="64" transform="matrix(1 0 0 1 1106.7 1958)">Altos</text><text fill="#FFFFFF" font-family="CMU Serif,CMU Serif_MSFontService,sans-serif" font-style="italic" font-weight="400" font-size="64" transform="matrix(1 0 0 1 1273.99 1958)">c</text><text fill="#FFFFFF" font-family="CMU Serif,CMU Serif_MSFontService,sans-serif" font-style="italic" font-weight="400" font-size="64" transform="matrix(1 0 0 1 1303.78 1958)">astigos para personas corruptas </text><path d="M1594.43 2005.12C1592.91 2005.12 1591.41 2005.58 1589.95 2006.49 1588.48 2007.41 1587.51 2008.27 1587.03 2009.09 1586.98 2009.3 1586.28 2012.1 1584.92 2017.49 1583.57 2022.87 1583.01 2025.7 1583.23 2025.97 1583.23 2026.88 1583.66 2027.83 1584.51 2028.81 1585.36 2029.79 1586.47 2030.27 1587.83 2030.27 1590.13 2030.27 1592.06 2028.99 1593.64 2026.43 1594.7 2024.64 1595.72 2021.79 1596.7 2017.89 1597.68 2013.99 1598.17 2011.25 1598.17 2009.67 1598.17 2008.05 1597.79 2006.88 1597.02 2006.18 1596.26 2005.47 1595.39 2005.12 1594.43 2005.12ZM1594.79 2002.75C1595.95 2002.75 1597.08 2002.91 1598.18 2003.23 1599.28 2003.55 1600.4 2004.08 1601.52 2004.8 1602.64 2005.53 1603.54 2006.61 1604.2 2008.03 1604.87 2009.46 1605.21 2011.14 1605.21 2013.06 1605.21 2015.19 1604.81 2017.39 1604.02 2019.65 1603.22 2021.91 1602.12 2024.01 1600.7 2025.95 1599.29 2027.9 1597.45 2029.5 1595.2 2030.75 1592.95 2032.01 1590.49 2032.64 1587.83 2032.64 1585.49 2032.64 1583.45 2031.88 1581.69 2030.36L1578.98 2041.15C1580.1 2041.24 1580.97 2041.29 1581.57 2041.29 1583.02 2041.29 1583.74 2041.7 1583.74 2042.53 1583.74 2043.74 1583.17 2044.35 1582.02 2044.35 1581.89 2044.35 1581.54 2044.34 1580.97 2044.32 1580.39 2044.3 1579.61 2044.28 1578.61 2044.26 1577.61 2044.23 1576.53 2044.22 1575.38 2044.22 1573.96 2044.22 1572.84 2044.23 1572.01 2044.26 1571.19 2044.28 1570.63 2044.3 1570.33 2044.32 1570.03 2044.34 1569.84 2044.35 1569.75 2044.35 1568.73 2044.35 1568.22 2043.92 1568.22 2043.05 1568.22 2041.87 1568.86 2041.28 1570.14 2041.28L1570.33 2041.28C1570.71 2041.28 1571.33 2041.24 1572.18 2041.15 1572.28 2040.78 1572.43 2040.2 1572.63 2039.39 1572.83 2038.59 1572.97 2038.02 1573.06 2037.69L1579.74 2011.07C1580.21 2009.15 1580.44 2007.83 1580.44 2007.11 1580.44 2005.83 1580.05 2005.19 1579.26 2005.19 1578.54 2005.19 1577.9 2005.78 1577.32 2006.98 1576.74 2008.17 1576.28 2009.5 1575.92 2010.95 1575.56 2012.4 1575.36 2013.17 1575.32 2013.25 1575.04 2013.68 1574.48 2013.89 1573.64 2013.89 1572.29 2013.89 1571.61 2013.55 1571.61 2012.87 1571.61 2012.74 1571.69 2012.35 1571.84 2011.71 1572 2011.07 1572.27 2010.24 1572.67 2009.22 1573.07 2008.19 1573.57 2007.21 1574.17 2006.27 1574.77 2005.34 1575.57 2004.53 1576.59 2003.84 1577.61 2003.16 1578.72 2002.82 1579.92 2002.82 1582.81 2002.82 1584.96 2003.93 1586.36 2006.15 1589.21 2003.89 1592.02 2002.75 1594.79 2002.75Z" fill="#FFFFFF" fill-rule="evenodd"/><text fill="#000000" fill-opacity="0" font-family="Arial,Arial_MSFontService,sans-serif" font-size="41.6" x="1568.22" y="2039.15">p</text><path d="M1675.24 1993.5 1675.24 1998.19 1653.99 2013.53 1675.24 2028.88 1675.24 2033.56 1649.8 2015.72 1649.8 2011.34ZM1652.99 1993.5 1652.99 1998.19 1631.74 2013.53 1652.99 2028.88 1652.99 2033.56 1627.55 2015.72 1627.55 2011.34Z" fill="#FFFFFF" fill-rule="evenodd"/><text fill="#000000" fill-opacity="0" font-family="Arial,Arial_MSFontService,sans-serif" font-size="40.0625" x="1627.55" y="2028.56">≪</text><path d="M1722.04 2005.12C1719.74 2005.12 1717.79 2006.45 1716.17 2009.09 1715.2 2010.8 1714.21 2013.57 1713.21 2017.41 1712.21 2021.25 1711.71 2024.02 1711.71 2025.73 1711.71 2027.35 1712.08 2028.51 1712.83 2029.22 1713.58 2029.92 1714.42 2030.27 1715.36 2030.27 1716.93 2030.27 1718.41 2029.75 1719.8 2028.7 1721.18 2027.65 1722.09 2026.7 1722.52 2025.84 1722.62 2025.43 1723.33 2022.61 1724.65 2017.38 1725.96 2012.15 1726.62 2009.45 1726.62 2009.28 1726.62 2008.43 1726.2 2007.52 1725.35 2006.56 1724.5 2005.6 1723.39 2005.12 1722.04 2005.12ZM1721.97 2002.75C1724.34 2002.75 1726.41 2003.59 1728.19 2005.25 1728.98 2004.53 1729.95 2003.95 1731.09 2003.52 1732.24 2003.1 1733.02 2002.88 1733.44 2002.88 1734.23 2002.88 1734.62 2003.26 1734.62 2004.02 1734.62 2004.23 1733.9 2007.36 1732.45 2013.4L1725.45 2041.15C1726.53 2041.24 1727.35 2041.28 1727.94 2041.28L1728.19 2041.28C1729.31 2041.28 1729.87 2041.78 1729.87 2042.79 1729.87 2043.83 1729.29 2044.35 1728.12 2044.35 1728 2044.35 1727.35 2044.33 1726.18 2044.29 1725.02 2044.25 1723.33 2044.22 1721.13 2044.22L1719.98 2044.22C1719.22 2044.22 1718.32 2044.25 1717.28 2044.29 1716.24 2044.33 1715.6 2044.35 1715.34 2044.35 1714.15 2044.35 1713.56 2043.92 1713.56 2043.05 1713.56 2042.13 1713.91 2041.57 1714.62 2041.35 1714.79 2041.3 1715.29 2041.28 1716.12 2041.28 1717.04 2041.28 1717.9 2041.2 1718.69 2041.03L1721.27 2030.8C1719.12 2032.03 1717.04 2032.64 1715.03 2032.64 1713.86 2032.64 1712.73 2032.48 1711.63 2032.16 1710.53 2031.84 1709.43 2031.33 1708.33 2030.63 1707.23 2029.92 1706.34 2028.86 1705.67 2027.43 1705.01 2026 1704.67 2024.3 1704.67 2022.34 1704.67 2020.25 1705.06 2018.07 1705.83 2015.81 1706.6 2013.55 1707.68 2011.44 1709.08 2009.47 1710.47 2007.51 1712.29 2005.9 1714.54 2004.64 1716.79 2003.38 1719.27 2002.75 1721.97 2002.75Z" fill="#FFFFFF" fill-rule="evenodd"/><text fill="#000000" fill-opacity="0" font-family="Arial,Arial_MSFontService,sans-serif" font-size="41.6" x="1704.67" y="2039.15">q</text><text fill="#FFFFFF" font-family="CMU Serif,CMU Serif_MSFontService,sans-serif" font-weight="700" font-size="124" transform="matrix(1 0 0 1 803.706 2012)">K</text></g></svg>