<?xml version="1.0" encoding="UTF-8" standalone="no"?>
<svg
   width="1581"
   height="1581"
   viewBox="0 0 1581 1581"
   xml:space="preserve"
   overflow="hidden"
   version="1.1"
   id="svg39"
   sodipodi:docname="Matriz de pagos de México.svg"
   inkscape:version="1.4.3 (0d15f75, 2025-12-25)"
   xmlns:inkscape="http://www.inkscape.org/namespaces/inkscape"
   xmlns:sodipodi="http://sodipodi.sourceforge.net/DTD/sodipodi-0.dtd"
   xmlns="http://www.w3.org/2000/svg"
   xmlns:svg="http://www.w3.org/2000/svg"><sodipodi:namedview
     id="namedview39"
     pagecolor="#ffffff"
     bordercolor="#000000"
     borderopacity="0.25"
     inkscape:showpageshadow="2"
     inkscape:pageopacity="0.0"
     inkscape:pagecheckerboard="0"
     inkscape:deskcolor="#d1d1d1"
     inkscape:zoom="0.50029257"
     inkscape:cx="724.57602"
     inkscape:cy="842.50702"
     inkscape:window-width="1920"
     inkscape:window-height="1057"
     inkscape:window-x="-8"
     inkscape:window-y="-8"
     inkscape:window-maximized="1"
     inkscape:current-layer="svg39" /><defs
     id="defs1"><style
       id="style1">@import url('https://fonts.cdnfonts.com/css/cmu-serif'); text { font-family: 'CMU Serif', serif !important; }</style></defs><g
     transform="translate(-701,-551)"
     id="g39"><path
       d="M 701.572,551.991 H 1017.56 V 867.979 H 701.572 Z"
       fill-rule="evenodd"
       id="path1" /><path
       d="m 1017.56,551.991 h 315.99 v 315.988 h -315.99 z"
       fill-rule="evenodd"
       id="path2" /><path
       d="m 1333.55,551.991 h 315.99 v 315.988 h -315.99 z"
       fill-rule="evenodd"
       id="path3" /><path
       d="m 1649.54,551.991 h 315.98 v 315.988 h -315.98 z"
       fill-rule="evenodd"
       id="path4" /><path
       d="m 1965.52,551.991 h 315.99 v 315.988 h -315.99 z"
       fill-rule="evenodd"
       id="path5" /><path
       d="M 701.572,867.979 H 1017.56 V 1183.97 H 701.572 Z"
       fill-rule="evenodd"
       id="path6" /><path
       d="m 1017.56,867.979 h 631.98 v 631.971 h -631.98 z"
       fill="#262626"
       fill-rule="evenodd"
       id="path7" /><path
       d="m 1649.54,867.979 h 315.98 v 631.971 h -315.98 z"
       fill="#404040"
       fill-rule="evenodd"
       id="path8" /><path
       d="m 1965.52,867.979 h 315.99 v 947.961 h -315.99 z"
       fill="#595959"
       fill-rule="evenodd"
       id="path9" /><path
       d="m 701.572,1183.97 h 315.988 v 315.98 H 701.572 Z"
       fill-rule="evenodd"
       id="path10" /><path
       d="m 701.572,1499.95 h 315.988 v 315.99 H 701.572 Z"
       fill-rule="evenodd"
       id="path11" /><path
       d="m 1017.56,1499.95 h 947.96 v 315.99 h -947.96 z"
       fill="#404040"
       fill-rule="evenodd"
       id="path12" /><path
       d="m 701.572,1815.94 h 315.988 v 315.99 H 701.572 Z"
       fill-rule="evenodd"
       id="path13" /><path
       d="m 1017.56,1815.94 h 1263.95 v 315.99 H 1017.56 Z"
       fill="#595959"
       fill-rule="evenodd"
       id="path14" /><text
       fill="#ffffff"
       font-family="CMU Serif,CMU Serif_MSFontService,sans-serif"
       font-weight="700"
       font-size="124px"
       transform="translate(2067.66,748)"
       id="text14">K</text><text
       fill="#ffffff"
       font-family="CMU Serif,CMU Serif_MSFontService,sans-serif"
       font-weight="700"
       font-size="124px"
       transform="translate(1751.96,748)"
       id="text15">H</text><text
       fill="#ffffff"
       font-family="CMU Serif,CMU Serif_MSFontService,sans-serif"
       font-weight="700"
       font-size="124px"
       transform="translate(1436.83,748)"
       id="text16">D</text><text
       fill="#ffffff"
       font-family="CMU Serif,CMU Serif_MSFontService,sans-serif"
       font-weight="700"
       font-size="124px"
       transform="translate(1124.28,748)"
       id="text17">C</text><g
       id="g18"><text
         fill="#ffffff"
         font-family="CMU Serif,CMU Serif_MSFontService,sans-serif"
         font-style="italic"
         font-weight="400"
         font-size="73px"
         transform="translate(1057.09,1121)"
         id="text18">Predispuesta a la </text></g><text
       fill="#ffffff"
       font-family="CMU Serif,CMU Serif_MSFontService,sans-serif"
       font-style="italic"
       font-weight="700"
       font-size="73px"
       transform="translate(1083.72,1207)"
       id="text19">no</text><text
       fill="#ffffff"
       font-family="CMU Serif,CMU Serif_MSFontService,sans-serif"
       font-style="italic"
       font-weight="400"
       font-size="73px"
       transform="translate(1201.17,1207)"
       id="text20">cooperación</text><path
       d="m 1271.9,1251.27 c 1.31,0 1.97,0.53 1.97,1.59 0,0.29 -0.1,0.72 -0.3,1.29 l -2.83,11.36 h 5.94 c 0.5,0 0.84,0.01 1.04,0.03 0.2,0.03 0.38,0.1 0.56,0.22 0.17,0.12 0.26,0.33 0.26,0.62 0,0.63 -0.16,1.02 -0.48,1.17 -0.32,0.15 -0.85,0.22 -1.59,0.22 h -6.29 l -5.29,21.2 c -0.29,1.45 -0.44,2.76 -0.44,3.95 0,2.12 0.65,3.17 1.96,3.17 1.84,0 3.47,-0.92 4.9,-2.75 1.43,-1.84 2.58,-3.89 3.45,-6.16 0.29,-0.68 0.49,-1.08 0.61,-1.2 0.13,-0.12 0.4,-0.18 0.84,-0.18 0.72,0 1.09,0.24 1.09,0.73 0,0.15 -0.15,0.58 -0.44,1.31 -0.29,0.73 -0.75,1.67 -1.39,2.81 -0.63,1.15 -1.36,2.24 -2.19,3.29 -0.82,1.05 -1.87,1.95 -3.14,2.7 -1.26,0.75 -2.58,1.13 -3.94,1.13 -1.85,0 -3.34,-0.64 -4.49,-1.91 -1.14,-1.28 -1.71,-2.85 -1.71,-4.72 0,-0.66 0.12,-1.47 0.36,-2.42 l 5.23,-20.95 h -5.76 c -0.48,0 -0.82,-0.01 -1.01,-0.04 -0.19,-0.02 -0.37,-0.1 -0.54,-0.22 -0.17,-0.12 -0.25,-0.33 -0.25,-0.62 0,-0.63 0.15,-1.02 0.46,-1.17 0.31,-0.14 0.83,-0.21 1.55,-0.21 h 6.11 l 2.9,-11.61 c 0.49,-1.75 1.43,-2.63 2.85,-2.63 z"
       fill="#ffffff"
       fill-rule="evenodd"
       id="path20" /><text
       fill="#000000"
       fill-opacity="0"
       font-family="Arial,Arial_MSFontService,sans-serif"
       font-size="46.501px"
       x="1258.03"
       y="1291.96"
       id="text21">t</text><path
       d="m 1320.01,1258.35 c 0.16,0 0.54,0.15 1.16,0.44 l 32.12,18.25 c 1.14,0.73 1.72,1.29 1.72,1.68 0,0.39 -0.63,0.9 -1.9,1.53 l -40.62,18.03 c -1.33,0.54 -2.07,0.81 -2.23,0.81 -0.59,0 -0.88,-0.25 -0.88,-0.73 0,-0.44 0.54,-0.86 1.61,-1.25 0.17,-0.07 0.31,-0.13 0.4,-0.17 l 36.81,-16.34 c 0.35,-0.16 0.81,-0.36 1.36,-0.61 0.56,-0.24 1.09,-0.48 1.6,-0.71 0.51,-0.22 0.99,-0.44 1.44,-0.63 v -0.08 c -0.49,-0.25 -2.16,-1.19 -5.01,-2.84 l -27.11,-15.41 c -0.83,-0.44 -1.24,-0.87 -1.24,-1.31 0,-0.44 0.25,-0.66 0.77,-0.66 z"
       fill="#ffffff"
       fill-rule="evenodd"
       id="path21" /><text
       fill="#000000"
       fill-opacity="0"
       font-family="Arial,Arial_MSFontService,sans-serif"
       font-size="40.7339px"
       x="1309.38"
       y="1293.99"
       id="text22">&gt;</text><path
       d="m 1398.45,1264.7 c 1.36,0 2.62,0.43 3.76,1.29 1.14,0.86 1.91,2.19 2.3,4 2.53,-3.52 5.47,-5.29 8.83,-5.29 1.74,0 3.39,0.36 4.96,1.07 1.56,0.71 2.34,1.9 2.34,3.57 0,1.25 -0.4,2.21 -1.19,2.86 -0.8,0.65 -1.62,0.97 -2.47,0.97 -0.9,0 -1.56,-0.24 -1.98,-0.72 -0.42,-0.48 -0.64,-1.01 -0.64,-1.59 0,-0.24 0.05,-0.54 0.15,-0.9 0.1,-0.36 0.38,-0.82 0.83,-1.38 0.44,-0.55 1.07,-0.95 1.86,-1.19 -0.99,-0.67 -2.3,-1.01 -3.93,-1.01 -1.17,0 -2.3,0.31 -3.4,0.94 -1.09,0.63 -1.99,1.33 -2.7,2.11 -0.7,0.79 -1.35,1.67 -1.93,2.66 -0.58,0.98 -0.97,1.7 -1.17,2.14 -0.19,0.45 -0.34,0.79 -0.44,1.01 l -4.74,19.28 c -0.44,2.17 -1.39,3.25 -2.85,3.25 -0.68,0 -1.19,-0.19 -1.53,-0.58 -0.34,-0.39 -0.51,-0.83 -0.51,-1.32 0,-0.24 0.07,-0.58 0.22,-1.02 l 5.47,-21.9 c 0.34,-1.35 0.51,-2.57 0.51,-3.68 0,-1.93 -0.63,-2.89 -1.9,-2.89 -1.07,0 -1.98,0.73 -2.73,2.18 -0.76,1.45 -1.5,3.6 -2.23,6.45 -0.19,0.77 -0.35,1.24 -0.47,1.41 -0.13,0.17 -0.43,0.25 -0.92,0.25 -0.73,0 -1.09,-0.24 -1.09,-0.73 0,-0.09 0.1,-0.52 0.29,-1.27 0.19,-0.76 0.49,-1.74 0.88,-2.96 0.39,-1.22 0.77,-2.26 1.16,-3.14 1.37,-2.58 3.12,-3.87 5.26,-3.87 z"
       fill="#ffffff"
       fill-rule="evenodd"
       id="path22" /><text
       fill="#000000"
       fill-opacity="0"
       font-family="Arial,Arial_MSFontService,sans-serif"
       font-size="33.069px"
       x="1390.86"
       y="1293.64"
       id="text23">r</text><text
       fill="#ffffff"
       font-family="CMU Serif,CMU Serif_MSFontService,sans-serif"
       font-weight="700"
       font-size="124px"
       transform="translate(808.289,1064)"
       id="text24">C</text><text
       fill="#ffffff"
       font-family="CMU Serif,CMU Serif_MSFontService,sans-serif"
       font-weight="700"
       font-size="124px"
       transform="translate(804.852,1380)"
       id="text25">D</text><text
       fill="#ffffff"
       font-family="CMU Serif,CMU Serif_MSFontService,sans-serif"
       font-style="italic"
       font-weight="400"
       font-size="73px"
       transform="translate(1119.24,1639)"
       id="text26">Bajo estado de derecho </text><text
       fill="#ffffff"
       font-family="Latin Modern Math,Latin Modern Math_MSFontService,sans-serif"
       font-style="oblique"
       font-weight="700"
       font-size="73px"
       transform="translate(1400.79,1727)"
       id="text27">c</text><text
       fill="#ffffff"
       font-family="Cambria Math,Cambria Math_MSFontService,sans-serif"
       font-weight="400"
       font-size="73px"
       transform="translate(1455.54,1727)"
       id="text28">≫</text><text
       fill="#ffffff"
       font-family="Cambria Math,Cambria Math_MSFontService,sans-serif"
       font-weight="400"
       font-size="73px"
       transform="translate(1541.23,1727)"
       id="text29">0</text><text
       fill="#ffffff"
       font-family="CMU Serif,CMU Serif_MSFontService,sans-serif"
       font-weight="700"
       font-size="124px"
       transform="translate(803.993,1696)"
       id="text30">H</text><text
       fill="#ffffff"
       font-family="CMU Serif,CMU Serif_MSFontService,sans-serif"
       font-style="italic"
       font-weight="400"
       font-size="64px"
       transform="translate(1100.68,1958)"
       id="text31">Bajos</text><text
       fill="#ffffff"
       font-family="CMU Serif,CMU Serif_MSFontService,sans-serif"
       font-style="italic"
       font-weight="400"
       font-size="64px"
       transform="translate(1280,1958)"
       id="text32">c</text><text
       fill="#ffffff"
       font-family="CMU Serif,CMU Serif_MSFontService,sans-serif"
       font-style="italic"
       font-weight="400"
       font-size="64px"
       transform="translate(1309.8,1958)"
       id="text33">astigos para personas corruptas </text><text
       fill="#ffffff"
       font-family="CMU Serif,CMU Serif_MSFontService,sans-serif"
       font-style="italic"
       font-weight="700"
       font-size="64px"
       transform="translate(1562.73,2032)"
       id="text34">p</text><text
       fill="#ffffff"
       font-family="CMU Serif,CMU Serif_MSFontService,sans-serif"
       font-style="italic"
       font-weight="700"
       font-size="64px"
       transform="translate(1601.11,2032)"
       id="text35"> </text><text
       fill="#ffffff"
       font-family="Latin Modern Math,Latin Modern Math_MSFontService,sans-serif"
       font-style="oblique"
       font-weight="700"
       font-size="64px"
       transform="translate(1627.47,2032)"
       id="text36">&gt;</text><text
       fill="#ffffff"
       font-family="Latin Modern Math,Latin Modern Math_MSFontService,sans-serif"
       font-style="oblique"
       font-weight="700"
       font-size="64px"
       transform="translate(1679.03,2032)"
       id="text37"> </text><text
       fill="#ffffff"
       font-family="CMU Serif,CMU Serif_MSFontService,sans-serif"
       font-style="italic"
       font-weight="700"
       font-size="64px"
       transform="translate(1701.95,2032)"
       id="text38">q</text><text
       fill="#ffffff"
       font-family="CMU Serif,CMU Serif_MSFontService,sans-serif"
       font-weight="700"
       font-size="124px"
       transform="translate(803.706,2012)"
       id="text39">K</text></g></svg>
