<svg width="702" height="703" xmlns="http://www.w3.org/2000/svg" xmlns:xlink="http://www.w3.org/1999/xlink" xml:space="preserve" overflow="hidden"><g transform="translate(-1243 -401)"><path d="M1243.09 401.952 1353.83 401.952 1353.83 512.686 1243.09 512.686Z" fill-rule="evenodd"/><path d="M1353.83 401.952 1501.53 401.952 1501.53 512.686 1353.83 512.686Z" fill-rule="evenodd"/><path d="M1501.53 401.952 1649.23 401.952 1649.23 512.686 1501.53 512.686Z" fill-rule="evenodd"/><path d="M1649.23 401.952 1796.92 401.952 1796.92 512.686 1649.23 512.686Z" fill-rule="evenodd"/><path d="M1796.92 401.952 1944.62 401.952 1944.62 512.686 1796.92 512.686Z" fill-rule="evenodd"/><path d="M1243.09 512.686 1353.83 512.686 1353.83 660.384 1243.09 660.384Z" fill-rule="evenodd"/><path d="M1353.83 512.686 1501.53 512.686 1501.53 660.384 1353.83 660.384Z" fill="#A6A6A6" fill-rule="evenodd"/><path d="M1501.53 512.686 1649.23 512.686 1649.23 660.384 1501.53 660.384Z" fill="#A6A6A6" fill-rule="evenodd"/><path d="M1649.23 512.686 1796.92 512.686 1796.92 660.384 1649.23 660.384Z" fill="#BFBFBF" fill-rule="evenodd"/><path d="M1796.92 512.686 1944.62 512.686 1944.62 660.384 1796.92 660.384Z" fill="#D9D9D9" fill-rule="evenodd"/><path d="M1243.09 660.384 1353.83 660.384 1353.83 808.082 1243.09 808.082Z" fill-rule="evenodd"/><path d="M1353.83 660.384 1501.53 660.384 1501.53 808.082 1353.83 808.082Z" fill="#A6A6A6" fill-rule="evenodd"/><path d="M1501.53 660.384 1649.23 660.384 1649.23 808.082 1501.53 808.082Z" fill="#A6A6A6" fill-rule="evenodd"/><path d="M1649.23 660.384 1796.92 660.384 1796.92 808.082 1649.23 808.082Z" fill="#BFBFBF" fill-rule="evenodd"/><path d="M1796.92 660.384 1944.62 660.384 1944.62 808.082 1796.92 808.082Z" fill="#D9D9D9" fill-rule="evenodd"/><path d="M1243.09 808.082 1353.83 808.082 1353.83 955.781 1243.09 955.781Z" fill-rule="evenodd"/><path d="M1353.83 808.082 1501.53 808.082 1501.53 955.781 1353.83 955.781Z" fill="#BFBFBF" fill-rule="evenodd"/><path d="M1501.53 808.082 1649.23 808.082 1649.23 955.781 1501.53 955.781Z" fill="#BFBFBF" fill-rule="evenodd"/><path d="M1649.23 808.082 1796.92 808.082 1796.92 955.781 1649.23 955.781Z" fill="#BFBFBF" fill-rule="evenodd"/><path d="M1796.92 808.082 1944.62 808.082 1944.62 955.781 1796.92 955.781Z" fill="#D9D9D9" fill-rule="evenodd"/><path d="M1243.09 955.781 1353.83 955.781 1353.83 1103.48 1243.09 1103.48Z" fill-rule="evenodd"/><path d="M1353.83 955.781 1501.53 955.781 1501.53 1103.48 1353.83 1103.48Z" fill="#D9D9D9" fill-rule="evenodd"/><path d="M1501.53 955.781 1649.23 955.781 1649.23 1103.48 1501.53 1103.48Z" fill="#D9D9D9" fill-rule="evenodd"/><path d="M1649.23 955.781 1796.92 955.781 1796.92 1103.48 1649.23 1103.48Z" fill="#D9D9D9" fill-rule="evenodd"/><path d="M1796.92 955.781 1944.62 955.781 1944.62 1103.48 1796.92 1103.48Z" fill="#D9D9D9" fill-rule="evenodd"/><text fill="#FFFFFF" font-family="CMU Serif,CMU Serif_MSFontService,sans-serif" font-weight="700" font-size="50" transform="matrix(1 0 0 1 1848.14 473)">K</text><text fill="#FFFFFF" font-family="CMU Serif,CMU Serif_MSFontService,sans-serif" font-weight="700" font-size="50" transform="matrix(1 0 0 1 1700.44 473)">H</text><text fill="#FFFFFF" font-family="CMU Serif,CMU Serif_MSFontService,sans-serif" font-weight="700" font-size="50" transform="matrix(1 0 0 1 1553.03 473)">D</text><text fill="#FFFFFF" font-family="CMU Serif,CMU Serif_MSFontService,sans-serif" font-weight="700" font-size="50" transform="matrix(1 0 0 1 1406.77 473)">C</text><text font-family="CMU Serif,CMU Serif_MSFontService,sans-serif" font-weight="400" font-size="50" transform="matrix(1 0 0 1 1849.86 604)">-</text><text font-family="CMU Serif,CMU Serif_MSFontService,sans-serif" font-weight="400" font-size="50" transform="matrix(1 0 0 1 1866.48 604)">1</text><text font-family="CMU Serif,CMU Serif_MSFontService,sans-serif" font-weight="400" font-size="50" transform="matrix(1 0 0 1 1710.47 604)">2</text><text font-family="CMU Serif,CMU Serif_MSFontService,sans-serif" font-weight="400" font-size="50" transform="matrix(1 0 0 1 1554.46 604)">-</text><text font-family="CMU Serif,CMU Serif_MSFontService,sans-serif" font-weight="400" font-size="50" transform="matrix(1 0 0 1 1571.08 604)">1</text><text font-family="CMU Serif,CMU Serif_MSFontService,sans-serif" font-weight="400" font-size="50" transform="matrix(1 0 0 1 1415.07 604)">2</text><text fill="#FFFFFF" font-family="CMU Serif,CMU Serif_MSFontService,sans-serif" font-weight="700" font-size="50" transform="matrix(1 0 0 1 1277.55 602)">C</text><text font-family="CMU Serif,CMU Serif_MSFontService,sans-serif" font-weight="400" font-size="50" transform="matrix(1 0 0 1 1837.26 752)">-</text><text font-family="CMU Serif,CMU Serif_MSFontService,sans-serif" font-weight="400" font-size="50" transform="matrix(1 0 0 1 1853.87 752)">10</text><text font-family="CMU Serif,CMU Serif_MSFontService,sans-serif" font-weight="400" font-size="50" transform="matrix(1 0 0 1 1702.16 752)">-</text><text font-family="CMU Serif,CMU Serif_MSFontService,sans-serif" font-weight="400" font-size="50" transform="matrix(1 0 0 1 1718.78 752)">6</text><text font-family="CMU Serif,CMU Serif_MSFontService,sans-serif" font-weight="400" font-size="50" transform="matrix(1 0 0 1 1562.77 752)">0</text><text font-family="CMU Serif,CMU Serif_MSFontService,sans-serif" font-weight="400" font-size="50" transform="matrix(1 0 0 1 1415.07 752)">4</text><text fill="#FFFFFF" font-family="CMU Serif,CMU Serif_MSFontService,sans-serif" font-weight="700" font-size="50" transform="matrix(1 0 0 1 1276.12 750)">D</text><text font-family="CMU Serif,CMU Serif_MSFontService,sans-serif" font-weight="400" font-size="50" transform="matrix(1 0 0 1 1830.38 900)">-</text><text font-family="CMU Serif,CMU Serif_MSFontService,sans-serif" font-weight="400" font-size="50" transform="matrix(1 0 0 1 1847 900)">1.2</text><text font-family="CMU Serif,CMU Serif_MSFontService,sans-serif" font-weight="400" font-size="50" transform="matrix(1 0 0 1 1710.47 900)">2</text><text font-family="CMU Serif,CMU Serif_MSFontService,sans-serif" font-weight="400" font-size="50" transform="matrix(1 0 0 1 1534.99 900)">-</text><text font-family="CMU Serif,CMU Serif_MSFontService,sans-serif" font-weight="400" font-size="50" transform="matrix(1 0 0 1 1551.6 900)">1.2</text><text font-family="CMU Serif,CMU Serif_MSFontService,sans-serif" font-weight="400" font-size="50" transform="matrix(1 0 0 1 1415.07 900)">2</text><text fill="#FFFFFF" font-family="CMU Serif,CMU Serif_MSFontService,sans-serif" font-weight="700" font-size="50" transform="matrix(1 0 0 1 1275.83 898)">H</text><g><text font-family="CMU Serif,CMU Serif_MSFontService,sans-serif" font-weight="400" font-size="50" transform="matrix(1 0 0 1 1817.78 1047)">-</text></g><g><text font-family="CMU Serif,CMU Serif_MSFontService,sans-serif" font-weight="400" font-size="50" transform="matrix(1 0 0 1 1834.39 1047)">15.2</text></g><text font-family="CMU Serif,CMU Serif_MSFontService,sans-serif" font-weight="400" font-size="50" transform="matrix(1 0 0 1 1689.56 1047)">-</text><text font-family="CMU Serif,CMU Serif_MSFontService,sans-serif" font-weight="400" font-size="50" transform="matrix(1 0 0 1 1706.17 1047)">11</text><text font-family="CMU Serif,CMU Serif_MSFontService,sans-serif" font-weight="400" font-size="50" transform="matrix(1 0 0 1 1534.99 1047)">-</text><text font-family="CMU Serif,CMU Serif_MSFontService,sans-serif" font-weight="400" font-size="50" transform="matrix(1 0 0 1 1551.6 1047)">0.2</text><text font-family="CMU Serif,CMU Serif_MSFontService,sans-serif" font-weight="400" font-size="50" transform="matrix(1 0 0 1 1415.07 1047)">4</text><text fill="#FFFFFF" font-family="CMU Serif,CMU Serif_MSFontService,sans-serif" font-weight="700" font-size="50" transform="matrix(1 0 0 1 1275.83 1045)">K</text></g></svg>