<svg width="702" height="703" xmlns="http://www.w3.org/2000/svg" xmlns:xlink="http://www.w3.org/1999/xlink" xml:space="preserve" overflow="hidden"><g transform="translate(-232 -401)"><path d="M232.409 401.952 343.143 401.952 343.143 512.686 232.409 512.686Z" fill-rule="evenodd"/><path d="M343.143 401.952 490.841 401.952 490.841 512.686 343.143 512.686Z" fill-rule="evenodd"/><path d="M490.841 401.952 638.54 401.952 638.54 512.686 490.841 512.686Z" fill-rule="evenodd"/><path d="M638.54 401.952 786.238 401.952 786.238 512.686 638.54 512.686Z" fill-rule="evenodd"/><path d="M786.238 401.952 933.936 401.952 933.936 512.686 786.238 512.686Z" fill-rule="evenodd"/><path d="M232.409 512.686 343.143 512.686 343.143 660.384 232.409 660.384Z" fill-rule="evenodd"/><path d="M343.143 512.686 490.841 512.686 490.841 660.384 343.143 660.384Z" fill="#A6A6A6" fill-rule="evenodd"/><path d="M490.841 512.686 638.54 512.686 638.54 660.384 490.841 660.384Z" fill="#A6A6A6" fill-rule="evenodd"/><path d="M638.54 512.686 786.238 512.686 786.238 660.384 638.54 660.384Z" fill="#BFBFBF" fill-rule="evenodd"/><path d="M786.238 512.686 933.936 512.686 933.936 660.384 786.238 660.384Z" fill="#D9D9D9" fill-rule="evenodd"/><path d="M232.409 660.384 343.143 660.384 343.143 808.082 232.409 808.082Z" fill-rule="evenodd"/><path d="M343.143 660.384 490.841 660.384 490.841 808.082 343.143 808.082Z" fill="#A6A6A6" fill-rule="evenodd"/><path d="M490.841 660.384 638.54 660.384 638.54 808.082 490.841 808.082Z" fill="#A6A6A6" fill-rule="evenodd"/><path d="M638.54 660.384 786.238 660.384 786.238 808.082 638.54 808.082Z" fill="#BFBFBF" fill-rule="evenodd"/><path d="M786.238 660.384 933.936 660.384 933.936 808.082 786.238 808.082Z" fill="#D9D9D9" fill-rule="evenodd"/><path d="M232.409 808.082 343.143 808.082 343.143 955.781 232.409 955.781Z" fill-rule="evenodd"/><path d="M343.143 808.082 490.841 808.082 490.841 955.781 343.143 955.781Z" fill="#BFBFBF" fill-rule="evenodd"/><path d="M490.841 808.082 638.54 808.082 638.54 955.781 490.841 955.781Z" fill="#BFBFBF" fill-rule="evenodd"/><path d="M638.54 808.082 786.238 808.082 786.238 955.781 638.54 955.781Z" fill="#BFBFBF" fill-rule="evenodd"/><path d="M786.238 808.082 933.936 808.082 933.936 955.781 786.238 955.781Z" fill="#D9D9D9" fill-rule="evenodd"/><path d="M232.409 955.781 343.143 955.781 343.143 1103.48 232.409 1103.48Z" fill-rule="evenodd"/><path d="M343.143 955.781 490.841 955.781 490.841 1103.48 343.143 1103.48Z" fill="#D9D9D9" fill-rule="evenodd"/><path d="M490.841 955.781 638.54 955.781 638.54 1103.48 490.841 1103.48Z" fill="#D9D9D9" fill-rule="evenodd"/><path d="M638.54 955.781 786.238 955.781 786.238 1103.48 638.54 1103.48Z" fill="#D9D9D9" fill-rule="evenodd"/><path d="M786.238 955.781 933.936 955.781 933.936 1103.48 786.238 1103.48Z" fill="#D9D9D9" fill-rule="evenodd"/><text fill="#FFFFFF" font-family="CMU Serif,CMU Serif_MSFontService,sans-serif" font-weight="700" font-size="50" transform="matrix(1 0 0 1 837.457 473)">K</text><text fill="#FFFFFF" font-family="CMU Serif,CMU Serif_MSFontService,sans-serif" font-weight="700" font-size="50" transform="matrix(1 0 0 1 689.758 473)">H</text><text fill="#FFFFFF" font-family="CMU Serif,CMU Serif_MSFontService,sans-serif" font-weight="700" font-size="50" transform="matrix(1 0 0 1 542.346 473)">D</text><text fill="#FFFFFF" font-family="CMU Serif,CMU Serif_MSFontService,sans-serif" font-weight="700" font-size="50" transform="matrix(1 0 0 1 396.08 473)">C</text><text font-family="CMU Serif,CMU Serif_MSFontService,sans-serif" font-weight="400" font-size="50" transform="matrix(1 0 0 1 839.176 604)">-</text><text font-family="CMU Serif,CMU Serif_MSFontService,sans-serif" font-weight="400" font-size="50" transform="matrix(1 0 0 1 855.79 604)">1</text><text font-family="CMU Serif,CMU Serif_MSFontService,sans-serif" font-weight="400" font-size="50" transform="matrix(1 0 0 1 680.305 604)">2.5</text><text font-family="CMU Serif,CMU Serif_MSFontService,sans-serif" font-weight="400" font-size="50" transform="matrix(1 0 0 1 543.779 604)">-</text><text font-family="CMU Serif,CMU Serif_MSFontService,sans-serif" font-weight="400" font-size="50" transform="matrix(1 0 0 1 560.393 604)">1</text><text font-family="CMU Serif,CMU Serif_MSFontService,sans-serif" font-weight="400" font-size="50" transform="matrix(1 0 0 1 384.908 604)">2.5</text><text fill="#FFFFFF" font-family="CMU Serif,CMU Serif_MSFontService,sans-serif" font-weight="700" font-size="50" transform="matrix(1 0 0 1 266.864 602)">C</text><text font-family="CMU Serif,CMU Serif_MSFontService,sans-serif" font-weight="400" font-size="50" transform="matrix(1 0 0 1 839.176 752)">-</text><text font-family="CMU Serif,CMU Serif_MSFontService,sans-serif" font-weight="400" font-size="50" transform="matrix(1 0 0 1 855.79 752)">8</text><text font-family="CMU Serif,CMU Serif_MSFontService,sans-serif" font-weight="400" font-size="50" transform="matrix(1 0 0 1 691.477 752)">-</text><text font-family="CMU Serif,CMU Serif_MSFontService,sans-serif" font-weight="400" font-size="50" transform="matrix(1 0 0 1 708.092 752)">5</text><text font-family="CMU Serif,CMU Serif_MSFontService,sans-serif" font-weight="400" font-size="50" transform="matrix(1 0 0 1 552.086 752)">0</text><text font-family="CMU Serif,CMU Serif_MSFontService,sans-serif" font-weight="400" font-size="50" transform="matrix(1 0 0 1 404.674 752)">3</text><text fill="#FFFFFF" font-family="CMU Serif,CMU Serif_MSFontService,sans-serif" font-weight="700" font-size="50" transform="matrix(1 0 0 1 265.432 750)">D</text><text font-family="CMU Serif,CMU Serif_MSFontService,sans-serif" font-weight="400" font-size="50" transform="matrix(1 0 0 1 819.696 900)">-</text><text font-family="CMU Serif,CMU Serif_MSFontService,sans-serif" font-weight="400" font-size="50" transform="matrix(1 0 0 1 836.311 900)">1.5</text><text font-family="CMU Serif,CMU Serif_MSFontService,sans-serif" font-weight="400" font-size="50" transform="matrix(1 0 0 1 680.305 900)">2.5</text><text font-family="CMU Serif,CMU Serif_MSFontService,sans-serif" font-weight="400" font-size="50" transform="matrix(1 0 0 1 524.3 900)">-</text><text font-family="CMU Serif,CMU Serif_MSFontService,sans-serif" font-weight="400" font-size="50" transform="matrix(1 0 0 1 540.914 900)">1.2</text><text font-family="CMU Serif,CMU Serif_MSFontService,sans-serif" font-weight="400" font-size="50" transform="matrix(1 0 0 1 384.908 900)">2.5</text><text fill="#FFFFFF" font-family="CMU Serif,CMU Serif_MSFontService,sans-serif" font-weight="700" font-size="50" transform="matrix(1 0 0 1 265.146 898)">H</text><g><text font-family="CMU Serif,CMU Serif_MSFontService,sans-serif" font-weight="400" font-size="50" transform="matrix(1 0 0 1 807.092 1047)">-</text></g><g><text font-family="CMU Serif,CMU Serif_MSFontService,sans-serif" font-weight="400" font-size="50" transform="matrix(1 0 0 1 823.707 1047)">11.5</text></g><text font-family="CMU Serif,CMU Serif_MSFontService,sans-serif" font-weight="400" font-size="50" transform="matrix(1 0 0 1 691.477 1047)">-</text><text font-family="CMU Serif,CMU Serif_MSFontService,sans-serif" font-weight="400" font-size="50" transform="matrix(1 0 0 1 708.092 1047)">8</text><text font-family="CMU Serif,CMU Serif_MSFontService,sans-serif" font-weight="400" font-size="50" transform="matrix(1 0 0 1 524.3 1047)">-</text><text font-family="CMU Serif,CMU Serif_MSFontService,sans-serif" font-weight="400" font-size="50" transform="matrix(1 0 0 1 540.914 1047)">0.2</text><text font-family="CMU Serif,CMU Serif_MSFontService,sans-serif" font-weight="400" font-size="50" transform="matrix(1 0 0 1 404.674 1047)">3</text><text fill="#FFFFFF" font-family="CMU Serif,CMU Serif_MSFontService,sans-serif" font-weight="700" font-size="50" transform="matrix(1 0 0 1 265.146 1045)">K</text></g></svg>