<svg width="1581" height="1581" viewBox="0 0 1581 1581" xmlns="http://www.w3.org/2000/svg" xmlns:xlink="http://www.w3.org/1999/xlink" xml:space="preserve" overflow="hidden"><defs><style>@import url('https://fonts.cdnfonts.com/css/cmu-serif'); text { font-family: 'CMU Serif', serif !important; }</style></defs><g transform="translate(-701 -551)"><path d="M701.572 551.991 1017.56 551.991 1017.56 867.979 701.572 867.979Z" fill-rule="evenodd"/><path d="M1017.56 551.991 1333.55 551.991 1333.55 867.979 1017.56 867.979Z" fill-rule="evenodd"/><path d="M1333.55 551.991 1649.54 551.991 1649.54 867.979 1333.55 867.979Z" fill-rule="evenodd"/><path d="M1649.54 551.991 1965.52 551.991 1965.52 867.979 1649.54 867.979Z" fill-rule="evenodd"/><path d="M1965.52 551.991 2281.51 551.991 2281.51 867.979 1965.52 867.979Z" fill-rule="evenodd"/><path d="M701.572 867.979 1017.56 867.979 1017.56 1183.97 701.572 1183.97Z" fill-rule="evenodd"/><path d="M1017.56 867.979 1649.54 867.979 1649.54 1499.95 1017.56 1499.95Z" fill="#262626" fill-rule="evenodd"/><path d="M1649.54 867.979 1965.52 867.979 1965.52 1499.95 1649.54 1499.95Z" fill="#404040" fill-rule="evenodd"/><path d="M1965.52 867.979 2281.51 867.979 2281.51 1815.94 1965.52 1815.94Z" fill="#595959" fill-rule="evenodd"/><path d="M701.572 1183.97 1017.56 1183.97 1017.56 1499.95 701.572 1499.95Z" fill-rule="evenodd"/><path d="M701.572 1499.95 1017.56 1499.95 1017.56 1815.94 701.572 1815.94Z" fill-rule="evenodd"/><path d="M1017.56 1499.95 1965.52 1499.95 1965.52 1815.94 1017.56 1815.94Z" fill="#404040" fill-rule="evenodd"/><path d="M701.572 1815.94 1017.56 1815.94 1017.56 2131.93 701.572 2131.93Z" fill-rule="evenodd"/><path d="M1017.56 1815.94 2281.51 1815.94 2281.51 2131.93 1017.56 2131.93Z" fill="#595959" fill-rule="evenodd"/><text fill="#FFFFFF" font-family="CMU Serif,CMU Serif_MSFontService,sans-serif" font-weight="700" font-size="124" transform="matrix(1 0 0 1 2067.66 748)">K</text><text fill="#FFFFFF" font-family="CMU Serif,CMU Serif_MSFontService,sans-serif" font-weight="700" font-size="124" transform="matrix(1 0 0 1 1751.96 748)">H</text><text fill="#FFFFFF" font-family="CMU Serif,CMU Serif_MSFontService,sans-serif" font-weight="700" font-size="124" transform="matrix(1 0 0 1 1436.83 748)">D</text><text fill="#FFFFFF" font-family="CMU Serif,CMU Serif_MSFontService,sans-serif" font-weight="700" font-size="124" transform="matrix(1 0 0 1 1124.28 748)">C</text><g><text fill="#FFFFFF" font-family="CMU Serif,CMU Serif_MSFontService,sans-serif" font-style="italic" font-weight="400" font-size="73" transform="matrix(1 0 0 1 1057.09 1121)">Predispuesta a la </text></g><text fill="#FFFFFF" font-family="CMU Serif,CMU Serif_MSFontService,sans-serif" font-style="italic" font-weight="400" font-size="73" transform="matrix(1 0 0 1 1142.46 1209)">cooperación</text><path d="M1272.47 1251.27C1273.78 1251.27 1274.44 1251.8 1274.44 1252.86 1274.44 1253.15 1274.34 1253.58 1274.15 1254.15L1271.32 1265.51 1277.26 1265.51C1277.75 1265.51 1278.1 1265.52 1278.29 1265.54 1278.49 1265.57 1278.68 1265.64 1278.85 1265.76 1279.02 1265.88 1279.11 1266.09 1279.11 1266.38 1279.11 1267.01 1278.95 1267.4 1278.63 1267.55 1278.31 1267.7 1277.78 1267.77 1277.04 1267.77L1270.75 1267.77 1265.46 1288.97C1265.17 1290.42 1265.02 1291.73 1265.02 1292.92 1265.02 1295.04 1265.68 1296.09 1266.98 1296.09 1268.82 1296.09 1270.45 1295.17 1271.88 1293.34 1273.31 1291.5 1274.46 1289.45 1275.33 1287.18 1275.62 1286.5 1275.83 1286.1 1275.95 1285.98 1276.07 1285.86 1276.35 1285.8 1276.78 1285.8 1277.51 1285.8 1277.87 1286.04 1277.87 1286.53 1277.87 1286.68 1277.72 1287.11 1277.43 1287.84 1277.14 1288.57 1276.68 1289.51 1276.05 1290.65 1275.41 1291.8 1274.68 1292.89 1273.86 1293.94 1273.03 1294.99 1271.98 1295.89 1270.72 1296.64 1269.45 1297.39 1268.14 1297.77 1266.77 1297.77 1264.93 1297.77 1263.43 1297.13 1262.28 1295.86 1261.14 1294.58 1260.57 1293.01 1260.57 1291.14 1260.57 1290.48 1260.69 1289.67 1260.93 1288.72L1266.16 1267.77 1260.4 1267.77C1259.92 1267.77 1259.58 1267.76 1259.39 1267.73 1259.2 1267.71 1259.02 1267.63 1258.85 1267.51 1258.68 1267.39 1258.6 1267.18 1258.6 1266.89 1258.6 1266.26 1258.75 1265.87 1259.07 1265.72 1259.38 1265.58 1259.89 1265.51 1260.61 1265.51L1266.73 1265.51 1269.62 1253.9C1270.11 1252.15 1271.06 1251.27 1272.47 1251.27Z" fill="#FFFFFF" fill-rule="evenodd"/><text fill="#000000" fill-opacity="0" font-family="Arial,Arial_MSFontService,sans-serif" font-size="46.501" x="1258.6" y="1291.96">t</text><path d="M1323.64 1286.63C1326.49 1286.63 1329.46 1287.88 1332.56 1290.37 1335.66 1292.87 1338.23 1294.12 1340.27 1294.12 1342.29 1294.12 1344.16 1293.58 1345.88 1292.51 1347.59 1291.44 1349.53 1289.78 1351.67 1287.52L1353.87 1289.45C1352.13 1291.56 1349.79 1293.7 1346.85 1295.85 1343.91 1298 1340.86 1299.07 1337.69 1299.07 1334.65 1299.07 1331.6 1297.82 1328.54 1295.33 1325.48 1292.83 1322.92 1291.59 1320.85 1291.59 1319.11 1291.59 1317.41 1292.13 1315.73 1293.23 1314.05 1294.32 1312.36 1295.91 1310.65 1298L1308.4 1296.43C1310.57 1293.63 1312.96 1291.3 1315.59 1289.43 1318.22 1287.56 1320.9 1286.63 1323.64 1286.63ZM1324.42 1249.2 1363.11 1264.57 1361.41 1269.56 1312.28 1284.92 1314.09 1279.57 1357.2 1267.06 1322.6 1254.55Z" fill="#FFFFFF" fill-rule="evenodd"/><text fill="#000000" fill-opacity="0" font-family="Arial,Arial_MSFontService,sans-serif" font-size="49.8667" x="1308.4" y="1292.84">≳</text><path d="M1397.88 1264.7C1399.24 1264.7 1400.49 1265.13 1401.64 1265.99 1402.78 1266.85 1403.55 1268.18 1403.94 1269.99 1406.47 1266.47 1409.41 1264.7 1412.77 1264.7 1414.51 1264.7 1416.16 1265.06 1417.72 1265.77 1419.29 1266.48 1420.07 1267.67 1420.07 1269.34 1420.07 1270.59 1419.67 1271.55 1418.87 1272.2 1418.08 1272.85 1417.25 1273.17 1416.41 1273.17 1415.51 1273.17 1414.85 1272.93 1414.43 1272.45 1414 1271.97 1413.79 1271.44 1413.79 1270.86 1413.79 1270.62 1413.84 1270.32 1413.94 1269.96 1414.04 1269.6 1414.31 1269.14 1414.76 1268.58 1415.21 1268.03 1415.83 1267.63 1416.63 1267.39 1415.64 1266.72 1414.33 1266.38 1412.7 1266.38 1411.53 1266.38 1410.4 1266.69 1409.3 1267.32 1408.21 1267.95 1407.31 1268.65 1406.6 1269.43 1405.9 1270.22 1405.25 1271.1 1404.67 1272.09 1404.08 1273.07 1403.69 1273.79 1403.5 1274.23 1403.3 1274.68 1403.16 1275.02 1403.06 1275.24L1398.32 1294.52C1397.88 1296.69 1396.93 1297.77 1395.47 1297.77 1394.79 1297.77 1394.28 1297.58 1393.94 1297.19 1393.59 1296.8 1393.42 1296.36 1393.42 1295.87 1393.42 1295.63 1393.5 1295.29 1393.64 1294.85L1399.12 1272.95C1399.46 1271.6 1399.63 1270.38 1399.63 1269.27 1399.63 1267.34 1399 1266.38 1397.73 1266.38 1396.66 1266.38 1395.75 1267.11 1394.99 1268.56 1394.24 1270.01 1393.5 1272.16 1392.77 1275.01 1392.57 1275.78 1392.41 1276.25 1392.29 1276.42 1392.17 1276.59 1391.87 1276.67 1391.38 1276.67 1390.65 1276.67 1390.29 1276.43 1390.29 1275.94 1390.29 1275.85 1390.38 1275.42 1390.58 1274.67 1390.77 1273.91 1391.06 1272.93 1391.45 1271.71 1391.84 1270.49 1392.23 1269.45 1392.62 1268.57 1393.98 1265.99 1395.74 1264.7 1397.88 1264.7Z" fill="#FFFFFF" fill-rule="evenodd"/><text fill="#000000" fill-opacity="0" font-family="Arial,Arial_MSFontService,sans-serif" font-size="33.069" x="1390.29" y="1293.64">r</text><text fill="#FFFFFF" font-family="CMU Serif,CMU Serif_MSFontService,sans-serif" font-weight="700" font-size="124" transform="matrix(1 0 0 1 808.289 1064)">C</text><text fill="#FFFFFF" font-family="CMU Serif,CMU Serif_MSFontService,sans-serif" font-weight="700" font-size="124" transform="matrix(1 0 0 1 804.852 1380)">D</text><text fill="#FFFFFF" font-family="CMU Serif,CMU Serif_MSFontService,sans-serif" font-style="italic" font-weight="400" font-size="73" transform="matrix(1 0 0 1 1125.84 1639)">Alto estado de derecho </text><text fill="#FFFFFF" font-family="Latin Modern Math,Latin Modern Math_MSFontService,sans-serif" font-style="oblique" font-weight="700" font-size="73" transform="matrix(1 0 0 1 1405.95 1727)">c</text><text fill="#FFFFFF" font-family="Cambria Math,Cambria Math_MSFontService,sans-serif" font-weight="400" font-size="73" transform="matrix(1 0 0 1 1460.7 1727)">≳</text><text fill="#FFFFFF" font-family="Cambria Math,Cambria Math_MSFontService,sans-serif" font-weight="400" font-size="73" transform="matrix(1 0 0 1 1536.07 1727)">0</text><text fill="#FFFFFF" font-family="CMU Serif,CMU Serif_MSFontService,sans-serif" font-weight="700" font-size="124" transform="matrix(1 0 0 1 803.993 1696)">H</text><text fill="#FFFFFF" font-family="CMU Serif,CMU Serif_MSFontService,sans-serif" font-style="italic" font-weight="400" font-size="64" transform="matrix(1 0 0 1 1182.32 1958)">Castigos para personas corruptas </text><path d="M1586.21 2008.12C1584.68 2008.12 1583.18 2008.58 1581.72 2009.49 1580.26 2010.41 1579.29 2011.27 1578.81 2012.09 1578.75 2012.3 1578.05 2015.1 1576.7 2020.49 1575.35 2025.87 1574.78 2028.7 1575.01 2028.98 1575.01 2029.89 1575.43 2030.83 1576.28 2031.81 1577.13 2032.79 1578.24 2033.28 1579.6 2033.28 1581.9 2033.28 1583.84 2032 1585.41 2029.44 1586.47 2027.64 1587.49 2024.8 1588.47 2020.89 1589.45 2016.99 1589.94 2014.25 1589.94 2012.67 1589.94 2011.05 1589.56 2009.88 1588.79 2009.18 1588.03 2008.48 1587.17 2008.12 1586.21 2008.12ZM1586.56 2005.76C1587.72 2005.76 1588.86 2005.92 1589.96 2006.24 1591.06 2006.56 1592.17 2007.08 1593.29 2007.8 1594.41 2008.53 1595.31 2009.61 1595.98 2011.04 1596.65 2012.47 1596.98 2014.14 1596.98 2016.06 1596.98 2018.19 1596.58 2020.39 1595.79 2022.65 1595 2024.91 1593.89 2027.02 1592.48 2028.96 1591.06 2030.9 1589.22 2032.5 1586.97 2033.76 1584.72 2035.02 1582.26 2035.64 1579.6 2035.64 1577.26 2035.64 1575.22 2034.88 1573.47 2033.36L1570.76 2044.16C1571.88 2044.24 1572.74 2044.29 1573.35 2044.29 1574.79 2044.29 1575.52 2044.7 1575.52 2045.53 1575.52 2046.75 1574.94 2047.36 1573.79 2047.36 1573.67 2047.36 1573.31 2047.35 1572.74 2047.32 1572.17 2047.3 1571.38 2047.28 1570.38 2047.26 1569.38 2047.24 1568.31 2047.23 1567.16 2047.23 1565.74 2047.23 1564.61 2047.24 1563.79 2047.26 1562.96 2047.28 1562.4 2047.3 1562.1 2047.32 1561.8 2047.35 1561.61 2047.36 1561.53 2047.36 1560.5 2047.36 1559.99 2046.92 1559.99 2046.05 1559.99 2044.87 1560.63 2044.28 1561.91 2044.28L1562.1 2044.28C1562.49 2044.28 1563.1 2044.24 1563.96 2044.16 1564.05 2043.79 1564.2 2043.2 1564.4 2042.39 1564.6 2041.59 1564.74 2041.02 1564.83 2040.69L1571.51 2014.08C1571.98 2012.16 1572.21 2010.83 1572.21 2010.11 1572.21 2008.83 1571.82 2008.19 1571.03 2008.19 1570.32 2008.19 1569.67 2008.79 1569.09 2009.98 1568.52 2011.18 1568.05 2012.5 1567.69 2013.95 1567.33 2015.4 1567.13 2016.17 1567.09 2016.25 1566.81 2016.68 1566.25 2016.89 1565.41 2016.89 1564.06 2016.89 1563.38 2016.55 1563.38 2015.87 1563.38 2015.74 1563.46 2015.36 1563.61 2014.72 1563.77 2014.08 1564.05 2013.24 1564.44 2012.22 1564.84 2011.2 1565.34 2010.22 1565.94 2009.28 1566.54 2008.34 1567.35 2007.53 1568.37 2006.84 1569.38 2006.16 1570.49 2005.82 1571.69 2005.82 1574.58 2005.82 1576.73 2006.93 1578.13 2009.15 1580.98 2006.89 1583.79 2005.76 1586.56 2005.76Z" fill="#FFFFFF" fill-rule="evenodd"/><text fill="#000000" fill-opacity="0" font-family="Arial,Arial_MSFontService,sans-serif" font-size="41.6" x="1559.99" y="2042.16">p</text><path d="M1679.82 1998.52C1680.59 1998.52 1680.97 1998.86 1680.97 1999.52 1680.97 1999.68 1680.94 1999.83 1680.88 1999.96 1680.81 2000.1 1680.71 2000.22 1680.56 2000.31 1680.41 2000.41 1680.28 2000.49 1680.17 2000.55 1680.07 2000.61 1679.92 2000.68 1679.73 2000.76 1679.53 2000.85 1679.44 2000.89 1679.44 2000.89L1638.44 2019.07 1669.6 2036.99C1670.53 2037.54 1671 2038.09 1671 2038.64 1671 2038.96 1670.9 2039.23 1670.68 2039.46 1670.47 2039.69 1670.21 2039.8 1669.92 2039.8 1669.74 2039.8 1669.25 2039.51 1668.44 2038.91L1636.25 2020.48C1635.31 2019.96 1634.84 2019.45 1634.84 2018.94 1634.84 2018.77 1634.87 2018.61 1634.94 2018.46 1635 2018.31 1635.11 2018.18 1635.26 2018.08 1635.41 2017.97 1635.53 2017.88 1635.64 2017.82 1635.75 2017.76 1635.9 2017.68 1636.09 2017.59 1636.29 2017.51 1636.41 2017.46 1636.44 2017.44L1678.36 1998.78C1679.04 1998.61 1679.53 1998.52 1679.82 1998.52Z" fill="#FFFFFF" fill-rule="evenodd"/><text fill="#000000" fill-opacity="0" font-family="Arial,Arial_MSFontService,sans-serif" font-size="41.28" x="1634.84" y="2034.64">&lt;</text><path d="M1730.29 2008.12C1727.99 2008.12 1726.04 2009.45 1724.42 2012.09 1723.45 2013.8 1722.46 2016.57 1721.46 2020.41 1720.46 2024.25 1719.96 2027.03 1719.96 2028.73 1719.96 2030.35 1720.33 2031.52 1721.08 2032.22 1721.83 2032.92 1722.67 2033.28 1723.61 2033.28 1725.18 2033.28 1726.66 2032.75 1728.05 2031.7 1729.43 2030.65 1730.34 2029.7 1730.77 2028.84 1730.87 2028.43 1731.58 2025.61 1732.9 2020.38 1734.21 2015.15 1734.87 2012.46 1734.87 2012.28 1734.87 2011.43 1734.45 2010.52 1733.6 2009.56 1732.75 2008.6 1731.64 2008.12 1730.29 2008.12ZM1730.22 2005.76C1732.59 2005.76 1734.66 2006.59 1736.44 2008.25 1737.23 2007.53 1738.2 2006.95 1739.34 2006.52 1740.49 2006.1 1741.27 2005.88 1741.69 2005.88 1742.48 2005.88 1742.87 2006.27 1742.87 2007.03 1742.87 2007.24 1742.15 2010.36 1740.7 2016.41L1733.7 2044.16C1734.78 2044.24 1735.6 2044.29 1736.19 2044.29L1736.44 2044.29C1737.56 2044.29 1738.12 2044.79 1738.12 2045.79 1738.12 2046.83 1737.54 2047.36 1736.37 2047.36 1736.25 2047.36 1735.6 2047.33 1734.43 2047.29 1733.27 2047.25 1731.58 2047.23 1729.38 2047.23L1728.23 2047.23C1727.47 2047.23 1726.57 2047.25 1725.53 2047.29 1724.49 2047.33 1723.85 2047.36 1723.59 2047.36 1722.4 2047.36 1721.81 2046.92 1721.81 2046.05 1721.81 2045.13 1722.16 2044.57 1722.87 2044.35 1723.04 2044.31 1723.54 2044.28 1724.37 2044.28 1725.29 2044.28 1726.15 2044.2 1726.94 2044.03L1729.52 2033.8C1727.37 2035.03 1725.29 2035.64 1723.28 2035.64 1722.11 2035.64 1720.98 2035.48 1719.88 2035.16 1718.78 2034.84 1717.68 2034.33 1716.58 2033.63 1715.48 2032.92 1714.59 2031.86 1713.92 2030.43 1713.26 2029 1712.92 2027.3 1712.92 2025.34 1712.92 2023.25 1713.31 2021.07 1714.08 2018.81 1714.85 2016.55 1715.93 2014.44 1717.33 2012.48 1718.72 2010.51 1720.54 2008.9 1722.79 2007.64 1725.04 2006.39 1727.52 2005.76 1730.22 2005.76Z" fill="#FFFFFF" fill-rule="evenodd"/><text fill="#000000" fill-opacity="0" font-family="Arial,Arial_MSFontService,sans-serif" font-size="41.6" x="1712.92" y="2042.16">q</text><text fill="#FFFFFF" font-family="CMU Serif,CMU Serif_MSFontService,sans-serif" font-weight="700" font-size="124" transform="matrix(1 0 0 1 803.706 2012)">K</text></g></svg>