<svg width="702" height="703" xmlns="http://www.w3.org/2000/svg" xmlns:xlink="http://www.w3.org/1999/xlink" xml:space="preserve" overflow="hidden"><g transform="translate(-2257 -401)"><path d="M2257.01 401.952 2367.75 401.952 2367.75 512.686 2257.01 512.686Z" fill-rule="evenodd"/><path d="M2367.75 401.952 2515.45 401.952 2515.45 512.686 2367.75 512.686Z" fill-rule="evenodd"/><path d="M2515.45 401.952 2663.15 401.952 2663.15 512.686 2515.45 512.686Z" fill-rule="evenodd"/><path d="M2663.15 401.952 2810.84 401.952 2810.84 512.686 2663.15 512.686Z" fill-rule="evenodd"/><path d="M2810.84 401.952 2958.54 401.952 2958.54 512.686 2810.84 512.686Z" fill-rule="evenodd"/><path d="M2257.01 512.686 2367.75 512.686 2367.75 660.384 2257.01 660.384Z" fill-rule="evenodd"/><path d="M2367.75 512.686 2515.45 512.686 2515.45 660.384 2367.75 660.384Z" fill="#7F7F7F" fill-rule="evenodd"/><path d="M2515.45 512.686 2663.15 512.686 2663.15 660.384 2515.45 660.384Z" fill="#7F7F7F" fill-rule="evenodd"/><path d="M2663.15 512.686 2810.84 512.686 2810.84 660.384 2663.15 660.384Z" fill="#A6A6A6" fill-rule="evenodd"/><path d="M2810.84 512.686 2958.54 512.686 2958.54 660.384 2810.84 660.384Z" fill="#BFBFBF" fill-rule="evenodd"/><path d="M2257.01 660.384 2367.75 660.384 2367.75 808.082 2257.01 808.082Z" fill-rule="evenodd"/><path d="M2367.75 660.384 2515.45 660.384 2515.45 808.082 2367.75 808.082Z" fill="#7F7F7F" fill-rule="evenodd"/><path d="M2515.45 660.384 2663.15 660.384 2663.15 808.082 2515.45 808.082Z" fill="#7F7F7F" fill-rule="evenodd"/><path d="M2663.15 660.384 2810.84 660.384 2810.84 808.082 2663.15 808.082Z" fill="#A6A6A6" fill-rule="evenodd"/><path d="M2810.84 660.384 2958.54 660.384 2958.54 808.082 2810.84 808.082Z" fill="#BFBFBF" fill-rule="evenodd"/><path d="M2257.01 808.082 2367.75 808.082 2367.75 955.781 2257.01 955.781Z" fill-rule="evenodd"/><path d="M2367.75 808.082 2515.45 808.082 2515.45 955.781 2367.75 955.781Z" fill="#A6A6A6" fill-rule="evenodd"/><path d="M2515.45 808.082 2663.15 808.082 2663.15 955.781 2515.45 955.781Z" fill="#A6A6A6" fill-rule="evenodd"/><path d="M2663.15 808.082 2810.84 808.082 2810.84 955.781 2663.15 955.781Z" fill="#A6A6A6" fill-rule="evenodd"/><path d="M2810.84 808.082 2958.54 808.082 2958.54 955.781 2810.84 955.781Z" fill="#BFBFBF" fill-rule="evenodd"/><path d="M2257.01 955.781 2367.75 955.781 2367.75 1103.48 2257.01 1103.48Z" fill-rule="evenodd"/><path d="M2367.75 955.781 2515.45 955.781 2515.45 1103.48 2367.75 1103.48Z" fill="#BFBFBF" fill-rule="evenodd"/><path d="M2515.45 955.781 2663.15 955.781 2663.15 1103.48 2515.45 1103.48Z" fill="#BFBFBF" fill-rule="evenodd"/><path d="M2663.15 955.781 2810.84 955.781 2810.84 1103.48 2663.15 1103.48Z" fill="#BFBFBF" fill-rule="evenodd"/><path d="M2810.84 955.781 2958.54 955.781 2958.54 1103.48 2810.84 1103.48Z" fill="#BFBFBF" fill-rule="evenodd"/><text fill="#FFFFFF" font-family="CMU Serif,CMU Serif_MSFontService,sans-serif" font-weight="700" font-size="50" transform="matrix(1 0 0 1 2862.06 473)">K</text><text fill="#FFFFFF" font-family="CMU Serif,CMU Serif_MSFontService,sans-serif" font-weight="700" font-size="50" transform="matrix(1 0 0 1 2714.36 473)">H</text><text fill="#FFFFFF" font-family="CMU Serif,CMU Serif_MSFontService,sans-serif" font-weight="700" font-size="50" transform="matrix(1 0 0 1 2566.95 473)">D</text><text fill="#FFFFFF" font-family="CMU Serif,CMU Serif_MSFontService,sans-serif" font-weight="700" font-size="50" transform="matrix(1 0 0 1 2420.69 473)">C</text><text font-family="CMU Serif,CMU Serif_MSFontService,sans-serif" font-weight="400" font-size="50" transform="matrix(1 0 0 1 2863.78 604)">-</text><text font-family="CMU Serif,CMU Serif_MSFontService,sans-serif" font-weight="400" font-size="50" transform="matrix(1 0 0 1 2880.4 604)">1</text><text font-family="CMU Serif,CMU Serif_MSFontService,sans-serif" font-weight="400" font-size="50" transform="matrix(1 0 0 1 2724.39 604)">2</text><text font-family="CMU Serif,CMU Serif_MSFontService,sans-serif" font-weight="400" font-size="50" transform="matrix(1 0 0 1 2568.38 604)">-</text><text font-family="CMU Serif,CMU Serif_MSFontService,sans-serif" font-weight="400" font-size="50" transform="matrix(1 0 0 1 2585 604)">1</text><text font-family="CMU Serif,CMU Serif_MSFontService,sans-serif" font-weight="400" font-size="50" transform="matrix(1 0 0 1 2428.99 604)">2</text><text fill="#FFFFFF" font-family="CMU Serif,CMU Serif_MSFontService,sans-serif" font-weight="700" font-size="50" transform="matrix(1 0 0 1 2291.47 602)">C</text><text font-family="CMU Serif,CMU Serif_MSFontService,sans-serif" font-weight="400" font-size="50" transform="matrix(1 0 0 1 2851.18 752)">-</text><text font-family="CMU Serif,CMU Serif_MSFontService,sans-serif" font-weight="400" font-size="50" transform="matrix(1 0 0 1 2867.79 752)">10</text><text font-family="CMU Serif,CMU Serif_MSFontService,sans-serif" font-weight="400" font-size="50" transform="matrix(1 0 0 1 2716.08 752)">-</text><text font-family="CMU Serif,CMU Serif_MSFontService,sans-serif" font-weight="400" font-size="50" transform="matrix(1 0 0 1 2732.7 752)">6</text><text font-family="CMU Serif,CMU Serif_MSFontService,sans-serif" font-weight="400" font-size="50" transform="matrix(1 0 0 1 2576.69 752)">0</text><text font-family="CMU Serif,CMU Serif_MSFontService,sans-serif" font-weight="400" font-size="50" transform="matrix(1 0 0 1 2428.99 752)">4</text><text fill="#FFFFFF" font-family="CMU Serif,CMU Serif_MSFontService,sans-serif" font-weight="700" font-size="50" transform="matrix(1 0 0 1 2290.04 750)">D</text><text font-family="CMU Serif,CMU Serif_MSFontService,sans-serif" font-weight="400" font-size="50" transform="matrix(1 0 0 1 2863.78 900)">-</text><text font-family="CMU Serif,CMU Serif_MSFontService,sans-serif" font-weight="400" font-size="50" transform="matrix(1 0 0 1 2880.4 900)">5</text><text font-family="CMU Serif,CMU Serif_MSFontService,sans-serif" font-weight="400" font-size="50" transform="matrix(1 0 0 1 2724.39 900)">2</text><text font-family="CMU Serif,CMU Serif_MSFontService,sans-serif" font-weight="400" font-size="50" transform="matrix(1 0 0 1 2568.67 900)">-</text><text font-family="CMU Serif,CMU Serif_MSFontService,sans-serif" font-weight="400" font-size="50" transform="matrix(1 0 0 1 2585.29 900)">3</text><text font-family="CMU Serif,CMU Serif_MSFontService,sans-serif" font-weight="400" font-size="50" transform="matrix(1 0 0 1 2428.99 900)">2</text><text fill="#FFFFFF" font-family="CMU Serif,CMU Serif_MSFontService,sans-serif" font-weight="700" font-size="50" transform="matrix(1 0 0 1 2289.75 898)">H</text><text font-family="CMU Serif,CMU Serif_MSFontService,sans-serif" font-weight="400" font-size="50" transform="matrix(1 0 0 1 2863.78 1047)">-</text><text font-family="CMU Serif,CMU Serif_MSFontService,sans-serif" font-weight="400" font-size="50" transform="matrix(1 0 0 1 2880.4 1047)">9</text><text font-family="CMU Serif,CMU Serif_MSFontService,sans-serif" font-weight="400" font-size="50" transform="matrix(1 0 0 1 2716.08 1047)">-</text><text font-family="CMU Serif,CMU Serif_MSFontService,sans-serif" font-weight="400" font-size="50" transform="matrix(1 0 0 1 2732.7 1047)">1</text><text font-family="CMU Serif,CMU Serif_MSFontService,sans-serif" font-weight="400" font-size="50" transform="matrix(1 0 0 1 2568.38 1047)">-</text><text font-family="CMU Serif,CMU Serif_MSFontService,sans-serif" font-weight="400" font-size="50" transform="matrix(1 0 0 1 2585 1047)">2</text><text font-family="CMU Serif,CMU Serif_MSFontService,sans-serif" font-weight="400" font-size="50" transform="matrix(1 0 0 1 2428.99 1047)">4</text><text fill="#FFFFFF" font-family="CMU Serif,CMU Serif_MSFontService,sans-serif" font-weight="700" font-size="50" transform="matrix(1 0 0 1 2289.75 1045)">K</text></g></svg>