<?xml version="1.0" encoding="UTF-8" standalone="no"?>
<!-- Created with Inkscape (http://www.inkscape.org/) -->

<svg
   width="234.38081mm"
   height="234.38084mm"
   viewBox="0 0 234.38081 234.38084"
   version="1.1"
   id="svg1"
   xml:space="preserve"
   sodipodi:docname="MCM.svg"
   inkscape:version="1.4.3 (0d15f75, 2025-12-25)"
   xmlns:inkscape="http://www.inkscape.org/namespaces/inkscape"
   xmlns:sodipodi="http://sodipodi.sourceforge.net/DTD/sodipodi-0.dtd"
   xmlns:xlink="http://www.w3.org/1999/xlink"
   xmlns="http://www.w3.org/2000/svg"
   xmlns:svg="http://www.w3.org/2000/svg"><sodipodi:namedview
     id="namedview1"
     pagecolor="#ffffff"
     bordercolor="#000000"
     borderopacity="0.25"
     inkscape:showpageshadow="2"
     inkscape:pageopacity="0.0"
     inkscape:pagecheckerboard="0"
     inkscape:deskcolor="#d1d1d1"
     inkscape:document-units="mm"
     inkscape:zoom="0.96517593"
     inkscape:cx="442.92443"
     inkscape:cy="442.92443"
     inkscape:window-width="1920"
     inkscape:window-height="1057"
     inkscape:window-x="-8"
     inkscape:window-y="-8"
     inkscape:window-maximized="1"
     inkscape:current-layer="layer1" /><defs
     id="defs1"><linearGradient
       id="linearGradient3"><stop
         style="stop-color:#ffe3cd;stop-opacity:0.69523811;"
         offset="0.39618793"
         id="stop4" /><stop
         style="stop-color:#fff6d5;stop-opacity:0;"
         offset="1"
         id="stop5" /></linearGradient><linearGradient
       id="linearGradient2"><stop
         style="stop-color:#000000;stop-opacity:1;"
         offset="0"
         id="stop2" /><stop
         style="stop-color:#000000;stop-opacity:0;"
         offset="1"
         id="stop3" /></linearGradient><radialGradient
       xlink:href="#linearGradient2"
       id="radialGradient3"
       cx="321.91135"
       cy="151.30228"
       fx="321.91135"
       fy="151.30228"
       r="89.835716"
       gradientUnits="userSpaceOnUse"
       gradientTransform="matrix(1.3020682,0,0,1.3020682,-96.057123,-39.793357)" /><radialGradient
       xlink:href="#linearGradient3"
       id="radialGradient5"
       cx="321.91135"
       cy="151.30228"
       fx="321.91135"
       fy="151.30228"
       r="90.003288"
       gradientUnits="userSpaceOnUse"
       gradientTransform="matrix(1.3020682,0,0,1.3020682,-96.057123,-39.793357)" /></defs><g
     id="layer1"
     transform="translate(-205.903,-40.022112)"><circle
       style="fill:url(#radialGradient5);stroke:url(#radialGradient3);stroke-width:0.436373;paint-order:stroke markers fill"
       id="path2"
       cx="323.09341"
       cy="157.21252"
       r="116.97223" /><path
       style="fill:#000000;fill-opacity:1;stroke-width:0.849741"
       d="m 291.85999,195.8942 c 1.76944,-0.71585 -0.94878,-2.90847 -2.66843,-4.60389 -2.2347,-2.20321 -5.95656,-6.87649 -4.54195,-10.02894 1.31683,-2.93457 0.35258,-1.99467 0.54069,-5.92918 0.0982,-1.87796 -0.0532,-4.02804 -0.33633,-4.77792 -0.2832,-0.74989 -0.65483,-2.0019 -0.82582,-2.78225 -0.17501,-0.79867 -0.57759,-1.32937 -0.92104,-1.21419 -0.82706,0.27739 -4.13101,-6.84243 -4.53167,-9.76544 -0.4221,-3.07965 0.44575,-5.032 2.16156,-4.86266 1.32779,0.13103 2.51439,-0.37261 2.51439,-1.06722 0,-0.71541 -2.45566,-0.92093 -3.64305,-0.30491 -1.08834,0.56464 -1.14163,0.49708 -1.28433,-1.62813 -0.0819,-1.21946 0.31105,-3.81443 0.60128,-5.81462 1.92087,-13.23812 4.80698,-8.25657 5.82806,-15.37148 0.67348,-4.69281 0.40183,-3.52293 0.51629,-5.4516 0.003,-0.7607 0.4666,-2.85114 1.02896,-4.64542 0.56236,-1.79429 1.09443,-4.22351 1.18239,-5.39828 0.0879,-1.17479 0.43652,-2.46926 0.77462,-2.87664 0.33809,-0.40739 0.48422,-0.95186 0.32471,-1.20993 -0.83701,-1.35431 7.14371,-7.09868 9.88357,-7.11401 0.4833,-0.003 2.23921,-1.00644 3.90204,-2.230531 3.74751,-2.758765 4.54802,-3.015607 13.57652,-4.356018 9.67487,-1.436377 16.71456,-1.418387 21.3749,0.05462 6.03551,1.907667 12.59657,5.308533 14.29071,7.407469 5.21424,6.46009 7.03766,9.03929 7.52231,10.64015 2.10596,6.9564 2.57953,8.9599 2.57953,10.91317 0,1.55392 0.20803,2.21024 0.70059,2.21024 1.0363,0 1.23576,0.88682 1.8164,8.07557 0.29079,3.60006 1.10736,8.9468 1.81462,11.88164 1.39197,5.7761 1.39249,5.76852 -0.83477,11.97943 -1.64409,4.58471 -1.24769,7.85746 1.43573,11.85373 1.49372,2.2245 2.11058,3.66721 2.11544,4.94759 0.003,0.99409 0.12875,2.26088 0.27772,2.81509 0.19945,0.74207 0.23774,1.61297 -1.2389,1.89951 -1.47664,0.28652 -1.84931,-0.91826 -1.84931,-0.91826 -0.24156,-1.2876 -0.69658,-1.94582 -1.57635,-2.28031 -1.64818,-0.62664 -2.15961,-0.22151 -2.15137,1.70416 0.03,7.0235 1.90314,3.90749 3.85879,5.78898 13.05195,12.55708 -12.66147,29.89325 -24.64837,35.87941 -3.09186,0.49762 -7.48933,4.07069 -26.17778,4.30345 -18.68844,0.23275 -38.79926,-21.4894 -23.39235,-27.72238 z m 51.0815,20.0414 c 26.82393,-12.90534 27.95662,-46.86683 2.01019,-6.62852 -1.68208,2.61615 -2.99106,4.05731 -4.27498,4.70665 -2.27298,1.14954 -3.61082,2.20174 -3.61082,2.8399 0,0.66682 4.50254,-0.0366 5.87561,-0.91803 z m -26.99904,-19.98789 c 0.96815,-0.2739 2.89189,-0.5459 4.27498,-0.60446 2.58225,-0.10933 5.24412,-0.44916 9.65654,-2.4917 3.32907,-2.03583 7.10969,-5.07083 11.63394,-8.58538 3.40228,-2.643 7.75531,-6.23638 8.8178,-9.29154 0.18124,-0.52117 0.82247,-0.43312 0.82247,-1.316 0,-1.08679 0.18286,-1.26819 1.04989,-1.04146 0.86629,0.22655 1.23452,-0.13701 2.10558,-2.07883 0.58063,-1.29435 1.21413,-3.37184 1.40779,-4.6166 0.19365,-1.24479 0.52586,-3.36878 0.73824,-4.72 0.31472,-2.00243 0.25551,-2.41328 -0.3202,-2.22172 -0.38848,0.12925 -0.82898,0.78215 -0.97889,1.45087 -0.1499,0.66872 -0.77229,2.30965 -1.38308,3.64651 -0.61078,1.33687 -1.11051,2.62165 -1.11051,2.85507 0,0.23342 -0.72021,0.78369 -1.60045,1.22281 -1.26619,0.63166 -1.68474,0.66561 -2.00406,0.16257 -0.54261,-0.85482 -0.49888,-1.19841 0.56105,-4.40788 0.90083,-2.7277 0.93884,-2.7641 2.7329,-2.61866 l 1.81937,0.14751 v -2.285 c 0,-1.62844 0.29445,-2.57944 1.02476,-3.30975 0.73011,-0.73012 1.01007,-1.63391 0.97368,-3.14336 -0.0281,-1.16525 0.16463,-3.25024 0.42829,-4.63331 0.82996,-4.35396 -0.28101,-12.33977 -2.2161,-15.92957 -0.39857,-0.73939 -0.9705,-3.22894 -1.27094,-5.53234 -0.30045,-2.30339 -0.86833,-4.69622 -1.26193,-5.31738 -0.41814,-0.65986 -0.58586,-1.64659 -0.40344,-2.37343 0.36538,-1.45579 -0.96462,-3.85894 -3.58707,-6.48139 -0.95386,-0.95385 -1.73427,-2.05383 -1.73427,-2.4444 0,-0.39056 -0.66487,-1.20168 -1.4775,-1.80247 -0.81261,-0.60079 -1.77723,-1.71839 -2.14359,-2.48354 -0.70772,-1.4781 -4.82722,-3.13833 -6.68917,-4.14139 -1.86196,-1.00305 -2.89201,-1.753056 -4.99123,-2.179305 -2.09921,-0.426249 -4.7568,-0.863727 -7.07904,-0.854217 -2.32223,0.0096 -6.73045,0.945608 -7.79581,1.246052 -1.06537,0.30044 -1.70575,0.3718 -3.10293,0.90729 -4.80497,1.84154 -10.26312,3.37854 -15.93704,9.03753 -3.00421,2.9963 -4.97679,5.41373 -5.45443,6.68448 -3.28483,8.73925 -6.68783,21.93526 -6.68783,25.93375 0,2.44166 -0.0699,2.60684 -0.79612,1.88066 -0.46893,-0.46893 -0.91102,-2.06343 -1.07573,-3.87982 -0.53732,-5.92571 -2.48837,-2.49948 -2.82636,4.96333 -0.0439,0.96815 -0.39719,2.00885 -0.78523,2.31265 -0.79565,0.62296 -0.34955,1.71085 0.70156,1.71085 0.44446,0 0.67555,-0.54679 0.64752,-1.5322 -0.0603,-2.12269 0.95035,-3.05993 1.905,-1.76651 0.39629,0.53695 0.72054,1.49883 0.72054,2.13749 0,0.6969 0.30164,1.16122 0.75441,1.16122 0.54462,0 0.76792,0.59439 0.80302,2.13749 0.21766,9.57187 0.53262,13.01364 1.47569,16.12531 0.57108,1.88435 0.9074,3.83865 0.74736,4.34286 -0.52513,1.65456 0.59476,5.02342 2.22382,6.68966 0.86959,0.88943 2.40909,3.03261 3.42111,4.76264 1.08642,2.69497 3.44183,4.45282 5.88876,6.73898 2.44693,2.28618 3.81193,2.14523 7.49043,4.41867 0.93867,0.58013 2.05016,1.05479 2.46996,1.05479 0.41981,0 1.31833,0.63482 2.20386,0.74792 2.22898,0.28468 3.46275,0.10268 5.21263,-0.39535 z m -2.76618,-13.42111 c -0.55322,-0.23341 -1.798,-0.32268 -2.76616,-0.19838 -0.96816,0.1243 -2.43925,0.0319 -3.2691,-0.20515 -1.68641,-0.48188 -2.10325,-1.93507 -0.50294,-1.75337 0.55323,0.0628 1.62509,-0.011 2.3819,-0.16413 l 1.37602,-0.27836 -1.4696,-1.23659 c -1.10049,-0.92601 -1.80122,-1.15337 -2.78991,-0.90523 -1.06997,0.26855 -1.37287,0.13038 -1.59754,-0.72873 -0.25001,-0.95605 -2.66289,-2.07011 -4.50323,-2.07923 -0.88347,-0.004 -1.68097,-1.22532 -1.25283,-1.91806 0.23398,-0.3786 1.3604,-0.5951 2.86312,-0.55029 1.37056,0.0409 3.60087,-0.34682 4.99207,-0.86779 3.90063,-1.46062 11.25562,-1.24855 14.58523,0.42056 2.67539,1.34116 7.56874,2.17785 8.06269,1.37861 0.4594,-0.74331 2.75051,-0.56923 2.75051,0.209 0,0.37762 -0.46908,1.28292 -1.04239,2.01176 -0.88726,1.12796 -1.42987,1.3246 -3.64631,1.32136 -1.43215,-0.002 -3.96186,-0.21607 -5.62156,-0.47554 -1.65969,-0.25945 -4.48873,-0.59186 -6.28674,-0.73868 -1.79801,-0.14681 -4.76715,-0.41178 -6.59811,-0.58882 -2.15241,-0.20813 -3.44613,-0.13238 -3.66039,0.2143 -0.37619,0.60868 1.18268,1.58692 2.55562,1.60373 0.50226,0.006 1.47901,0.45377 2.17055,0.9947 0.69154,0.54093 1.9929,0.98854 2.8919,0.9947 0.89901,0.006 1.63456,0.22134 1.63456,0.4782 0,0.95585 1.62814,2.04766 3.05355,2.04766 1.95203,0 1.88607,0.79752 -0.0988,1.19449 -1.97964,0.39592 -2.94327,0.35458 -4.21212,-0.18072 z m 19.49509,-11.01212 c -0.25876,-0.17154 -1.11552,-1.44351 -1.90391,-2.82658 -5.46252,-9.583 -7.28092,-11.10198 -7.28092,-6.08205 0,3.1185 -0.57551,3.81882 -3.13826,3.81882 -1.06216,0 -2.81847,0.45264 -3.90289,1.00588 -2.76484,1.41051 -4.67021,1.28748 -6.64645,-0.42919 -0.90863,-0.78928 -2.12185,-1.68143 -2.69604,-1.98256 -0.89179,-0.46766 -1.05156,-1.04668 -1.09591,-3.97137 -0.0713,-4.70159 1.51978,-6.52873 3.58493,-4.11682 0.77618,0.90652 1.26196,1.01999 3.21838,0.75184 1.26733,-0.17371 2.67807,-0.65416 3.135,-1.06767 0.92077,-0.83328 2.51185,-1.01369 2.51185,-0.28481 0,1.91636 4.09432,2.78898 5.01493,1.0688 0.51303,-0.95857 0.54764,-0.95598 1.67149,0.12575 1.36055,1.30956 4.54539,5.76125 5.02116,7.01849 0.18409,0.48646 0.96346,1.16279 1.73192,1.50294 0.76845,0.34015 1.70928,0.91701 2.09072,1.28192 0.40538,0.38781 1.03225,0.50629 1.50882,0.28516 0.4484,-0.20808 1.60742,-0.42223 2.57557,-0.4759 2.92676,-0.16222 3.01737,-0.18733 3.02535,-0.83819 0.0189,-1.54032 0.93743,-2.03349 3.74628,-2.01141 1.56689,0.0123 2.97975,0.15327 3.13969,0.3132 0.49601,0.49602 -0.89253,1.77928 -1.62225,1.49925 -0.5704,-0.21887 -0.58705,0.009 -0.0958,1.30988 0.69087,1.83034 0.0731,2.53395 -1.89449,2.15782 -0.86166,-0.16472 -1.41023,0.12513 -2.03156,1.07339 -0.8079,1.23302 -1.06325,1.29614 -5.0241,1.24216 -2.29513,-0.0313 -4.38466,-0.19722 -4.64342,-0.36875 z m -35.9541,-1.04762 c -0.71639,-0.56351 -1.77604,-1.02456 -2.3548,-1.02456 -1.15475,0 -1.31134,-0.76192 -0.56179,-2.73341 0.43669,-1.14859 0.76769,-1.29011 3.01764,-1.29011 2.69826,0 2.90998,0.20618 1.76526,1.71904 -0.91287,1.20644 -0.16104,2.30448 1.57787,2.30448 0.72761,0 1.19576,0.29536 1.19576,0.75442 0,0.41492 -0.43412,0.7544 -0.96474,0.7544 -0.5306,0 -1.28153,0.12157 -1.66872,0.27015 -0.38719,0.14857 -1.2901,-0.19091 -2.00648,-0.75441 z m 34.06773,-22.236 c -2.37571,-0.45306 -6.17706,-2.70986 -5.57633,-3.31058 0.15365,-0.15367 1.13038,0.0682 2.17051,0.49315 1.04014,0.4249 3.22512,1.02101 4.85552,1.32469 3.33838,0.62182 3.87135,0.92592 2.80487,1.60038 -0.84712,0.53574 -0.88597,0.53475 -4.25457,-0.10764 z m 2.16757,-4.44532 c -6.60517,-1.16059 -7.24394,-0.37438 -8.19735,-1.4836 -0.32928,-0.5328 1.44895,-2.53304 2.25188,-2.53304 0.27662,0 0.50295,-0.22632 0.50295,-0.50294 0,-0.72199 -0.81744,-0.61954 -1.64288,0.20591 -0.38987,0.38988 -1.57132,0.78316 -2.62544,0.87399 -2.52445,0.21748 -3.19534,-0.75866 -2.35358,-3.42447 0.33526,-1.06172 0.54782,-2.59585 0.47236,-3.40918 -0.19419,-2.09297 1.41038,-2.77966 6.51657,-2.7888 3.91614,-0.006 8.18293,1.02865 8.18293,1.98622 0,0.20658 -1.47705,0.51353 -3.28232,0.68212 -5.04122,0.47074 -9.79409,2.87108 -9.79409,4.94628 0,1.22902 1.33399,1.18846 2.00262,-0.0608 0.69257,-1.29408 4.10795,-2.18644 6.72972,-1.75833 2.6838,0.43824 6.80685,2.13966 8.20462,3.38572 2.00432,1.78678 2.91336,-0.26606 1.4074,-3.17827 -0.42203,-0.81611 -0.98783,-1.48384 -1.25734,-1.48384 -0.26953,0 -0.49004,-0.5658 -0.49004,-1.25734 0,-0.69155 0.10311,-1.25735 0.22914,-1.25735 0.57894,0 4.07784,2.67454 5.57334,4.26024 1.52155,1.61332 1.61242,1.88582 1.0902,3.26931 -0.42803,1.13403 -0.42444,1.65454 0.0144,2.09341 0.44353,0.44352 0.26021,0.83864 -0.76166,1.64159 -1.02293,0.80378 -2.0421,1.05322 -4.24854,1.03981 -5.58186,-0.48901 -3.83025,-0.27491 -8.52494,-1.2466 z m -35.87034,2.66457 c -2.37015,-0.24768 -3.23063,-0.88559 -2.36381,-1.75241 1.18555,-1.18556 0.703,-1.97338 -1.03102,-1.68326 -1.31592,0.22017 -1.96784,-0.0154 -3.34424,-1.20817 -1.66677,-1.44447 -1.68887,-1.51344 -0.88014,-2.7477 0.45624,-0.69632 0.82953,-2.05858 0.82953,-3.02725 0,-1.3454 0.41956,-2.18078 1.77706,-3.53827 0.97738,-0.97738 2.10899,-1.77706 2.51469,-1.77706 0.40571,0 0.73765,-0.24429 0.73765,-0.54289 0,-0.33762 0.55241,-0.42158 1.46094,-0.22202 0.84433,0.18544 1.6012,0.0939 1.79327,-0.21686 0.41406,-0.66996 6.13659,-0.6057 9.69647,0.10888 2.00585,0.40263 2.64042,0.74664 2.64042,1.43133 0,0.49572 0.32925,2.16533 0.73164,3.71023 0.88654,3.40364 0.67989,4.07444 -1.38234,4.48688 -1.21845,0.24369 -1.77176,0.0936 -2.35681,-0.63911 -1.21708,-1.52438 -2.91421,-2.16313 -6.1032,-2.29702 -1.999,-0.084 -3.1542,0.0955 -3.53011,0.54848 -0.30731,0.37029 -0.87053,0.67325 -1.25157,0.67325 -0.38106,0 -0.69283,0.22633 -0.69283,0.50294 0,0.27662 0.33948,0.50295 0.7544,0.50295 0.41493,0 0.75442,-0.25187 0.75442,-0.55971 0,-0.3759 1.11479,-0.49248 3.39483,-0.35503 2.61115,0.15741 3.89256,0.52298 5.55089,1.58359 1.18581,0.75842 2.03662,1.57214 1.89068,1.80829 -0.49962,0.8084 -7.26221,1.02481 -8.07218,1.0403 -0.56843,0.0109 -1.78,-0.0821 -2.26129,0.25459 -0.34,0.23783 -0.33948,0.75441 -0.7544,0.75441 -0.43639,0 -0.75442,0.4553 -0.75442,1.08008 0,1.04669 0.13604,1.07027 4.40072,0.76284 3.9553,-0.28511 4.30191,-0.24172 3.42445,0.42875 -0.53694,0.41028 -1.5554,0.74906 -2.26323,0.75283 -0.70782,0.003 -1.73959,0.0833 -2.29283,0.17661 -0.55323,0.0934 -1.91117,0.0751 -3.01764,-0.0405 z m 13.32789,-8.45919 c 0,-1.00102 -2.05009,-3.00722 -4.06757,-3.98047 -2.87658,-1.38771 -4.31175,-1.78365 -8.18797,-2.25898 -2.91131,-0.35701 -2.96396,-0.34097 -3.8959,1.18733 -0.90036,1.47649 -1.32405,4.81834 -0.61089,4.81834 0.18568,0 0.69491,-0.30758 1.13162,-0.68352 1.08509,-0.93411 4.99587,-1.83118 7.98309,-1.83118 1.94895,0 2.88149,0.3104 4.42948,1.47438 1.81333,1.36349 3.21814,1.91968 3.21814,1.2741 z m 43.35192,41.89725 c 1.36184,-3.77084 1.98573,-6.44191 1.78571,-7.64518 -0.13885,-0.8353 -0.35416,-0.6438 -1.09215,0.97136 -0.50557,1.10646 -1.10289,3.03021 -1.32739,4.27498 -0.2245,1.24478 -0.56803,3.05535 -0.76341,4.0235 -0.489,2.42322 0.24256,1.57258 1.39724,-1.62466 z m 7.61981,-8.93776 c 1.09952,-1.30669 1.25809,-1.9448 1.18017,-4.74907 -0.0542,-1.95138 -0.25147,-2.95103 -0.49605,-2.51398 -0.45494,0.81294 -1.65623,0.9671 -2.0883,0.268 -0.3997,-0.64673 0.21899,-2.05592 0.9059,-2.06337 0.73646,-0.007 2.72712,-3.07335 3.59708,-5.53905 0.6934,-1.9653 0.52595,-2.74736 -0.45193,-2.11087 -0.30719,0.19994 -1.01117,0.36353 -1.5644,0.36353 -0.75364,0 -1.03828,0.37836 -1.1351,1.50882 -0.25471,2.9744 -1.1153,5.16019 -2.13684,5.42733 -0.79043,0.2067 -1.01996,0.72538 -1.08283,2.44687 -0.10696,2.92912 0.13406,7.62622 0.41533,8.09411 0.47145,0.78425 1.63099,0.32469 2.85697,-1.13232 z m -77.12622,-7.79048 c 0.68913,-1.81258 0.12556,-2.85421 -1.44568,-2.67201 -1.64908,0.19125 -2.13659,2.26707 -0.76753,3.26814 1.27605,0.93306 1.67239,0.82631 2.21321,-0.59613 z"
       id="path1-8" /></g></svg>
