<svg width="2784" height="621" xmlns="http://www.w3.org/2000/svg" xmlns:xlink="http://www.w3.org/1999/xlink" xml:space="preserve" overflow="hidden"><g transform="translate(-279 -869)"><path d="M279.304 869.102 443.273 869.102 443.273 1031.97 279.304 1031.97Z" fill="#262626" fill-rule="evenodd"/><path d="M443.273 869.102 874.044 869.102 874.044 1031.97 443.273 1031.97Z" fill="#262626" fill-rule="evenodd"/><path d="M874.044 869.102 1102 869.102 1102 1031.97 874.044 1031.97Z" fill="#262626" fill-rule="evenodd"/><path d="M1102 869.102 1307.62 869.102 1307.62 1031.97 1102 1031.97Z" fill="#262626" fill-rule="evenodd"/><path d="M1307.62 869.102 1567.46 869.102 1567.46 1031.97 1307.62 1031.97Z" fill="#262626" fill-rule="evenodd"/><path d="M1567.46 869.102 1754.17 869.102 1754.17 1031.97 1567.46 1031.97Z" fill="#262626" fill-rule="evenodd"/><path d="M1754.17 869.102 2045.15 869.102 2045.15 1031.97 1754.17 1031.97Z" fill="#262626" fill-rule="evenodd"/><path d="M2045.15 869.102 2363.63 869.102 2363.63 1031.97 2045.15 1031.97Z" fill="#262626" fill-rule="evenodd"/><path d="M2363.63 869.102 2596.17 869.102 2596.17 1031.97 2363.63 1031.97Z" fill="#262626" fill-rule="evenodd"/><path d="M2596.17 869.102 2868.25 869.102 2868.25 1031.97 2596.17 1031.97Z" fill="#262626" fill-rule="evenodd"/><path d="M2868.25 869.102 3062.42 869.102 3062.42 1031.97 2868.25 1031.97Z" fill="#262626" fill-rule="evenodd"/><path d="M279.304 1031.97 443.273 1031.97 443.273 1179.78 279.304 1179.78Z" fill-rule="evenodd"/><path d="M443.273 1031.97 874.044 1031.97 874.044 1179.78 443.273 1179.78Z" fill-rule="evenodd"/><path d="M874.044 1031.97 1102 1031.97 1102 1179.78 874.044 1179.78Z" fill="#1D3F11" fill-rule="evenodd"/><path d="M1102 1031.97 1307.62 1031.97 1307.62 1179.78 1102 1179.78Z" fill="#1D3F11" fill-rule="evenodd"/><path d="M1307.62 1031.97 1567.46 1031.97 1567.46 1179.78 1307.62 1179.78Z" fill="#1D3F11" fill-rule="evenodd"/><path d="M1567.46 1031.97 1754.17 1031.97 1754.17 1179.78 1567.46 1179.78Z" fill="#1D3F11" fill-rule="evenodd"/><path d="M1754.17 1031.97 2045.15 1031.97 2045.15 1179.78 1754.17 1179.78Z" fill="#1D3F11" fill-rule="evenodd"/><path d="M2045.15 1031.97 2363.63 1031.97 2363.63 1179.78 2045.15 1179.78Z" fill="#1D3F11" fill-rule="evenodd"/><path d="M2363.63 1031.97 2596.17 1031.97 2596.17 1179.78 2363.63 1179.78Z" fill="#1D3F11" fill-rule="evenodd"/><path d="M2596.17 1031.97 2868.25 1031.97 2868.25 1179.78 2596.17 1179.78Z" fill="#1D3F11" fill-rule="evenodd"/><path d="M2868.25 1031.97 3062.42 1031.97 3062.42 1179.78 2868.25 1179.78Z" fill="#275317" fill-rule="evenodd"/><path d="M279.304 1179.78 443.273 1179.78 443.273 1327.59 279.304 1327.59Z" fill-rule="evenodd"/><path d="M443.273 1179.78 874.044 1179.78 874.044 1327.59 443.273 1327.59Z" fill-rule="evenodd"/><path d="M874.044 1179.78 1102 1179.78 1102 1327.59 874.044 1327.59Z" fill="#1D3F11" fill-rule="evenodd"/><path d="M1102 1179.78 1307.62 1179.78 1307.62 1327.59 1102 1327.59Z" fill="#C00000" fill-rule="evenodd"/><path d="M1307.62 1179.78 1567.46 1179.78 1567.46 1327.59 1307.62 1327.59Z" fill="#275317" fill-rule="evenodd"/><path d="M1567.46 1179.78 1754.17 1179.78 1754.17 1327.59 1567.46 1327.59Z" fill="#275317" fill-rule="evenodd"/><path d="M1754.17 1179.78 2045.15 1179.78 2045.15 1327.59 1754.17 1327.59Z" fill="#1D3F11" fill-rule="evenodd"/><path d="M2045.15 1179.78 2363.63 1179.78 2363.63 1327.59 2045.15 1327.59Z" fill="#1D3F11" fill-rule="evenodd"/><path d="M2363.63 1179.78 2596.17 1179.78 2596.17 1327.59 2363.63 1327.59Z" fill="#1D3F11" fill-rule="evenodd"/><path d="M2596.17 1179.78 2868.25 1179.78 2868.25 1327.59 2596.17 1327.59Z" fill="#1D3F11" fill-rule="evenodd"/><path d="M2868.25 1179.78 3062.42 1179.78 3062.42 1327.59 2868.25 1327.59Z" fill="#1D3F11" fill-rule="evenodd"/><path d="M279.304 1327.59 443.273 1327.59 443.273 1475.4 279.304 1475.4Z" fill-rule="evenodd"/><path d="M443.273 1327.59 874.044 1327.59 874.044 1475.4 443.273 1475.4Z" fill-rule="evenodd"/><path d="M874.044 1327.59 1102 1327.59 1102 1475.4 874.044 1475.4Z" fill="#860000" fill-rule="evenodd"/><path d="M1102 1327.59 1307.62 1327.59 1307.62 1475.4 1102 1475.4Z" fill="#C04F15" fill-rule="evenodd"/><path d="M1307.62 1327.59 1567.46 1327.59 1567.46 1475.4 1307.62 1475.4Z" fill="#C00000" fill-rule="evenodd"/><path d="M1567.46 1327.59 1754.17 1327.59 1754.17 1475.4 1567.46 1475.4Z" fill="#D2A000" fill-rule="evenodd"/><path d="M1754.17 1327.59 2045.15 1327.59 2045.15 1475.4 1754.17 1475.4Z" fill="#D2A000" fill-rule="evenodd"/><path d="M2045.15 1327.59 2363.63 1327.59 2363.63 1475.4 2045.15 1475.4Z" fill="#C04F15" fill-rule="evenodd"/><path d="M2363.63 1327.59 2596.17 1327.59 2596.17 1475.4 2363.63 1475.4Z" fill="#D2A000" fill-rule="evenodd"/><path d="M2596.17 1327.59 2868.25 1327.59 2868.25 1475.4 2596.17 1475.4Z" fill="#D2A000" fill-rule="evenodd"/><path d="M2868.25 1327.59 3062.42 1327.59 3062.42 1475.4 2868.25 1475.4Z" fill="#80350E" fill-rule="evenodd"/><text fill="#FFFFFF" font-family="CMU Serif,CMU Serif_MSFontService,sans-serif" font-weight="400" font-size="37" transform="matrix(1 0 0 1 2920.07 964)">Salud</text><text fill="#FFFFFF" font-family="CMU Serif,CMU Serif_MSFontService,sans-serif" font-weight="400" font-size="37" transform="matrix(1 0 0 1 2636.25 942)">Condiciones </text><text fill="#FFFFFF" font-family="CMU Serif,CMU Serif_MSFontService,sans-serif" font-weight="400" font-size="37" transform="matrix(1 0 0 1 2673.49 986)">de vida</text><text fill="#FFFFFF" font-family="CMU Serif,CMU Serif_MSFontService,sans-serif" font-weight="400" font-size="37" transform="matrix(1 0 0 1 2417.46 942)">Calidad</text><text fill="#FFFFFF" font-family="CMU Serif,CMU Serif_MSFontService,sans-serif" font-weight="400" font-size="37" transform="matrix(1 0 0 1 2397.69 986)">económica</text><text fill="#FFFFFF" font-family="CMU Serif,CMU Serif_MSFontService,sans-serif" font-weight="400" font-size="37" transform="matrix(1 0 0 1 2135.07 920)">Acceso a </text><text fill="#FFFFFF" font-family="CMU Serif,CMU Serif_MSFontService,sans-serif" font-weight="400" font-size="37" transform="matrix(1 0 0 1 2085.22 964)">infraestructura </text><text fill="#FFFFFF" font-family="CMU Serif,CMU Serif_MSFontService,sans-serif" font-weight="400" font-size="37" transform="matrix(1 0 0 1 2114.44 1008)">y mercados</text><text fill="#FFFFFF" font-family="CMU Serif,CMU Serif_MSFontService,sans-serif" font-weight="400" font-size="37" transform="matrix(1 0 0 1 1803.7 942)">Condiciones </text><text fill="#FFFFFF" font-family="CMU Serif,CMU Serif_MSFontService,sans-serif" font-weight="400" font-size="37" transform="matrix(1 0 0 1 1788.23 986)">Empresariales</text><text fill="#FFFFFF" font-family="CMU Serif,CMU Serif_MSFontService,sans-serif" font-weight="400" font-size="37" transform="matrix(1 0 0 1 1601.52 942)">Capital</text><text fill="#FFFFFF" font-family="CMU Serif,CMU Serif_MSFontService,sans-serif" font-weight="400" font-size="37" transform="matrix(1 0 0 1 1616.99 986)">social</text><text fill="#FFFFFF" font-family="CMU Serif,CMU Serif_MSFontService,sans-serif" font-weight="400" font-size="37" transform="matrix(1 0 0 1 1341.58 964)">Gobernanza</text><text fill="#FFFFFF" font-family="CMU Serif,CMU Serif_MSFontService,sans-serif" font-weight="400" font-size="37" transform="matrix(1 0 0 1 1136.06 942)">Libertad</text><text fill="#FFFFFF" font-family="CMU Serif,CMU Serif_MSFontService,sans-serif" font-weight="400" font-size="37" transform="matrix(1 0 0 1 1138.35 986)">personal</text><text fill="#FFFFFF" font-family="CMU Serif,CMU Serif_MSFontService,sans-serif" font-weight="400" font-size="37" transform="matrix(1 0 0 1 908.102 964)">Seguridad</text><text fill="#FFFFFF" font-family="CMU Serif,CMU Serif_MSFontService,sans-serif" font-weight="400" font-size="37" transform="matrix(1 0 0 1 624.856 964)">País</text><text fill="#FFFFFF" font-family="CMU Serif,CMU Serif_MSFontService,sans-serif" font-weight="400" font-size="37" transform="matrix(1 0 0 1 314.022 964)">Lugar</text><text fill="#FFFFFF" font-family="CMU Serif,CMU Serif_MSFontService,sans-serif" font-weight="400" font-size="73" transform="matrix(1 0 0 1 2928.66 1131)">16</text><text fill="#FFFFFF" font-family="CMU Serif,CMU Serif_MSFontService,sans-serif" font-weight="400" font-size="73" transform="matrix(1 0 0 1 2713.88 1131)">2</text><text fill="#FFFFFF" font-family="CMU Serif,CMU Serif_MSFontService,sans-serif" font-weight="400" font-size="73" transform="matrix(1 0 0 1 2461.57 1131)">7</text><text fill="#FFFFFF" font-family="CMU Serif,CMU Serif_MSFontService,sans-serif" font-weight="400" font-size="73" transform="matrix(1 0 0 1 2186.06 1131)">9</text><text fill="#FFFFFF" font-family="CMU Serif,CMU Serif_MSFontService,sans-serif" font-weight="400" font-size="73" transform="matrix(1 0 0 1 1881.33 1131)">8</text><text fill="#FFFFFF" font-family="CMU Serif,CMU Serif_MSFontService,sans-serif" font-weight="400" font-size="73" transform="matrix(1 0 0 1 1642.48 1131)">1</text><text fill="#FFFFFF" font-family="CMU Serif,CMU Serif_MSFontService,sans-serif" font-weight="400" font-size="73" transform="matrix(1 0 0 1 1419.49 1131)">3</text><text fill="#FFFFFF" font-family="CMU Serif,CMU Serif_MSFontService,sans-serif" font-weight="400" font-size="73" transform="matrix(1 0 0 1 1186.48 1131)">2</text><text fill="#FFFFFF" font-family="CMU Serif,CMU Serif_MSFontService,sans-serif" font-weight="400" font-size="73" transform="matrix(1 0 0 1 969.69 1131)">6</text><g><text fill="#FFFFFF" font-family="CMU Serif,CMU Serif_MSFontService,sans-serif" font-weight="400" font-size="73" transform="matrix(1 0 0 1 495.95 1131)">Dinamarca</text></g><text fill="#FFFFFF" font-family="CMU Serif,CMU Serif_MSFontService,sans-serif" font-weight="400" font-size="73" transform="matrix(1 0 0 1 342.955 1131)">1</text><text fill="#FFFFFF" font-family="CMU Serif,CMU Serif_MSFontService,sans-serif" font-weight="400" font-size="73" transform="matrix(1 0 0 1 2928.66 1279)">14</text><text fill="#FFFFFF" font-family="CMU Serif,CMU Serif_MSFontService,sans-serif" font-weight="400" font-size="73" transform="matrix(1 0 0 1 2713.88 1279)">1</text><text fill="#FFFFFF" font-family="CMU Serif,CMU Serif_MSFontService,sans-serif" font-weight="400" font-size="73" transform="matrix(1 0 0 1 2461.57 1279)">1</text><text fill="#FFFFFF" font-family="CMU Serif,CMU Serif_MSFontService,sans-serif" font-weight="400" font-size="73" transform="matrix(1 0 0 1 2167.72 1279)">11</text><text fill="#FFFFFF" font-family="CMU Serif,CMU Serif_MSFontService,sans-serif" font-weight="400" font-size="73" transform="matrix(1 0 0 1 1881.33 1279)">4</text><text fill="#FFFFFF" font-family="CMU Serif,CMU Serif_MSFontService,sans-serif" font-weight="400" font-size="73" transform="matrix(1 0 0 1 1624.15 1279)">21</text><text fill="#FFFFFF" font-family="CMU Serif,CMU Serif_MSFontService,sans-serif" font-weight="400" font-size="73" transform="matrix(1 0 0 1 1400.87 1279)">18</text><text fill="#FFFFFF" font-family="CMU Serif,CMU Serif_MSFontService,sans-serif" font-weight="400" font-size="73" transform="matrix(1 0 0 1 1149.81 1279)">107</text><text fill="#FFFFFF" font-family="CMU Serif,CMU Serif_MSFontService,sans-serif" font-weight="400" font-size="73" transform="matrix(1 0 0 1 969.69 1279)">7</text><g><text fill="#FFFFFF" font-family="CMU Serif,CMU Serif_MSFontService,sans-serif" font-weight="400" font-size="73" transform="matrix(1 0 0 1 554.762 1279)">Singapur</text></g><text fill="#FFFFFF" font-family="CMU Serif,CMU Serif_MSFontService,sans-serif" font-weight="400" font-size="73" transform="matrix(1 0 0 1 324.621 1279)">17</text><text fill="#FFFFFF" font-family="CMU Serif,CMU Serif_MSFontService,sans-serif" font-weight="400" font-size="73" transform="matrix(1 0 0 1 2928.66 1427)">86</text><text fill="#FFFFFF" font-family="CMU Serif,CMU Serif_MSFontService,sans-serif" font-weight="400" font-size="73" transform="matrix(1 0 0 1 2695.54 1427)">49</text><text fill="#FFFFFF" font-family="CMU Serif,CMU Serif_MSFontService,sans-serif" font-weight="400" font-size="73" transform="matrix(1 0 0 1 2443.23 1427)">47</text><text fill="#FFFFFF" font-family="CMU Serif,CMU Serif_MSFontService,sans-serif" font-weight="400" font-size="73" transform="matrix(1 0 0 1 2167.72 1427)">81</text><text fill="#FFFFFF" font-family="CMU Serif,CMU Serif_MSFontService,sans-serif" font-weight="400" font-size="73" transform="matrix(1 0 0 1 1862.99 1427)">66</text><text fill="#FFFFFF" font-family="CMU Serif,CMU Serif_MSFontService,sans-serif" font-weight="400" font-size="73" transform="matrix(1 0 0 1 1624.15 1427)">61</text><text fill="#FFFFFF" font-family="CMU Serif,CMU Serif_MSFontService,sans-serif" font-weight="400" font-size="73" transform="matrix(1 0 0 1 1382.54 1427)">101</text><text fill="#FFFFFF" font-family="CMU Serif,CMU Serif_MSFontService,sans-serif" font-weight="400" font-size="73" transform="matrix(1 0 0 1 1168.14 1427)">80</text><text fill="#FFFFFF" font-family="CMU Serif,CMU Serif_MSFontService,sans-serif" font-weight="400" font-size="73" transform="matrix(1 0 0 1 933.023 1427)">148</text><g><text fill="#FFFFFF" font-family="CMU Serif,CMU Serif_MSFontService,sans-serif" font-weight="400" font-size="73" transform="matrix(1 0 0 1 615.558 1427)">México</text></g><text fill="#FFFFFF" font-family="CMU Serif,CMU Serif_MSFontService,sans-serif" font-weight="400" font-size="73" transform="matrix(1 0 0 1 324.621 1427)">71</text></g></svg>