<?xml version="1.0" encoding="UTF-8" standalone="no"?>
<!-- Uploaded to: SVG Repo, www.svgrepo.com, Generator: SVG Repo Mixer Tools -->

<svg
   fill="#000000"
   width="520.32501"
   height="520.32501"
   viewBox="-5.5 0 20.813 20.813"
   version="1.1"
   id="svg1"
   xmlns="http://www.w3.org/2000/svg"
   xmlns:svg="http://www.w3.org/2000/svg">
  <defs
     id="defs1" />
  <title
     id="title1">linkedin</title>
  <path
     d="M -5.5000001,2.6249996 V 18.188 c 0,1.469 1.156,2.625 2.625,2.625 H 12.688 c 0.719,0 1.406,-0.344 1.844,-0.781 0.469,-0.469 0.781,-1.063 0.781,-1.844 V 2.6249996 C 15.313,1.1559996 14.157,-4.7074553e-7 12.688,-4.7074553e-7 H -2.8750001 c -0.781,0 -1.375,0.31300000074553 -1.844,0.78100000074553 -0.438,0.43800007 -0.781,1.12500007 -0.781,1.84400007 z m 2.813,2.062 c 0,-1 0.813,-1.875 1.81299997,-1.875 1.031,0 1.87500003,0.875 1.87500003,1.875 0,1.031 -0.84400003,1.844 -1.87500003,1.844 -0.99999997,0 -1.81299997,-0.813 -1.81299997,-1.844 z M 2.3439999,17.531 V 7.9999996 c 0,-0.219 0.219,-0.406 0.375,-0.406 h 2.656 c 0.375,0 0.375,0.438 0.375,0.719 0.75,-0.75 1.719,-0.938 2.719,-0.938 2.4380001,0 4.0000001,1.156 4.0000001,3.7190004 v 6.438 c 0,0.219 -0.188,0.406 -0.375,0.406 H 9.3439999 c -0.219,0 -0.375,-0.219 -0.375,-0.406 v -5.813 c 0,-0.969 -0.281,-1.5 -1.375,-1.5 -1.375,0 -1.719,0.906 -1.719,2.125 v 5.188 c 0,0.219 -0.219,0.406 -0.438,0.406 h -2.719 c -0.156,0 -0.375,-0.219 -0.375,-0.406 z m -4.969,0 V 7.9999996 c 0,-0.219 0.219,-0.406 0.375,-0.406 h 2.71899997 c 0.25,0 0.406,0.156 0.406,0.406 V 17.531 c 0,0.219 -0.188,0.406 -0.406,0.406 H -2.2500001 c -0.188,0 -0.375,-0.219 -0.375,-0.406 z"
     id="path1"
     style="fill:#ffffff" />
</svg>
